<ttFont>
          <CharString index="0">
            -107 callgsubr
            endchar
          </CharString>
          <CharString index="1">
            rmoveto
            41 hlineto
            83 101 84 -101 rlineto
            41 5 hlineto
            -92 133 rlineto
            -65 hlineto
            -92 -133 rlineto
            return
          </CharString>
          <CharString index="2">
            rmoveto
            199 -9 63 -168 -1 callsubr
            vhcurveto
            -97 callsubr
            return
          </CharString>
          <CharString index="3">
            rmoveto
            226 15 50 302 302 -15 50 -226 -225 -15 -50 -302 -302 15 -50 225 -18 callsubr
            -165 -16 8 291 291 16 8 165 166 16 -8 -291 -291 -16 -8 -166 hvcurveto
            return
          </CharString>
          <CharString index="4">
            -25 callsubr
            22 1 2 39 12 vhcurveto
            22 7 rlineto
            46 15 6 19 37 vvcurveto
            57 -32 14 -84 -28 -43 -3 -4 -31 vhcurveto
            -37 vlineto
            3 34 37 2 24 hhcurveto
            61 18 -2 -35 -25 -8 -6 -41 -11 hvcurveto
            -20 -6 rlineto
            -30 -10 -11 -7 -33 vvcurveto
            return
          </CharString>
          <CharString index="5">
            -104 callsubr
            endchar
          </CharString>
          <CharString index="6">
            -264 hlineto
            -120 -3 -83 -132 -104 -18 19 144 vhcurveto
            304 -56 -321 vlineto
            -141 21 -56 137 102 36 37 47 16 vhcurveto
            5 hlineto
            return
          </CharString>
          <CharString index="7">
            -179 -9 -40 -156 -156 -10 40 179 vhcurveto
            424 -59 -391 vlineto
            -243 19 -62 206 206 18 62 243 vhcurveto
            return
          </CharString>
          <CharString index="8">
            -98 callgsubr
            endchar
          </CharString>
          <CharString index="9">
            -137 -1 30 183 183 1 32 137 137 2 -32 -183 -183 -2 -30 -137 hvcurveto
            return
          </CharString>
          <CharString index="10">
            -69 callsubr
            -139 -13 35 160 hvcurveto
            318 -5 callsubr
            233 rmoveto
            98 26 -17 -156 hvcurveto
            -15 -263 vlineto
            162 14 26 125 vhcurveto
            return
          </CharString>
          <CharString index="11">
            rmoveto
            175 28 73 198 hvcurveto
            442 -56 -264 vlineto
            -119 -42 callgsubr
            143 vhcurveto
            304 -56 -315 vlineto
            -144 20 -58 138 102 34 38 39 14 vhcurveto
            5 -24 hlineto
            -144 -13 -55 -144 -41 -54 2 3 -46 -20 callgsubr
            -4 39 62 -3 50 hhcurveto
            return
          </CharString>
          <CharString index="12">
            rmoveto
            116 52 29 117 111 -26 20 -74 8 hvcurveto
            -120 14 rlineto
            -50 6 -13 8 71 vvcurveto
            84 44 9 70 53 47 -4 -8 44 vhcurveto
            48 vlineto
            7 -35 -58 6 -44 hhcurveto
            -110 -66 -18 -129 -88 20 -33 77 -9 hvcurveto
            122 -14 rlineto
            50 -6 13 -4 -81 vvcurveto
            -65 -13 -30 -95 -58 -40 3 8 -62 -20 callgsubr
            -7 41 66 -5 49 hhcurveto
            return
          </CharString>
          <CharString index="13">
            -25 callsubr
            22 1 3 39 12 vhcurveto
            22 6 rlineto
            46 15 6 19 38 vvcurveto
            56 -32 14 -84 -28 -43 -3 -4 -31 vhcurveto
            -36 vlineto
            2 34 37 2 24 hhcurveto
            61 18 -2 -34 -26 -8 -6 -41 -11 hvcurveto
            -20 -6 rlineto
            -30 -10 -11 -7 -33 vvcurveto
            return
          </CharString>
          <CharString index="14">
            rmoveto
            207 7 55 249 hvcurveto
            72 -205 -52 147 -26 vlineto
            -224 -8 -21 -150 -166 -21 34 265 292 37 7 190 38 66 -7 -8 52 vhcurveto
            49 vlineto
            11 -48 -78 8 -59 hhcurveto
            -212 -45 -49 -303 -303 38 -49 210 hvcurveto
            return
          </CharString>
          <CharString index="15">
            rmoveto
            -253 vlineto
            -5 -33 -59 -5 -38 hhcurveto
            -169 -20 41 259 293 38 6 183 38 68 -7 -8 47 hvcurveto
            49 vlineto
            10 -44 -78 9 -62 hhcurveto
            -206 -43 -51 -301 -304 43 -48 205 54 78 7 11 55 hvcurveto
            349 -203 -52 vlineto
            return
          </CharString>
          <CharString index="16">
            -751 -107 callsubr
          </CharString>
          <CharString index="17">
            -89 callsubr
            endchar
          </CharString>
          <CharString index="18">
            rmoveto
            -216 vlineto
            -179 -10 -41 -156 -156 -9 41 179 vhcurveto
            216 -59 -184 vlineto
            -230 17 -68 177 -6 vhcurveto
            -200 59 199 vlineto
            179 7 16 68 230 vvcurveto
            184 vlineto
            return
          </CharString>
          <CharString index="19">
            5 -63 vlineto
            -71 callgsubr
            return
          </CharString>
          <CharString index="20">
            rmoveto
            103 7 26 70 70 -7 26 -103 -103 -6 -26 -70 -70 6 -26 103 hvcurveto
            36 vmoveto
            -64 -2 13 47 47 2 14 64 65 2 -14 -47 -47 -2 -13 -65 hvcurveto
            return
          </CharString>
          <CharString index="21">
            rmoveto
            42 hlineto
            67 2 36 78 78 1 -36 -67 vhcurveto
            42 hlineto
            82 -3 59 -118 -118 -4 -59 -82 vhcurveto
            return
          </CharString>
          <CharString index="22">
            rmoveto
            51 vlineto
            -5 -33 -51 -4 -38 hhcurveto
            -173 -17 26 273 273 17 26 173 35 47 -4 -5 36 hvcurveto
            49 vlineto
            7 -32 -55 6 -44 hhcurveto
            -203 -33 -50 -302 -305 33 -47 203 43 57 5 6 35 hvcurveto
            endchar
          </CharString>
          <CharString index="23">
            -83 callsubr
            endchar
          </CharString>
          <CharString index="24">
            56 321 hlineto
            -42 callsubr
            -31 callsubr
            vhcurveto
            -46 callsubr
            -510 -2 callgsubr
            -2 callsubr
            2 83 132 105 18 -19 -144 vhcurveto
            return
          </CharString>
          <CharString index="25">
            59 271 hlineto
            220 417 rlineto
            -62 hlineto
            -182 -349 rlineto
            -7 hlineto
            -183 349 rlineto
            -63 hlineto
            218 -417 rlineto
            return
          </CharString>
          <CharString index="26">
            rmoveto
            68 80 -68 hlineto
            endchar
          </CharString>
          <CharString index="27">
            69 hlineto
            165 688 rlineto
            -59 hlineto
            -137 -598 rlineto
            -6 hlineto
            -155 598 rlineto
            -64 hlineto
            -154 -598 rlineto
            -6 hlineto
            -138 598 rlineto
            -61 hlineto
            165 -688 rlineto
            69 hlineto
            154 587 rlineto
            4 hlineto
            endchar
          </CharString>
          <CharString index="28">
            603 -96 callgsubr
            return
          </CharString>
          <CharString index="29">
            58 688 -57 -563 -4 hlineto
            -330 563 rlineto
            -60 -688 56 569 4 hlineto
            return
          </CharString>
          <CharString index="30">
            185 hlineto
            233 15 48 296 296 -15 48 -233 hvcurveto
            -185 hlineto
            58 -635 rmoveto
            582 116 vlineto
            184 16 -7 -284 -284 -13 -7 -187 hvcurveto
            return
          </CharString>
          <CharString index="31">
            429 52 -358 hlineto
            352 587 rlineto
            49 -413 -53 342 vlineto
            -352 -585 rlineto
            return
          </CharString>
          <CharString index="32">
            56 249 hlineto
            140 29 72 125 vhcurveto
            57 vlineto
            -74 -58 -20 -89 -22 hvcurveto
            10 callgsubr
            101 rlineto
            -48 hlineto
            return
          </CharString>
          <CharString index="33">
            -119 -17 25 187 187 17 25 115 72 39 -21 -56 16 hvcurveto
            10 -33 1 -44 -48 vvcurveto
            -69 -1 -45 -13 -42 vhcurveto
            return
          </CharString>
          <CharString index="34">
            rmoveto
            102 40 8 110 hvcurveto
            589 -56 -605 vlineto
            -30 callgsubr
            endchar
          </CharString>
          <CharString index="35">
            -888 -99 callgsubr
          </CharString>
          <CharString index="36">
            rmoveto
            -51 vlineto
            171 2 7 11 249 vvcurveto
            426 -59 -446 vlineto
            -182 -1 -5 -118 -4 vhcurveto
            endchar
          </CharString>
          <CharString index="37">
            rmoveto
            49 92 rlineto
            -54 hlineto
            -35 -66 rlineto
            15 -35 -49 4 -67 hhcurveto
            -225 -15 -50 -302 -170 5 -90 44 -47 hvcurveto
            -49 -92 rlineto
            53 hlineto
            35 66 rlineto
            -14 35 49 -5 68 hhcurveto
            226 15 50 302 171 -5 90 -45 46 hvcurveto
            -372 -307 rmoveto
            291 16 8 165 58 40 -1 -13 27 vhcurveto
            -285 -533 rlineto
            -18 40 -3 74 134 vvcurveto
            181 -299 rmoveto
            -59 -40 1 13 -27 hvcurveto
            286 534 rlineto
            19 -40 3 -74 -135 vvcurveto
            -291 -16 -8 -166 vhcurveto
            endchar
          </CharString>
          <CharString index="38">
            48 vlineto
            -8 -43 -61 -5 -45 hhcurveto
            return
          </CharString>
          <CharString index="39">
            56 461 115 49 -115 108 hlineto
            66 23 14 92 vhcurveto
            45 vlineto
            -120 -51 -12 -123 hvcurveto
            -98 -91 -49 91 vlineto
            return
          </CharString>
          <CharString index="40">
            12 279 -8 -97 callgsubr
            return
          </CharString>
          <CharString index="41">
            rmoveto
            -39 vlineto
            -5 30 45 -3 30 hhcurveto
            109 25 35 86 70 -16 39 -101 -26 -31 -2 -3 -18 hvcurveto
            115 167 41 -210 -198 vlineto
            4 31 35 2 20 hhcurveto
            84 19 -9 -64 -59 -17 -16 -79 -23 -41 2 4 -33 hvcurveto
            return
          </CharString>
          <CharString index="42">
            -88 221 -8 -95 callsubr
            return
          </CharString>
          <CharString index="43">
            95 187 750 -106 callsubr
            124 -763 -104 callsubr
            return
          </CharString>
          <CharString index="44">
            89 430 888 -101 callgsubr
            44 -888 rmoveto
            -105 callgsubr
            return
          </CharString>
          <CharString index="45">
            rmoveto
            212 53 -7 callgsubr
            return
          </CharString>
          <CharString index="46">
            62 416 888 -101 callgsubr
            84 -888 rmoveto
            -102 callgsubr
            return
          </CharString>
          <CharString index="47">
            56 322 hlineto
            139 -22 57 -137 -101 -34 -38 -38 -15 vhcurveto
            -4 301 -56 -743 -2 callgsubr
            -2 callsubr
            2 83 132 105 18 -19 -144 vhcurveto
            return
          </CharString>
          <CharString index="48">
            62 170 750 -106 callsubr
            330 -755 rmoveto
            -102 callgsubr
            return
          </CharString>
          <CharString index="49">
            185 hlineto
            233 15 48 296 296 -15 48 -233 hvcurveto
            -185 hlineto
            548 -688 rmoveto
            -76 callsubr
            -490 3 rmoveto
            582 116 vlineto
            184 16 -7 -284 -284 -13 -7 -187 hvcurveto
            endchar
          </CharString>
          <CharString index="50">
            46 rmoveto
            32 50 rlineto
            -83 52 -55 91 105 vvcurveto
            104 56 92 82 51 vhcurveto
            -32 51 rlineto
            -99 -62 -67 -111 -125 vvcurveto
            -126 67 -110 99 -62 vhcurveto
            return
          </CharString>
          <CharString index="51">
            hhcurveto
            -182 -12 -49 -215 -214 12 -48 182 return
          </CharString>
          <CharString index="52">
            62 531 hmoveto
            -90 callgsubr
            return
          </CharString>
          <CharString index="53">
            41 3 9 23 12 vhcurveto
            32 16 34 16 29 14 rrcurveto
            43 22 17 22 62 vvcurveto
            89 -49 7 -61 -30 -44 -3 -6 -35 vhcurveto
            -41 vlineto
            4 45 36 3 20 hhcurveto
            57 15 -9 -49 -35 -7 -15 -30 -15 hvcurveto
            -30 -14 -34 -17 -31 -16 rrcurveto
            -45 -22 -1 -19 -79 vvcurveto
            -45 224 return
          </CharString>
          <CharString index="54">
            104 318 rmoveto
            45 370 -33 hlineto
            -78 -45 rlineto
            -44 vlineto
            66 33 rlineto
            return
          </CharString>
          <CharString index="55">
            rmoveto
            32 51 rlineto
            -48 31 -33 53 62 vvcurveto
            61 33 54 49 31 vhcurveto
            -32 51 rlineto
            -66 -41 -44 -73 -83 vvcurveto
            -83 44 -73 65 -41 vhcurveto
            return
          </CharString>
          <CharString index="56">
            -96 callgsubr
            -183 return
          </CharString>
          <CharString index="57">
            4 vlineto
            29 14 17 24 45 vvcurveto
            74 -29 29 -91 -28 -41 -4 -5 -29 vhcurveto
            -41 vlineto
            5 32 35 3 23 hhcurveto
            57 25 -10 -54 -54 -27 -10 -26 hvcurveto
            -67 -40 67 hlineto
            40 17 -19 -50 -56 -30 -9 -52 -19 -33 3 4 -44 hvcurveto
            return
          </CharString>
          <CharString index="58">
            -55 callgsubr
            endchar
          </CharString>
          <CharString index="59">
            rmoveto
            78 1 -36 -67 hvcurveto
            42 hlineto
            82 -3 59 -118 -118 -4 -59 -82 vhcurveto
            42 hlineto
            67 2 36 78 vhcurveto
            return
          </CharString>
          <CharString index="60">
            -27 callsubr
            endchar
          </CharString>
          <CharString index="61">
            10 callgsubr
            76 rlineto
            -48 return
          </CharString>
          <CharString index="62">
            -62 371 hmoveto
            66 hlineto
            -187 263 184 247 rlineto
            -64 hlineto
            -166 -226 rlineto
            -67 return
          </CharString>
          <CharString index="63">
            689 -62 callsubr
            return
          </CharString>
          <CharString index="64">
            -37 hlineto
            -42 return
          </CharString>
          <CharString index="65">
            140 -22 57 -137 return
          </CharString>
          <CharString index="66">
            56 461 107 49 -107 148 -56 -148 -91 -49 91 hlineto
            return
          </CharString>
          <CharString index="67">
            510 -56 return
          </CharString>
          <CharString index="68">
            rmoveto
            92 132 rlineto
            6 -41 vlineto
            -84 -102 -83 102 rlineto
            -41 -6 hlineto
            92 -132 rlineto
            return
          </CharString>
          <CharString index="69">
            rmoveto
            39 hlineto
            32 157 rlineto
            82 -57 -82 vlineto
            return
          </CharString>
          <CharString index="70">
            16 21 80 hvcurveto
            30 return
          </CharString>
          <CharString index="71">
            hvcurveto
            5 hlineto
            4 -76 rlineto
            48 return
          </CharString>
          <CharString index="72">
            47 481 hmoveto
            67 hlineto
            -227 351 225 337 rlineto
            -65 hlineto
            -208 -313 rlineto
            -123 313 -58 -688 58 323 123 hlineto
            return
          </CharString>
          <CharString index="73">
            36 69 123 112 -43 41 -67 13 hvcurveto
            4 vlineto
            65 15 38 46 100 vvcurveto
            129 -51 52 -165 -51 -72 -7 -8 -48 vhcurveto
            -50 vlineto
            7 return
          </CharString>
          <CharString index="74">
            20 67 hhcurveto
            119 17 -25 -187 -187 -17 -25 -119 hvcurveto
            endchar
          </CharString>
          <CharString index="75">
            59 634 192 54 -443 -54 192 hlineto
            return
          </CharString>
          <CharString index="76">
            -102 -36 -37 -47 -16 return
          </CharString>
          <CharString index="77">
            -1 callgsubr
            -59 return
          </CharString>
          <CharString index="78">
            63 28 hmoveto
            534 -23 callgsubr
            688 rlineto
            -72 hlineto
            38 -72 rmoveto
            188 -564 rlineto
            -382 hlineto
            189 564 rlineto
            endchar
          </CharString>
          <CharString index="79">
            -213 81 hmoveto
            -75 callsubr
            return
          </CharString>
          <CharString index="80">
            -6 -13 -45 vhcurveto
            return
          </CharString>
          <CharString index="81">
            10 callsubr
            -8 -5 0 -4 hhcurveto
            -35 -11 19 return
          </CharString>
          <CharString index="82">
            rmoveto
            40 hlineto
            return
          </CharString>
          <CharString index="83">
            397 rmoveto
            109 7 31 118 118 -7 32 -109 -108 -7 -32 -118 -118 7 -31 108 hvcurveto
            return
          </CharString>
          <CharString index="84">
            vmoveto
            -98 callsubr
            return
          </CharString>
          <CharString index="85">
            rmoveto
            112 10 33 159 159 -10 34 -112 -112 -11 -34 -159 -159 11 -33 112 hvcurveto
            return
          </CharString>
          <CharString index="86">
            -25 callgsubr
            3 7 callsubr
            return
          </CharString>
          <CharString index="87">
            hhcurveto
            -178 -33 -49 -173 -169 54 -21 150 117 37 25 26 18 hvcurveto
            6 hlineto
            -246 return
          </CharString>
          <CharString index="88">
            rmoveto
            -58 -70 58 hlineto
            179 70 rmoveto
            -58 -70 58 hlineto
            return
          </CharString>
          <CharString index="89">
            hvcurveto
            53 vmoveto
            return
          </CharString>
          <CharString index="90">
            6 591 rmoveto
            -29 vlineto
            76 14 22 88 hvcurveto
            71 -67 -72 -3 callsubr
            -50 -27 callsubr
            return
          </CharString>
          <CharString index="91">
            -26 callsubr
            24 return
          </CharString>
          <CharString index="92">
            380 48 -380 hlineto
            return
          </CharString>
          <CharString index="93">
            6 8 35 return
          </CharString>
          <CharString index="94">
            68 92 hmoveto
            185 hlineto
            233 15 48 296 296 -15 48 -233 hvcurveto
            -185 return
          </CharString>
          <CharString index="95">
            55 500 rmoveto
            67 79 -28 17 hlineto
            49 6 14 45 vhcurveto
            29 vlineto
            -76 -14 -23 -87 hvcurveto
            return
          </CharString>
          <CharString index="96">
            rmoveto
            28 -17 hlineto
            -46 -27 callsubr
            -29 vlineto
            76 14 22 84 -14 callgsubr
            vlineto
            endchar
          </CharString>
          <CharString index="97">
            4 hlineto
            -55 22 50 -20 78 hhcurveto
            142 30 53 210 212 -31 51 -142 return
          </CharString>
          <CharString index="98">
            rmoveto
            65 45 45 65 65 -45 45 -65 -65 -45 -45 -65 -65 45 -45 65 hvcurveto
            60 vmoveto
            return
          </CharString>
          <CharString index="99">
            56 743 -56 hlineto
            return
          </CharString>
          <CharString index="100">
            391 vlineto
            return
          </CharString>
          <CharString index="101">
            -688 rmoveto
            46 82 47 42 -47 144 -39 hlineto
            -6 -144 rlineto
            -122 hlineto
            return
          </CharString>
          <CharString index="102">
            hlineto
            -179 return
          </CharString>
          <CharString index="103">
            47 100 vvcurveto
            128 -47 53 -174 -175 -47 -53 -128 -100 32 -47 return
          </CharString>
          <CharString index="104">
            28 -17 vlineto
            return
          </CharString>
          <CharString index="105">
            hlineto
            120 return
          </CharString>
          <CharString index="106">
            -188 -9 -69 -195 -205 22 -57 176 57 67 -14 callsubr
            return
          </CharString>
          <CharString index="107">
            81 hmoveto
            -8 callsubr
            return
          </CharString>
          <CharString index="108">
            189 hlineto
            163 12 99 113 116 -11 96 -164 hvcurveto
            return
          </CharString>
          <CharString index="109">
            hvcurveto
            -329 vmoveto
            -129 -39 21 116 121 32 19 136 return
          </CharString>
          <CharString index="110">
            hmoveto
            59 168 90 53 -90 273 -50 hlineto
            -8 -273 rlineto
            return
          </CharString>
          <CharString index="111">
            134 26 -9 -147 -135 -30 -15 -130 hvcurveto
            endchar
          </CharString>
          <CharString index="112">
            -6 -9 -48 vhcurveto
            -49 vlineto
            6 58 75 5 44 hhcurveto
            120 return
          </CharString>
          <CharString index="113">
            -8 rmoveto
            178 33 49 173 169 -54 21 -150 return
          </CharString>
          <CharString index="114">
            -743 -55 callgsubr
            return
          </CharString>
          <CharString index="115">
            205 -145 143 -207 return
          </CharString>
          <CharString index="116">
            88 -14 callgsubr
            -78 return
          </CharString>
          <CharString index="117">
            41 vlineto
            -1 return
          </CharString>
          <CharString index="118">
            21 -33 62 10 7 0 2 13 vhcurveto
            10 callsubr
            -8 return
          </CharString>
          <CharString index="119">
            238 7 43 309 309 -7 43 -238 return
          </CharString>
          <CharString index="120">
            vlineto
            -58 -185 rlineto
            -5 57 vlineto
            42 190 rlineto
            return
          </CharString>
          <CharString index="121">
            39 28 35 113 vvcurveto
            157 -85 13 -110 return
          </CharString>
          <CharString index="122">
            -19 -121 -116 -40 -21 -128 hvcurveto
            endchar
          </CharString>
          <CharString index="123">
            hlineto
            40 206 rlineto
            -47 hlineto
            -41 -206 rlineto
            return
          </CharString>
          <CharString index="124">
            -44 callgsubr
            endchar
          </CharString>
          <CharString index="125">
            vmoveto
            331 48 -331 hlineto
            return
          </CharString>
          <CharString index="126">
            -5 57 vlineto
            41 182 rlineto
            return
          </CharString>
          <CharString index="127">
            hlineto
            115 204 -115 205 rlineto
            return
          </CharString>
        <CharString name=".notdef">
          -28 0 vmoveto
          500 700 -500 hlineto
          450 -50 rmoveto
          -600 -400 600 vlineto
          179 -435 rmoveto
          53 53 hlineto
          33 21 18 23 19 vhcurveto
          30 26 37 36 67 vvcurveto
          12 -3 123 -140 -140 -11 -124 -23 -12 2 -13 2 -6 vhcurveto
          49 28 hlineto
          23 8 77 90 77 12 -59 -28 -51 -28 -24 -28 -23 vhcurveto
          -28 -23 -26 -23 -43 vvcurveto
          -4 -179 rmoveto
          60 70 -60 hlineto
          endchar
        </CharString>
        <CharString name="A">
          62 500 hmoveto
          -102 callgsubr
          endchar
        </CharString>
        <CharString name="A.ss01">
          89 474 hmoveto
          -105 callgsubr
          endchar
        </CharString>
        <CharString name="AE">
          288 469 hmoveto
          -51 callgsubr
        </CharString>
        <CharString name="AEacute">
          288 378 748 -96 callgsubr
          91 -753 rmoveto
          -51 callgsubr
        </CharString>
        <CharString name="Aacute">
          62 262 750 -96 callgsubr
          238 -755 -99 callgsubr
        </CharString>
        <CharString name="Aacute.ss01">
          89 275 749 -96 callgsubr
          199 -754 -103 callgsubr
        </CharString>
        <CharString name="Abreve">
          -61 callsubr
          endchar
        </CharString>
        <CharString name="Abreve.ss01">
          -63 callsubr
          endchar
        </CharString>
        <CharString name="Acircumflex">
          -59 callsubr
          endchar
        </CharString>
        <CharString name="Acircumflex.ss01">
          89 186 750 -106 callsubr
          288 -755 -103 callgsubr
        </CharString>
        <CharString name="Adieresis">
          62 176 772 -85 callgsubr
          145 -842 -99 callgsubr
        </CharString>
        <CharString name="Adieresis.ss01">
          89 192 771 -85 callgsubr
          103 -841 -103 callgsubr
        </CharString>
        <CharString name="Agrave">
          62 285 -46 callgsubr
          317 -885 -99 callgsubr
        </CharString>
        <CharString name="Agrave.ss01">
          89 301 749 -86 callgsubr
          275 -884 -103 callgsubr
        </CharString>
        <CharString name="Amacron">
          62 188 834 -62 callsubr
          312 -887 -99 callgsubr
        </CharString>
        <CharString name="Amacron.ss01">
          89 202 834 -62 callsubr
          272 -887 -103 callgsubr
        </CharString>
        <CharString name="Aogonek">
          62 491 -111 rmoveto
          37 31 49 27 25 vhcurveto
          13 -23 callgsubr
          688 rlineto
          -72 -23 callgsubr
          -688 17 callgsubr
          -202 rlineto
          -34 -35 -25 -48 -40 vvcurveto
          -42 11 callsubr
          -5 0 -4 hhcurveto
          -35 -11 19 24 hvcurveto
          -318 368 rmoveto
          119 358 rlineto
          5 hlineto
          118 -358 rlineto
          endchar
        </CharString>
        <CharString name="Aogonek.ss01">
          89 523 hmoveto
          10 391 hlineto
          242 -19 63 -206 -206 -18 -63 -242 vhcurveto
          -391 59 257 331 -255 vlineto
          -34 -36 -25 -48 -39 vvcurveto
          -42 21 -33 62 11 8 0 2 11 vhcurveto
          -16 callsubr
          37 31 49 27 25 hvcurveto
          -380 311 rmoveto
          113 vlineto
          179 9 40 156 156 10 -40 -179 vhcurveto
          -113 vlineto
          endchar
        </CharString>
        <CharString name="Aring">
          62 337 673 -61 callgsubr
        </CharString>
        <CharString name="Aring.ss01">
          89 308 744 -87 callsubr
          166 -780 -103 callgsubr
        </CharString>
        <CharString name="Aringacute">
          62 410 1058 rmoveto
          -88 callsubr
          -5 42 vlineto
          29 -250 -61 callgsubr
        </CharString>
        <CharString name="Aringacute.ss01">
          89 283 948 -96 callgsubr
          25 -227 -87 callsubr
          166 -762 -103 callgsubr
        </CharString>
        <CharString name="Atilde">
          62 452 864 -106 callgsubr
          48 -864 -99 callgsubr
        </CharString>
        <CharString name="Atilde.ss01">
          89 465 864 -106 callgsubr
          9 -864 -103 callgsubr
        </CharString>
        <CharString name="B">
          62 92 hmoveto
          253 hlineto
          152 28 89 92 78 -18 73 -99 18 hvcurveto
          4 vlineto
          79 16 31 57 89 vvcurveto
          103 -39 69 -128 vhcurveto
          -259 hlineto
          244 -313 rmoveto
          -186 260 186 hlineto
          97 26 -39 -91 -86 -43 -44 -80 hvcurveto
          3 -323 rmoveto
          -189 270 189 hlineto
          91 36 -40 -95 -93 -30 -42 -97 hvcurveto
          endchar
        </CharString>
        <CharString name="C">
          -38 442 3 -85 callsubr
        </CharString>
        <CharString name="Cacute">
          -38 217 748 -96 callgsubr
          225 -750 -85 callsubr
        </CharString>
        <CharString name="Cacute.loclPLK">
          -38 217 748 -72 callgsubr
          225 -750 -85 callsubr
        </CharString>
        <CharString name="Ccaron">
          -38 213 750 -95 callgsubr
          321 -879 -85 callsubr
        </CharString>
        <CharString name="Ccedilla">
          -38 320 45 rmoveto
          -173 -17 26 273 273 17 26 173 35 47 -4 -5 36 hvcurveto
          49 vlineto
          7 -32 -55 6 -44 hhcurveto
          -203 -33 -50 -302 -257 23 -74 129 -17 hvcurveto
          -56 -181 rlineto
          -5 57 vlineto
          41 183 rlineto
          -1 13 14 0 15 hhcurveto
          43 57 5 6 35 hvcurveto
          51 vlineto
          -5 -33 -51 -4 -38 hhcurveto
          endchar
        </CharString>
        <CharString name="Ccircumflex">
          -38 120 750 -106 callsubr
          322 -752 -85 callsubr
        </CharString>
        <CharString name="Cdotaccent">
          -38 216 -36 callgsubr
          226 -872 -85 callsubr
        </CharString>
        <CharString name="D">
          68 92 hmoveto
          -77 callsubr
          endchar
        </CharString>
        <CharString name="Dcaron">
          68 267 750 -95 callgsubr
          -83 -882 rmoveto
          -77 callsubr
          endchar
        </CharString>
        <CharString name="Dcroat">
          -52 callgsubr
        </CharString>
        <CharString name="E">
          -11 92 hmoveto
          -89 callgsubr
          endchar
        </CharString>
        <CharString name="Eacute">
          -11 254 750 -96 callgsubr
          -162 -755 rmoveto
          -89 callgsubr
          endchar
        </CharString>
        <CharString name="Ebreve">
          -11 401 888 -101 callgsubr
          -309 -888 rmoveto
          -89 callgsubr
          endchar
        </CharString>
        <CharString name="Ecaron">
          -11 248 750 -95 callgsubr
          -64 -882 rmoveto
          -89 callgsubr
          endchar
        </CharString>
        <CharString name="Ecircumflex">
          -11 158 750 -106 callsubr
          -66 -755 rmoveto
          -89 callgsubr
          endchar
        </CharString>
        <CharString name="Edieresis">
          -11 166 772 -85 callgsubr
          -253 -842 rmoveto
          -89 callgsubr
          endchar
        </CharString>
        <CharString name="Edotaccent">
          -11 251 -36 callgsubr
          -159 -875 rmoveto
          -89 callgsubr
          endchar
        </CharString>
        <CharString name="Egrave">
          -11 274 -46 callgsubr
          -80 -885 rmoveto
          -89 callgsubr
          endchar
        </CharString>
        <CharString name="Emacron">
          -11 173 834 -62 callsubr
          -81 -887 rmoveto
          -89 callgsubr
          endchar
        </CharString>
        <CharString name="Eng">
          107 486 688 rmoveto
          -561 -4 vlineto
          -330 561 rlineto
          -60 -688 56 569 4 hlineto
          334 -568 rlineto
          -96 vlineto
          -43 -7 -13 -78 vhcurveto
          -46 vlineto
          102 40 8 110 hvcurveto
          767 vlineto
          endchar
        </CharString>
        <CharString name="Eogonek">
          -11 436 -196 rmoveto
          11 9 1 1 9 hvcurveto
          8 callgsubr
          -34 -12 20 22 40 38 50 29 22 hvcurveto
          53 -318 268 278 53 -278 261 318 53 -377 -688 326 vlineto
          -38 -35 -28 -45 -44 vvcurveto
          -38 22 -34 62 vhcurveto
          endchar
        </CharString>
        <CharString name="Eth">
          -52 callgsubr
        </CharString>
        <CharString name="Euro">
          9 349 -8 rmoveto
          48 56 6 5 30 hvcurveto
          52 vlineto
          -5 -28 -50 -5 -43 hhcurveto
          -150 -32 19 183 -6 hvcurveto
          262 44 -263 109 263 43 -262 hlineto
          181 6 33 19 149 hhcurveto
          38 50 -5 -5 30 hvcurveto
          50 vlineto
          6 -27 -54 7 -50 hhcurveto
          -178 -47 -40 -213 -9 hvcurveto
          -77 -43 76 -109 -76 -44 77 hlineto
          -220 8 47 -35 179 hhcurveto
          endchar
        </CharString>
        <CharString name="F">
          -42 92 hmoveto
          59 307 269 52 -269 276 301 53 -360 hlineto
          endchar
        </CharString>
        <CharString name="G">
          56 449 307 -92 callsubr
          endchar
        </CharString>
        <CharString name="G.ss01">
          73 319 -8 -93 callsubr
          endchar
        </CharString>
        <CharString name="G_tilde.loclGUA">
          56 448 888 -106 callgsubr
          1 -581 -92 callsubr
          endchar
        </CharString>
        <CharString name="Gbreve">
          56 413 888 -101 callgsubr
          36 -581 -92 callsubr
          endchar
        </CharString>
        <CharString name="Gbreve.ss01">
          73 421 888 -101 callgsubr
          -102 -896 -93 callsubr
          endchar
        </CharString>
        <CharString name="Gcaron">
          56 260 750 -95 callgsubr
          281 -575 -92 callsubr
          endchar
        </CharString>
        <CharString name="Gcaron.ss01">
          73 268 750 -95 callgsubr
          143 -890 -93 callsubr
          endchar
        </CharString>
        <CharString name="Gcircumflex">
          56 167 750 -106 callsubr
          282 -448 -92 callsubr
          endchar
        </CharString>
        <CharString name="Gcircumflex.ss01">
          73 175 750 -106 callsubr
          144 -763 -93 callsubr
          endchar
        </CharString>
        <CharString name="Gcommaaccent">
          56 449 307 -92 callsubr
          -56 -523 -83 callgsubr
        </CharString>
        <CharString name="Gcommaaccent.ss01">
          73 319 -8 -93 callsubr
          -64 -208 -83 callgsubr
        </CharString>
        <CharString name="Gdotaccent">
          56 263 -36 callgsubr
          186 -568 -92 callsubr
          endchar
        </CharString>
        <CharString name="Gdotaccent.ss01">
          73 271 -36 callgsubr
          48 -883 -93 callsubr
          endchar
        </CharString>
        <CharString name="Gtilde.loclGUA.ss01">
          73 456 888 -106 callgsubr
          -137 -896 -93 callsubr
          endchar
        </CharString>
        <CharString name="H">
          106 484 hmoveto
          -35 callgsubr
          endchar
        </CharString>
        <CharString name="Hbar">
          106 484 688 rmoveto
          -147 -334 147 -58 -688 58 295 334 -295 -1 callgsubr
          vlineto
          -393 -339 rmoveto
          139 334 -139 vlineto
          endchar
        </CharString>
        <CharString name="Hcircumflex">
          106 192 750 -106 callsubr
          292 -755 rmoveto
          -35 callgsubr
          endchar
        </CharString>
        <CharString name="I">
          -283 93 hmoveto
          -30 callsubr
          hlineto
          endchar
        </CharString>
        <CharString name="IJ">
          7 93 hmoveto
          -30 callsubr
          hlineto
          180 -637 -71 callsubr
        </CharString>
        <CharString name="Iacute">
          -283 90 750 -96 callgsubr
          3 -755 -50 callgsubr
        </CharString>
        <CharString name="Iacute_J.loclNLD">
          7 95 748 -96 callgsubr
          299 -5 -96 callgsubr
          -301 -753 rmoveto
          -30 callsubr
          hlineto
          180 -637 -71 callsubr
        </CharString>
        <CharString name="Ibreve">
          -283 244 888 -101 callgsubr
          -151 -888 -50 callgsubr
        </CharString>
        <CharString name="Icircumflex">
          -283 -2 750 -106 callsubr
          95 -755 -50 callgsubr
        </CharString>
        <CharString name="Idieresis">
          -283 4 772 -85 callgsubr
          -90 -842 -50 callgsubr
        </CharString>
        <CharString name="Idotaccent">
          -283 94 -36 callgsubr
          -1 -875 -50 callgsubr
        </CharString>
        <CharString name="Igrave">
          -283 115 -46 callgsubr
          80 -885 -50 callgsubr
        </CharString>
        <CharString name="Imacron">
          -283 16 834 -62 callsubr
          77 -887 -50 callgsubr
        </CharString>
        <CharString name="Iogonek">
          -283 123 -196 rmoveto
          12 9 1 1 9 hvcurveto
          8 callgsubr
          -35 -11 19 24 38 36 51 26 22 hvcurveto
          688 -59 -688 8 vlineto
          -35 -35 -26 -47 -39 vvcurveto
          -42 21 -33 62 vhcurveto
          endchar
        </CharString>
        <CharString name="Itilde">
          -283 279 888 -106 callgsubr
          -186 -888 -50 callgsubr
        </CharString>
        <CharString name="J">
          -238 28 51 -71 callsubr
        </CharString>
        <CharString name="Jcircumflex">
          -238 52 750 -106 callsubr
          -24 -704 -71 callsubr
        </CharString>
        <CharString name="K">
          -35 callsubr
          endchar
        </CharString>
        <CharString name="Kcommaaccent">
          -35 callsubr
          -30 -539 -83 callgsubr
        </CharString>
        <CharString name="L">
          -69 92 hmoveto
          17 callsubr
        </CharString>
        <CharString name="Lacute">
          -69 100 748 -96 callgsubr
          -8 -753 15 callgsubr
        </CharString>
        <CharString name="Lcaron">
          -69 292 460 -38 callsubr
          -214 -617 15 callgsubr
        </CharString>
        <CharString name="Lcommaaccent">
          -69 92 hmoveto
          -44 callgsubr
          108 -904 -83 callgsubr
        </CharString>
        <CharString name="Ldot">
          -69 92 hmoveto
          -44 callgsubr
          232 -369 -81 callsubr
        </CharString>
        <CharString name="Lslash">
          -69 151 54 rmoveto
          262 vlineto
          174 64 rlineto
          51 vlineto
          -174 -64 rlineto
          321 -59 -343 vlineto
          -59 -22 rlineto
          -50 vlineto
          59 22 rlineto
          -295 343 54 vlineto
          endchar
        </CharString>
        <CharString name="M">
          265 643 hmoveto
          58 688 -81 hlineto
          -221 -591 rlineto
          -5 hlineto
          -220 591 rlineto
          -82 -688 56 583 4 hlineto
          217 -583 rlineto
          52 hlineto
          218 583 rlineto
          4 hlineto
          endchar
        </CharString>
        <CharString name="N">
          107 485 hmoveto
          -78 callsubr
          endchar
        </CharString>
        <CharString name="Nacute">
          107 289 748 -96 callgsubr
          196 -753 rmoveto
          -78 callsubr
          endchar
        </CharString>
        <CharString name="Nacute.loclPLK">
          107 289 748 -72 callgsubr
          196 -753 rmoveto
          -78 callsubr
          endchar
        </CharString>
        <CharString name="Ncaron">
          107 285 750 -95 callgsubr
          292 -882 rmoveto
          -78 callsubr
          endchar
        </CharString>
        <CharString name="Ncommaaccent">
          107 485 hmoveto
          -78 callsubr
          120 -785 -83 callgsubr
        </CharString>
        <CharString name="Ntilde">
          107 476 865 -106 callgsubr
          9 -865 rmoveto
          -78 callsubr
          endchar
        </CharString>
        <CharString name="O">
          95 311 -8 -102 callsubr
        </CharString>
        <CharString name="OE">
          379 311 hmoveto
          548 53 -298 hlineto
          -25 -27 -3 -2 -14 hvcurveto
          49 40 7 81 1 152 rrcurveto
          267 53 -267 hlineto
          -1 147 -8 79 -48 40 rrcurveto
          -2 15 26 -3 25 hhcurveto
          298 53 -548 hlineto
          -225 -15 -49 -295 -295 15 -49 225 -18 callsubr
          -165 -16 8 283 283 16 8 165 166 16 -8 -283 -283 -16 -8 -166 hvcurveto
          endchar
        </CharString>
        <CharString name="Oacute">
          95 281 750 -96 callgsubr
          30 -763 -102 callsubr
        </CharString>
        <CharString name="Oacute.loclPLK">
          95 284 748 -72 callgsubr
          27 -761 -102 callsubr
        </CharString>
        <CharString name="Obreve">
          95 433 888 -101 callgsubr
          -122 -896 -102 callsubr
        </CharString>
        <CharString name="Ocircumflex">
          -64 callsubr
          endchar
        </CharString>
        <CharString name="Odieresis">
          95 193 772 -85 callgsubr
          -61 -850 -102 callsubr
        </CharString>
        <CharString name="Ograve">
          95 295 -46 callgsubr
          118 -893 -102 callsubr
        </CharString>
        <CharString name="Ohorn">
          95 529 785 -91 callgsubr
          endchar
        </CharString>
        <CharString name="Ohungarumlaut">
          95 210 752 -78 callgsubr
          -63 -765 -102 callsubr
        </CharString>
        <CharString name="Omacron">
          95 205 834 -62 callsubr
          106 -895 -102 callsubr
        </CharString>
        <CharString name="Oslash">
          94 502 651 -70 callsubr
        </CharString>
        <CharString name="Oslashacute">
          94 427 883 rmoveto
          -88 callsubr
          -5 42 vlineto
          177 -97 -70 callsubr
        </CharString>
        <CharString name="Otilde">
          95 468 865 -106 callgsubr
          -157 -873 -102 callsubr
        </CharString>
        <CharString name="P">
          33 92 hmoveto
          58 264 1 callsubr
          -247 hlineto
          58 -372 rmoveto
          319 177 vlineto
          121 8 -56 -103 -103 -9 -57 -120 hvcurveto
          endchar
        </CharString>
        <CharString name="Q">
          95 478 19 rmoveto
          67 39 7 89 197 vvcurveto
          302 -15 50 -226 -225 -15 -50 -302 -302 15 -50 225 46 38 2 6 30 vhcurveto
          75 -115 rlineto
          66 2 hlineto
          -255 158 rmoveto
          -165 -16 8 291 291 16 8 165 166 16 -8 -291 -176 -6 -73 -40 -29 hvcurveto
          -101 152 rlineto
          -63 hlineto
          111 -170 rlineto
          -3 -22 -28 0 -33 hhcurveto
          endchar
        </CharString>
        <CharString name="R">
          -55 callsubr
          endchar
        </CharString>
        <CharString name="R.ss01">
          -60 callgsubr
          endchar
        </CharString>
        <CharString name="Racute">
          62 412 883 rmoveto
          -88 callsubr
          -5 42 vlineto
          221 -748 rmoveto
          -90 callgsubr
          endchar
        </CharString>
        <CharString name="Racute.ss01">
          68 414 883 rmoveto
          -88 callsubr
          -5 42 vlineto
          204 -578 -92 callgsubr
          endchar
        </CharString>
        <CharString name="Rcaron">
          62 329 750 -39 callsubr
          267 -750 rmoveto
          -90 callgsubr
          endchar
        </CharString>
        <CharString name="Rcaron.ss01">
          68 331 750 -39 callsubr
          250 -580 -92 callgsubr
          endchar
        </CharString>
        <CharString name="Rcommaaccent">
          -55 callsubr
          -58 -476 -11 callsubr
        </CharString>
        <CharString name="Rcommaaccent.ss01">
          -60 callgsubr
          -59 -480 -11 callsubr
        </CharString>
        <CharString name="S">
          -67 callsubr
          endchar
        </CharString>
        <CharString name="Sacute">
          12 242 748 -96 callgsubr
          37 -761 -97 callgsubr
          endchar
        </CharString>
        <CharString name="Sacute.loclPLK">
          12 242 748 -72 callgsubr
          37 -761 -97 callgsubr
          endchar
        </CharString>
        <CharString name="Scaron">
          13 245 750 -95 callgsubr
          126 -890 -97 callgsubr
          endchar
        </CharString>
        <CharString name="Scedilla">
          12 480 193 rmoveto
          50 -1 35 -9 24 vhcurveto
          -19 55 -43 9 -68 9 -143 18 rcurveline
          -69 8 -10 17 91 vvcurveto
          48 4 35 26 22 vhcurveto
          21 24 41 8 70 hhcurveto
          52 68 -5 -7 47 hvcurveto
          51 vlineto
          8 -39 -73 6 -66 hhcurveto
          -145 -68 -38 -149 -97 6 -61 109 -13 hvcurveto
          149 -19 rlineto
          95 -12 4 -11 -110 vvcurveto
          -53 -4 -44 -29 -20 vhcurveto
          -19 -30 -36 -5 -61 hhcurveto
          -48 -80 5 7 -57 hvcurveto
          -52 vlineto
          46 -7 66 -4 58 -2 -55 -177 rcurveline
          19 callsubr
          127 2 63 33 166 vvcurveto
          endchar
        </CharString>
        <CharString name="Scircumflex">
          12 145 750 -106 callsubr
          134 -763 -97 callgsubr
          endchar
        </CharString>
        <CharString name="Scommaaccent">
          -67 callsubr
          -54 -208 -83 callgsubr
        </CharString>
        <CharString name="T">
          -29 220 hmoveto
          -32 callsubr
          endchar
        </CharString>
        <CharString name="Tbar">
          -29 471 634 rmoveto
          54 -443 -54 192 -259 -165 -49 165 -326 59 326 165 49 -165 259 vlineto
          endchar
        </CharString>
        <CharString name="Tcaron">
          -29 217 750 -95 callgsubr
          95 -882 rmoveto
          -32 callsubr
          endchar
        </CharString>
        <CharString name="Thorn">
          33 92 hmoveto
          58 138 1 callsubr
          -189 126 -58 hlineto
          58 -497 rmoveto
          319 177 vlineto
          122 7 -56 -104 -103 -9 -56 -120 hvcurveto
          endchar
        </CharString>
        <CharString name="U">
          89 474 688 -99 callsubr
        </CharString>
        <CharString name="Uacute">
          89 279 750 -96 callgsubr
          195 -67 -99 callsubr
        </CharString>
        <CharString name="Ubreve">
          89 430 888 -101 callgsubr
          44 -200 -99 callsubr
        </CharString>
        <CharString name="Ucircumflex">
          89 185 750 -106 callsubr
          289 -67 -99 callsubr
        </CharString>
        <CharString name="Udieresis">
          89 190 772 -38 callgsubr
          -154 -99 callsubr
        </CharString>
        <CharString name="Ugrave">
          89 308 -46 callgsubr
          268 -197 -99 callsubr
        </CharString>
        <CharString name="Uhorn">
          89 589 785 -73 callgsubr
          -62 -424 hlineto
          -100 callsubr
          357 3 vlineto
          81 -37 callsubr
          vlineto
          endchar
        </CharString>
        <CharString name="Uhungarumlaut">
          89 207 752 -78 callgsubr
          103 -69 -99 callsubr
        </CharString>
        <CharString name="Umacron">
          89 202 834 -62 callsubr
          272 -199 -99 callsubr
        </CharString>
        <CharString name="Uogonek">
          89 474 688 rmoveto
          -424 vlineto
          -179 -9 -40 -156 -156 -10 40 179 vhcurveto
          424 -59 -391 vlineto
          -243 19 -62 206 30 26 1 5 23 vhcurveto
          -35 -37 -25 -45 -37 vvcurveto
          -42 22 -33 62 10 7 0 2 12 vhcurveto
          10 callsubr
          -7 -5 0 -4 hhcurveto
          -35 -12 19 24 52 43 53 42 26 hvcurveto
          62 37 8 82 158 vvcurveto
          -7 callsubr
          endchar
        </CharString>
        <CharString name="Uring">
          89 308 726 -87 callsubr
          166 -74 -99 callsubr
        </CharString>
        <CharString name="Utilde">
          89 465 888 -106 callgsubr
          9 -200 -99 callsubr
        </CharString>
        <CharString name="V">
          37 247 hmoveto
          71 hlineto
          222 688 rlineto
          -60 hlineto
          -194 -609 rlineto
          -6 hlineto
          -194 609 rlineto
          -61 hlineto
          endchar
        </CharString>
        <CharString name="W">
          312 577 hmoveto
          -80 callsubr
        </CharString>
        <CharString name="Wacute">
          312 392 748 -96 callgsubr
          185 -753 rmoveto
          -80 callsubr
        </CharString>
        <CharString name="Wcircumflex">
          312 295 750 -106 callsubr
          282 -755 rmoveto
          -80 callsubr
        </CharString>
        <CharString name="Wdieresis">
          312 301 805 -85 callgsubr
          97 -875 rmoveto
          -80 callsubr
        </CharString>
        <CharString name="Wgrave">
          312 407 748 -86 callgsubr
          272 -883 rmoveto
          -80 callsubr
        </CharString>
        <CharString name="X">
          53 485 hmoveto
          68 hlineto
          -225 347 222 341 rlineto
          -66 hlineto
          -189 -291 rlineto
          -7 hlineto
          -189 291 rlineto
          -68 hlineto
          223 -342 -226 -346 rlineto
          66 hlineto
          192 295 rlineto
          7 hlineto
          endchar
        </CharString>
        <CharString name="Y">
          -10 229 hmoveto
          -82 callsubr
          endchar
        </CharString>
        <CharString name="Y.loclGUA">
          -10 425 688 -90 callsubr
        </CharString>
        <CharString name="Yacute">
          -10 237 750 -96 callgsubr
          -8 -755 rmoveto
          -82 callsubr
          endchar
        </CharString>
        <CharString name="Yacute.loclGUA">
          -10 375 883 rmoveto
          -88 callsubr
          -5 42 vlineto
          152 -60 -90 callsubr
        </CharString>
        <CharString name="Ycircumflex">
          -10 135 750 -106 callsubr
          94 -755 rmoveto
          -82 callsubr
          endchar
        </CharString>
        <CharString name="Ycircumflex.loclGUA">
          -10 258 851 -67 callgsubr
          250 -62 -90 callsubr
        </CharString>
        <CharString name="Ydieresis">
          -10 143 772 -85 callgsubr
          -93 -842 rmoveto
          -82 callsubr
          endchar
        </CharString>
        <CharString name="Ydieresis.loclGUA">
          -10 198 875 -19 callsubr
          48 -117 -90 callsubr
        </CharString>
        <CharString name="Ygrave">
          -10 247 748 -86 callgsubr
          84 -883 rmoveto
          -82 callsubr
          endchar
        </CharString>
        <CharString name="Ygrave.loclGUA">
          -10 288 748 -64 callgsubr
          179 -60 -90 callsubr
        </CharString>
        <CharString name="Z">
          -14 44 hmoveto
          -76 callsubr
          endchar
        </CharString>
        <CharString name="Zacute">
          -14 229 748 -96 callgsubr
          -185 -753 rmoveto
          -76 callsubr
          endchar
        </CharString>
        <CharString name="Zacute.loclPLK">
          -14 229 748 -72 callgsubr
          -185 -753 rmoveto
          -76 callsubr
          endchar
        </CharString>
        <CharString name="Zcaron">
          -13 232 750 -95 callgsubr
          -96 -882 rmoveto
          -76 callsubr
          endchar
        </CharString>
        <CharString name="Zdotaccent">
          -14 228 -36 callgsubr
          -184 -875 rmoveto
          -76 callsubr
          endchar
        </CharString>
        <CharString name="a">
          -27 206 -8 -107 callsubr
        </CharString>
        <CharString name="aacute">
          -27 216 -79 callsubr
          -10 -616 -107 callsubr
        </CharString>
        <CharString name="abreve">
          -27 372 743 -101 callgsubr
          -166 -91 callsubr
        </CharString>
        <CharString name="acircumflex">
          -27 127 605 -106 callsubr
          79 -618 -107 callsubr
        </CharString>
        <CharString name="acute">
          -357 13 -79 callsubr
          endchar
        </CharString>
        <CharString name="acute.case.loclPLK">
          -357 13 748 -72 callgsubr
          endchar
        </CharString>
        <CharString name="acute.loclPLK">
          -357 13 603 -72 callgsubr
          endchar
        </CharString>
        <CharString name="acutecomb">
          -158 -79 callsubr
          endchar
        </CharString>
        <CharString name="acutecomb.case">
          -158 748 -96 callgsubr
          endchar
        </CharString>
        <CharString name="adieresis">
          -27 134 659 -85 callgsubr
          -107 -737 -107 callsubr
        </CharString>
        <CharString name="ae">
          272 740 258 -75 callgsubr
        </CharString>
        <CharString name="aeacute">
          272 518 738 rmoveto
          -88 callsubr
          -5 42 vlineto
          324 -345 -75 callgsubr
        </CharString>
        <CharString name="agrave">
          -27 248 603 -86 callgsubr
          60 -746 -107 callsubr
        </CharString>
        <CharString name="amacron">
          -27 144 -44 callsubr
          62 -750 -107 callsubr
        </CharString>
        <CharString name="ampersand">
          106 443 374 rmoveto
          -323 vlineto
          -8 -40 -47 -2 -39 hhcurveto
          -134 -63 19 121 89 12 53 126 hvcurveto
          88 51 -88 hlineto
          -125 -8 73 61 100 24 38 187 41 68 -6 -9 51 hvcurveto
          48 vlineto
          10 -51 -77 7 -54 hhcurveto
          -204 -42 -69 -112 -100 35 -43 70 -19 hvcurveto
          -4 vlineto
          -71 -19 -39 -34 -112 vvcurveto
          -123 34 -69 218 77 83 12 5 24 vhcurveto
          314 104 51 vlineto
          endchar
        </CharString>
        <CharString name="aogonek">
          -27 408 -154 rmoveto
          -35 -11 19 23 41 34 51 25 20 hvcurveto
          326 vlineto
          151 -30 41 -152 -61 -58 -5 -8 -40 -20 callgsubr
          6 34 68 6 39 hhcurveto
          122 22 -12 -134 hvcurveto
          -40 vlineto
          2 -59 -88 3 -29 hhcurveto
          -108 -32 -36 -113 -118 50 -29 107 58 75 8 76 25 hvcurveto
          5 hlineto
          4 -76 rlineto
          -35 -35 -26 -45 -43 vvcurveto
          -39 21 -34 62 10 7 0 2 12 vhcurveto
          10 callsubr
          -7 -5 0 -4 hhcurveto
          -43 362 rmoveto
          -49 -5 -33 -15 -34 vhcurveto
          -46 -21 -51 -5 -54 hhcurveto
          -93 -21 19 82 87 19 14 79 hvcurveto
          162 hlineto
          endchar
        </CharString>
        <CharString name="approxequal">
          -60 68 288 rmoveto
          37 hlineto
          43 4 15 28 28 30 -11 -10 29 vhcurveto
          -13 36 18 callgsubr
          74 hvcurveto
          -43 callsubr
          -4 -16 -29 -27 -30 11 10 -29 vhcurveto
          13 -37 -36 13 -37 hhcurveto
          -59 -8 -30 -74 hvcurveto
          -182 vmoveto
          37 hlineto
          42 4 16 28 28 30 -11 -10 28 vhcurveto
          -13 37 18 callgsubr
          74 hvcurveto
          -37 hlineto
          -43 -4 -15 -29 -27 -30 11 10 -29 vhcurveto
          12 -37 -36 14 -37 hhcurveto
          -59 -8 -30 -74 hvcurveto
          endchar
        </CharString>
        <CharString name="aring">
          -27 249 605 -87 callsubr
          -43 -649 -107 callsubr
        </CharString>
        <CharString name="aringacute">
          -27 227 836 -96 callgsubr
          23 -230 -87 callsubr
          -44 -655 -107 callsubr
        </CharString>
        <CharString name="arrowboth">
          355 318 184 rmoveto
          -40 95 rlineto
          326 hlineto
          -39 -95 16 callgsubr
          -326 hlineto
          40 96 -263 -121 rlineto
          endchar
        </CharString>
        <CharString name="arrowdown">
          -133 198 -85 rmoveto
          120 263 -95 -40 rlineto
          550 -50 -550 vlineto
          -96 40 rlineto
          endchar
        </CharString>
        <CharString name="arrowdown.ss01">
          -183 173 171 rmoveto
          142 285 rlineto
          -285 hlineto
          endchar
        </CharString>
        <CharString name="arrowleft">
          355 271 279 rmoveto
          557 50 -557 hlineto
          40 96 -256 -121 256 -120 rlineto
          endchar
        </CharString>
        <CharString name="arrowleft.ss01">
          -165 315 201 rmoveto
          285 vlineto
          -285 -143 rlineto
          endchar
        </CharString>
        <CharString name="arrowright">
          355 565 184 rmoveto
          16 callgsubr
          -549 -50 549 hlineto
          endchar
        </CharString>
        <CharString name="arrowright.ss01">
          -165 48 201 rmoveto
          285 142 -285 143 rlineto
          endchar
        </CharString>
        <CharString name="arrowup">
          -133 173 -81 rmoveto
          50 548 hlineto
          95 -39 -120 263 -121 -263 96 39 rlineto
          endchar
        </CharString>
        <CharString name="arrowup.ss01">
          -183 30 231 rmoveto
          285 hlineto
          -142 285 rlineto
          endchar
        </CharString>
        <CharString name="arrowupdn">
          -34 callgsubr
          endchar
        </CharString>
        <CharString name="arrowupdnbse">
          -34 callgsubr
          -22 -351 rmoveto
          285 47 -285 hlineto
          endchar
        </CharString>
        <CharString name="asciicircum">
          -88 332 460 rmoveto
          51 hlineto
          -132 289 rlineto
          -62 hlineto
          -133 -289 rlineto
          52 hlineto
          112 248 rlineto
          endchar
        </CharString>
        <CharString name="asciitilde">
          -60 401 359 rmoveto
          -43 callsubr
          -4 -15 -29 -27 -30 11 9 -29 vhcurveto
          13 -37 -36 13 -37 hhcurveto
          -59 -8 -30 -73 hvcurveto
          37 hlineto
          42 4 16 28 28 30 -11 -10 28 vhcurveto
          -13 37 18 callgsubr
          73 hvcurveto
          endchar
        </CharString>
        <CharString name="asterisk">
          -106 227 485 rmoveto
          123 -79 23 41 -129 66 129 68 -23 40 -123 -79 7 146 rlineto
          -46 hlineto
          6 -146 -122 79 -23 -40 129 -68 -129 -66 23 -41 122 79 -6 -146 rlineto
          46 hlineto
          endchar
        </CharString>
        <CharString name="asterisk.ss02">
          289 178 -14 rmoveto
          231 170 231 -170 -90 276 232 174 rlineto
          -288 hlineto
          -85 269 -87 -269 rlineto
          -287 hlineto
          234 -174 rlineto
          endchar
        </CharString>
        <CharString name="at">
          278 403 -108 rmoveto
          96 28 0 2 32 hvcurveto
          38 vlineto
          -2 -24 -63 -1 -69 hhcurveto
          -52 -43 2 2 -24 hvcurveto
          -163 15 -6 62 284 vvcurveto
          278 5 66 141 15 vhcurveto
          4 38 46 3 57 hhcurveto
          62 49 -3 -5 38 hvcurveto
          135 -17 5 -69 -272 vvcurveto
          -180 -18 -3 -43 vhcurveto
          -71 243 hlineto
          128 -23 36 -129 -49 -50 -4 -7 -36 vhcurveto
          -45 vlineto
          5 25 60 5 34 hhcurveto
          100 16 -10 -111 hvcurveto
          -33 vlineto
          2 -48 -74 2 -23 hhcurveto
          -91 -25 -32 -96 -101 41 -25 91 48 59 7 64 20 hvcurveto
          5 hlineto
          4 -64 rlineto
          106 hlineto
          82 29 7 212 351 -5 51 -323 -322 -5 -52 -350 -350 5 -52 322 hvcurveto
          -15 221 rmoveto
          -75 -15 15 69 74 14 10 63 hvcurveto
          132 -31 hlineto
          -108 -29 -29 -90 vhcurveto
          endchar
        </CharString>
        <CharString name="atilde">
          -27 407 743 -106 callgsubr
          -201 -91 callsubr
        </CharString>
        <CharString name="b">
          -4 290 -8 rmoveto
          142 31 52 211 210 -30 53 -142 -78 -50 -20 -55 -22 hvcurveto
          -4 300 -56 -743 48 hlineto
          4 76 rlineto
          4 hlineto
          -73 25 64 -11 64 hhcurveto
          -19 51 rmoveto
          -67 -39 20 48 -15 hvcurveto
          -12 39 -1 46 59 vvcurveto
          62 1 45 13 40 vhcurveto
          45 15 38 -33 callsubr
        </CharString>
        <CharString name="backslash">
          -216 250 -55 rmoveto
          53 hlineto
          -240 798 rlineto
          -55 hlineto
          endchar
        </CharString>
        <CharString name="bar">
          -281 97 -161 rmoveto
          53 904 -53 hlineto
          endchar
        </CharString>
        <CharString name="bar.ss02">
          -30 -1 hmoveto
          500 696 -500 hlineto
          endchar
        </CharString>
        <CharString name="braceleft">
          -246 216 -150 rmoveto
          49 hlineto
          -50 40 -42 69 67 vvcurveto
          120 vlineto
          77 -23 54 -60 17 vhcurveto
          5 vlineto
          60 17 23 54 77 vvcurveto
          120 vlineto
          67 42 69 50 40 vhcurveto
          -49 hlineto
          -48 -28 -50 -75 -82 vvcurveto
          -116 vlineto
          -61 -20 -66 -72 -1 vhcurveto
          -36 vlineto
          73 -1 19 -66 -60 vvcurveto
          -116 vlineto
          -82 50 -75 48 -28 vhcurveto
          endchar
        </CharString>
        <CharString name="braceright">
          -246 17 -150 rmoveto
          48 hlineto
          49 28 50 75 82 vvcurveto
          116 vlineto
          60 19 66 73 1 vhcurveto
          36 vlineto
          -73 1 -19 66 61 vvcurveto
          116 vlineto
          82 -50 75 -49 28 vhcurveto
          -48 hlineto
          50 -41 42 -68 -67 vvcurveto
          -120 vlineto
          -77 23 -54 59 -17 vhcurveto
          -5 vlineto
          -59 -17 -23 -54 -77 vvcurveto
          -120 vlineto
          -67 -42 -70 -50 -39 vhcurveto
          endchar
        </CharString>
        <CharString name="bracketleft">
          -245 92 -150 rmoveto
          157 45 hlineto
          -103 4 rlineto
          795 vlineto
          103 4 rlineto
          45 -157 vlineto
          endchar
        </CharString>
        <CharString name="bracketleft.ss02">
          2 callgsubr
          hvcurveto
          -348 vlineto
          endchar
        </CharString>
        <CharString name="bracketright">
          -245 34 -150 rmoveto
          157 893 -157 -45 hlineto
          103 -4 rlineto
          -795 vlineto
          -103 -4 rlineto
          endchar
        </CharString>
        <CharString name="bracketright.ss02">
          -131 0 vmoveto
          352 348 hlineto
          8 callsubr
          vhcurveto
          endchar
        </CharString>
        <CharString name="breve">
          -259 256 743 -101 callgsubr
          endchar
        </CharString>
        <CharString name="brokenbar">
          -281 97 390 rmoveto
          53 353 -53 hlineto
          -904 vmoveto
          53 353 -53 hlineto
          endchar
        </CharString>
        <CharString name="bullet">
          -201 261 342 rmoveto
          85 -4 14 -95 -91 -4 -14 -85 -82 4 -14 91 95 4 14 82 vhcurveto
          endchar
        </CharString>
        <CharString name="bullet.ss02">
          255 392 421 rmoveto
          62 50 39 73 90 -76 73 -36 -37 -76 -73 -90 -73 50 -39 63 hvcurveto
          60 vmoveto
          -30 -23 18 34 57 36 46 17 17 35 -46 -57 -34 -23 -18 -29 hvcurveto
          -189 -250 rmoveto
          73 39 50 63 62 -39 50 -73 -90 -73 -76 -36 -37 73 -76 90 hvcurveto
          378 hmoveto
          89 73 76 37 36 -73 76 -89 -74 -39 -50 -62 -63 39 -50 74 hvcurveto
          -378 60 rmoveto
          -57 -46 36 17 17 46 35 57 34 18 -23 -29 -30 -18 -23 -34 hvcurveto
          378 hmoveto
          -35 -18 23 30 29 18 23 35 56 46 -35 -17 -17 -46 -36 -56 hvcurveto
          -189 -299 rmoveto
          36 76 73 90 73 -50 39 -62 -63 -50 -39 -73 -90 76 -73 37 hvcurveto
          60 vmoveto
          -17 -36 46 57 34 23 18 30 29 23 -18 -34 -57 -35 -46 -17 hvcurveto
          endchar
        </CharString>
        <CharString name="c">
          -123 362 5 -84 callgsubr
        </CharString>
        <CharString name="cacute">
          -123 177 -79 callsubr
          185 -603 -84 callgsubr
        </CharString>
        <CharString name="cacute.loclPLK">
          -123 177 603 -72 callgsubr
          185 -603 -84 callgsubr
        </CharString>
        <CharString name="caron">
          -253 105 605 -95 callgsubr
          endchar
        </CharString>
        <CharString name="caron.loclCSY">
          -358 43 449 -38 callsubr
          endchar
        </CharString>
        <CharString name="ccaron">
          -123 171 605 -95 callgsubr
          283 -732 -84 callgsubr
        </CharString>
        <CharString name="ccedilla">
          -123 254 41 rmoveto
          -119 -18 33 182 175 17 38 118 32 44 -5 -6 30 hvcurveto
          48 vlineto
          7 -28 -50 5 -40 hhcurveto
          -149 -30 -60 -204 -161 10 -78 110 -19 hvcurveto
          -56 -181 rlineto
          19 callsubr
          20 hlineto
          41 49 5 8 29 hvcurveto
          48 vlineto
          -7 -28 -45 -5 -35 hhcurveto
          endchar
        </CharString>
        <CharString name="ccircumflex">
          -123 78 605 -106 callsubr
          284 -605 -84 callgsubr
        </CharString>
        <CharString name="cdotaccent">
          -123 174 -31 callgsubr
          188 -725 -84 callgsubr
        </CharString>
        <CharString name="cedilla">
          -391 19 -3 callgsubr
        </CharString>
        <CharString name="cent">
          -107 371 132 rmoveto
          -27 -7 -38 -5 -34 -1 rrcurveto
          448 vlineto
          32 38 -5 -6 25 hvcurveto
          50 vlineto
          -25 6 -34 5 -36 1 rrcurveto
          78 -48 -78 vlineto
          -122 -5 -40 -56 -215 vvcurveto
          -199 25 -68 137 -7 vhcurveto
          -76 48 75 vlineto
          40 2 33 5 26 7 rrcurveto
          -250 263 rmoveto
          171 17 43 86 7 vhcurveto
          -444 vlineto
          -86 8 -17 44 171 vvcurveto
          endchar
        </CharString>
        <CharString name="circumflex">
          -253 13 605 -106 callsubr
          endchar
        </CharString>
        <CharString name="colon">
          20 callgsubr
          -510 vmoveto
          68 80 -68 hlineto
          endchar
        </CharString>
        <CharString name="comma">
          -340 36 -81 -10 callgsubr
        </CharString>
        <CharString name="copyright">
          122 325 -8 rmoveto
          12 callsubr
          13 callgsubr
          hvcurveto
          32 11 callgsubr
          204 7 -21 -299 -299 -7 -21 -204 hvcurveto
          20 130 rmoveto
          26 31 2 4 18 hvcurveto
          37 vlineto
          -3 -17 -28 -2 -23 hhcurveto
          -85 -8 13 139 138 8 13 85 21 28 -2 -2 17 hvcurveto
          36 vlineto
          4 -14 -31 2 -28 hhcurveto
          -110 -18 -28 -161 -164 18 -26 110 hvcurveto
          endchar
        </CharString>
        <CharString name="currency">
          131 95 -9 rmoveto
          103 103 rlineto
          -18 27 41 -5 63 hhcurveto
          62 42 5 18 27 hvcurveto
          104 -103 34 34 -101 102 rlineto
          23 40 3 68 110 vvcurveto
          108 -3 67 -23 41 vhcurveto
          101 101 -34 34 -103 -103 rlineto
          19 -27 -42 6 -63 hhcurveto
          -63 -41 -6 -18 -28 hvcurveto
          -102 102 -34 -34 100 -101 rlineto
          -24 -40 -3 -68 -108 vvcurveto
          -111 3 -68 25 -40 vhcurveto
          -101 -101 rlineto
          268 95 rmoveto
          -137 -2 32 193 191 2 32 137 137 1 -32 -191 -193 -1 -32 -137 hvcurveto
          endchar
        </CharString>
        <CharString name="d">
          -4 -77 callgsubr
          20 51 rmoveto
          -74 callsubr
          -46 -14 -39 -20 -67 hhcurveto
          endchar
        </CharString>
        <CharString name="dagger">
          -146 171 hmoveto
          38 hlineto
          7 457 -24 callgsubr
          endchar
        </CharString>
        <CharString name="daggerdbl">
          -146 171 hmoveto
          38 hlineto
          7 180 118 6 rlineto
          38 vlineto
          -118 7 rlineto
          226 vlineto
          -24 callgsubr
          -226 vlineto
          -116 -7 rlineto
          -38 vlineto
          116 -6 rlineto
          endchar
        </CharString>
        <CharString name="dcaron">
          1 -77 callgsubr
          252 457 -38 callsubr
          -246 -563 rmoveto
          -74 callsubr
          -46 -14 -39 -20 -67 hhcurveto
          endchar
        </CharString>
        <CharString name="dcroat">
          -4 504 688 rmoveto
          -61 55 -56 -55 -132 -49 132 -196 -5 hlineto
          55 -22 -49 20 -78 hhcurveto
          -142 -30 -53 -210 -212 31 -51 141 65 64 11 73 24 -36 callsubr
          639 61 hlineto
          -131 -530 rmoveto
          -46 -14 -39 -20 -67 hhcurveto
          -74 callsubr
          endchar
        </CharString>
        <CharString name="degree">
          -177 175 -24 callsubr
          38 vmoveto
          0 callgsubr
          endchar
        </CharString>
        <CharString name="dialog">
          277 306 -212 rmoveto
          213 212 rlineto
          227 688 -687 -688 247 60 -187 568 567 -568 -192 hlineto
          -188 -187 rlineto
          endchar
        </CharString>
        <CharString name="dieresis">
          -251 20 660 -85 callgsubr
          endchar
        </CharString>
        <CharString name="divide">
          -16 227 399 rmoveto
          58 67 -58 hlineto
          -161 -237 rmoveto
          -15 callsubr
          161 -237 rmoveto
          58 66 -58 hlineto
          endchar
        </CharString>
        <CharString name="dollar">
          -50 413 220 rmoveto
          113 -24 24 -75 9 vhcurveto
          -48 6 rlineto
          196 vlineto
          39 -2 46 -4 37 -6 rrcurveto
          50 vlineto
          -32 7 -45 4 -45 2 rrcurveto
          77 -48 -78 vlineto
          -101 -4 -52 -31 -117 vvcurveto
          -92 21 -35 84 -10 vhcurveto
          48 -6 rlineto
          -204 vlineto
          -55 1 -38 4 -46 6 rrcurveto
          -50 vlineto
          35 -6 54 -5 50 -1 rrcurveto
          -76 48 76 vlineto
          104 5 43 34 113 vvcurveto
          -229 161 rmoveto
          -49 6 -13 9 75 vvcurveto
          80 36 14 60 3 vhcurveto
          -191 vlineto
          48 -258 rmoveto
          199 vlineto
          30 -4 rlineto
          45 -6 15 -4 -85 vvcurveto
          -70 -17 -26 -73 -4 vhcurveto
          endchar
        </CharString>
        <CharString name="dotaccent">
          -432 19 -31 callgsubr
          endchar
        </CharString>
        <CharString name="dotbelowcomb">
          -128 -142 -81 callsubr
        </CharString>
        <CharString name="dotlessi">
          -310 81 hmoveto
          -47 callgsubr
          endchar
        </CharString>
        <CharString name="e">
          -32 435 256 -105 callsubr
          endchar
        </CharString>
        <CharString name="eacute">
          -32 367 738 rmoveto
          -88 callsubr
          -5 42 vlineto
          170 -347 -105 callsubr
          endchar
        </CharString>
        <CharString name="ebreve">
          -32 247 602 rmoveto
          118 4 59 82 hvcurveto
          -42 hlineto
          -67 -2 -36 -78 -78 -1 36 67 vhcurveto
          -42 hlineto
          -82 3 -59 118 vhcurveto
          188 -346 -105 callsubr
          endchar
        </CharString>
        <CharString name="ecaron">
          -32 281 605 -39 callsubr
          219 -349 -105 callsubr
          endchar
        </CharString>
        <CharString name="ecircumflex">
          -32 249 706 -67 callgsubr
          269 -349 -105 callsubr
          endchar
        </CharString>
        <CharString name="edieresis">
          -32 190 729 -19 callsubr
          66 -403 -105 callsubr
          endchar
        </CharString>
        <CharString name="edotaccent">
          -32 277 730 rmoveto
          -58 -70 58 hlineto
          158 -404 -105 callsubr
          endchar
        </CharString>
        <CharString name="egrave">
          -32 285 603 -64 callgsubr
          192 -347 -105 callsubr
          endchar
        </CharString>
        <CharString name="eight">
          60 294 -8 rmoveto
          192 35 63 129 119 -38 29 -71 17 hvcurveto
          4 vlineto
          72 15 31 -4 callsubr
          72 -15 vhcurveto
          -4 vlineto
          -71 -17 -38 -9 callgsubr
          29 28 134 134 29 -28 -107 -106 -32 -28 -131 2 callsubr
          136 32 15 callsubr
        </CharString>
        <CharString name="eight.dnom">
          -179 174 -4 -94 callgsubr
        </CharString>
        <CharString name="eight.numr">
          -179 174 304 -94 callgsubr
        </CharString>
        <CharString name="eight.tnum">
          45 287 -8 rmoveto
          191 35 63 129 119 -37 29 -72 17 hvcurveto
          4 vlineto
          72 15 32 -4 callsubr
          71 -15 vhcurveto
          -4 vlineto
          -71 -17 -37 -9 callgsubr
          28 28 135 134 28 -28 -107 -106 -32 -28 -130 2 callsubr
          135 33 15 callsubr
        </CharString>
        <CharString name="ellipsis">
          36 60 hmoveto
          68 80 -68 hlineto
          188 -80 rmoveto
          68 80 -68 hlineto
          188 -80 -81 callsubr
        </CharString>
        <CharString name="emacron">
          -32 353 742 19 callgsubr
          82 -433 -105 callsubr
          endchar
        </CharString>
        <CharString name="emdash">
          320 59 279 rmoveto
          729 50 -729 hlineto
          endchar
        </CharString>
        <CharString name="endash">
          -78 59 279 rmoveto
          331 50 -331 hlineto
          endchar
        </CharString>
        <CharString name="eng">
          1 291 518 rmoveto
          -31 callsubr
          hvcurveto
          -46 callsubr
          -510 -2 callgsubr
          -2 callsubr
          2 83 132 105 18 -19 -144 vhcurveto
          -399 vlineto
          -30 callgsubr
          -46 vlineto
          102 40 8 110 hvcurveto
          400 vlineto
          -42 callsubr
          vhcurveto
          endchar
        </CharString>
        <CharString name="eogonek">
          -32 435 256 rmoveto
          199 -9 63 -168 -188 -9 -69 -195 -205 22 -57 176 32 36 2 3 31 vhcurveto
          -37 -36 -25 -43 -42 vvcurveto
          -38 22 -34 62 11 9 1 1 9 3 callgsubr
          -34 -12 20 22 42 41 53 31 23 hvcurveto
          -97 callsubr
          endchar
        </CharString>
        <CharString name="equal">
          -16 66 324 rmoveto
          -15 callsubr
          -239 vmoveto
          380 49 -380 hlineto
          endchar
        </CharString>
        <CharString name="estimated">
          95 130 323 rmoveto
          422 21 hlineto
          302 -15 50 -226 -225 -15 -50 -302 -302 15 -50 225 183 43 32 176 10 vhcurveto
          -36 hlineto
          -167 -10 -40 -7 -147 hhcurveto
          -164 -19 9 288 -1 hvcurveto
          181 339 rmoveto
          164 18 -9 -296 hvcurveto
          -363 hlineto
          296 18 9 163 vhcurveto
          endchar
        </CharString>
        <CharString name="eth">
          -16 21 callgsubr
          43 -3 53 -8 52 hvcurveto
          -11 82 -31 81 -33 57 67 12 rcurveline
          42 vlineto
          -92 -15 -23 30 -21 19 -12 12 rlinecurve
          -63 -4 hlineto
          14 -14 24 -22 24 -31 -84 -14 rcurveline
          -42 vlineto
          110 18 25 -40 22 -49 16 -56 rlinecurve
          -5 -2 rlineto
          20 -27 -38 11 -55 hhcurveto
          -174 -6 callgsubr
          183 0 32 138 139 0 -65 -150 -180 0 -33 -139 hvcurveto
          endchar
        </CharString>
        <CharString name="exclam">
          -321 83 184 rmoveto
          -53 callgsubr
          -13 -184 -81 callsubr
        </CharString>
        <CharString name="exclam.case">
          -321 83 184 rmoveto
          -53 callgsubr
          -13 -184 -81 callsubr
        </CharString>
        <CharString name="exclam.ss02">
          266 397 -8 rmoveto
          194 158 158 194 194 -158 158 -194 -194 -158 -158 -194 -194 158 -158 194 hvcurveto
          45 vmoveto
          -169 -138 138 169 169 138 138 169 169 138 -138 -169 -169 -138 -138 -169 hvcurveto
          -20 231 -25 callsubr
          7 48 7 89 75 vvcurveto
          99 -68 -99 vlineto
          -75 7 -89 7 -48 vhcurveto
          -14 -159 rmoveto
          68 82 -68 hlineto
          endchar
        </CharString>
        <CharString name="exclamdbl">
          -139 83 184 rmoveto
          -53 callgsubr
          182 hmoveto
          -53 callgsubr
          -195 -184 rmoveto
          68 80 -68 hlineto
          182 -80 -81 callsubr
        </CharString>
        <CharString name="exclamdown">
          -323 68 430 -28 callgsubr
        </CharString>
        <CharString name="exclamdown.case">
          -322 68 608 -28 callgsubr
        </CharString>
        <CharString name="f">
          -213 116 hmoveto
          -68 callsubr
          endchar
        </CharString>
        <CharString name="f_f">
          102 116 hmoveto
          -68 callsubr
          315 -461 rmoveto
          -68 callsubr
          endchar
        </CharString>
        <CharString name="fi">
          5 116 hmoveto
          -68 callsubr
          277 207 -21 callsubr
          endchar
        </CharString>
        <CharString name="five">
          2 72 57 rmoveto
          -50 vlineto
          -9 49 73 -5 callgsubr
          -33 hvcurveto
          243 290 -16 callgsubr
          -140 -41 -69 5 7 -59 hvcurveto
          endchar
        </CharString>
        <CharString name="five.dnom">
          -210 43 43 -66 callsubr
          endchar
        </CharString>
        <CharString name="five.numr">
          -210 43 351 -66 callsubr
          endchar
        </CharString>
        <CharString name="five.tnum">
          45 92 57 rmoveto
          -50 vlineto
          -9 49 74 -5 callgsubr
          -34 hvcurveto
          243 291 -16 callgsubr
          -141 -40 -70 5 7 -59 hvcurveto
          endchar
        </CharString>
        <CharString name="fiveeighths">
          263 160 hmoveto
          48 -37 callgsubr
          -509 -337 -66 callsubr
          573 -355 -94 callgsubr
        </CharString>
        <CharString name="fl">
          5 116 hmoveto
          -68 callsubr
          280 -461 rmoveto
          -8 callsubr
          endchar
        </CharString>
        <CharString name="florin">
          -199 341 697 rmoveto
          10 46 rlineto
          -126 -47 -10 -215 -46 hvcurveto
          -1 -8 rlineto
          -91 hlineto
          -11 -49 rlineto
          91 hlineto
          -109 -515 rlineto
          -78 -17 -25 -13 -91 hhcurveto
          -10 -46 rlineto
          123 48 9 192 41 hvcurveto
          96 451 rlineto
          115 hlineto
          11 49 rlineto
          -115 hlineto
          3 15 rlineto
          159 33 21 13 97 hhcurveto
          endchar
        </CharString>
        <CharString name="four">
          27 362 3 callsubr
          -257 hlineto
          231 467 rlineto
          -65 hlineto
          -230 -472 rlineto
          -48 320 vlineto
          endchar
        </CharString>
        <CharString name="four.dnom">
          -201 208 hmoveto
          -33 callgsubr
        </CharString>
        <CharString name="four.numr">
          -201 208 308 rmoveto
          -33 callgsubr
        </CharString>
        <CharString name="four.ss01">
          27 421 221 rmoveto
          467 -74 vlineto
          -305 -472 rlineto
          -48 320 -168 59 168 90 53 vlineto
          -406 hmoveto
          258 392 rlineto
          -392 vlineto
          endchar
        </CharString>
        <CharString name="four.tnum">
          45 374 3 callsubr
          -261 hlineto
          235 467 rlineto
          -64 hlineto
          -236 -472 rlineto
          -48 325 vlineto
          endchar
        </CharString>
        <CharString name="fraction">
          -404 -158 hmoveto
          48 -37 callgsubr
          endchar
        </CharString>
        <CharString name="g">
          -4 240 -203 -100 callgsubr
        </CharString>
        <CharString name="g_tilde.loclGUA">
          -4 418 743 -106 callgsubr
          -178 -946 -100 callgsubr
        </CharString>
        <CharString name="gbreve">
          -4 383 743 -101 callgsubr
          -143 -946 -100 callgsubr
        </CharString>
        <CharString name="gcaron">
          -4 230 605 -95 callgsubr
          102 -940 -100 callgsubr
        </CharString>
        <CharString name="gcircumflex">
          -4 137 605 -106 callsubr
          103 -813 -100 callgsubr
        </CharString>
        <CharString name="gcommaaccent">
          -4 319 -12 callgsubr
          -79 -962 -100 callgsubr
        </CharString>
        <CharString name="gdotaccent">
          -4 233 -31 callgsubr
          7 -933 -100 callgsubr
        </CharString>
        <CharString name="germandbls">
          11 296 hmoveto
          156 26 63 180 132 -38 50 -74 13 hvcurveto
          4 vlineto
          72 13 32 40 85 vvcurveto
          117 -44 53 -146 -149 -50 -61 -147 vhcurveto
          -542 55 538 vlineto
          134 42 29 98 106 32 -29 -94 -84 -32 -32 -94 vhcurveto
          -32 -50 32 hlineto
          103 31 -34 -141 -173 -16 -15 -127 hvcurveto
          -52 -49 hlineto
          endchar
        </CharString>
        <CharString name="grave">
          -357 115 603 -86 callgsubr
          endchar
        </CharString>
        <CharString name="gravecomb">
          -56 603 -86 callgsubr
          endchar
        </CharString>
        <CharString name="gravecomb.case">
          -56 748 -86 callgsubr
          endchar
        </CharString>
        <CharString name="greater">
          -15 66 55 -19 callgsubr
          endchar
        </CharString>
        <CharString name="greaterequal">
          -15 66 180 -19 callgsubr
          -218 vmoveto
          -15 callsubr
          endchar
        </CharString>
        <CharString name="guillemotleft">
          -116 159 101 rmoveto
          44 9 callgsubr
          -44 hlineto
          -114 -205 rlineto
          258 -204 rmoveto
          43 9 callgsubr
          -43 hlineto
          -115 -205 rlineto
          endchar
        </CharString>
        <CharString name="guillemotright">
          -116 65 101 rmoveto
          44 hlineto
          114 204 -114 205 rlineto
          -44 hlineto
          100 -205 rlineto
          44 -204 rmoveto
          43 20 callsubr
          -43 hlineto
          100 -205 rlineto
          endchar
        </CharString>
        <CharString name="guilsinglleft">
          -260 159 101 rmoveto
          43 9 callgsubr
          -43 hlineto
          -114 -205 rlineto
          endchar
        </CharString>
        <CharString name="guilsinglright">
          -260 65 101 rmoveto
          44 20 callsubr
          -44 hlineto
          100 -205 rlineto
          endchar
        </CharString>
        <CharString name="h">
          1 394 hmoveto
          -60 callsubr
          endchar
        </CharString>
        <CharString name="hbar">
          1 291 518 rmoveto
          -101 -34 -38 -38 -15 hvcurveto
          -4 197 131 49 -131 55 -56 -55 -62 -49 62 -639 -2 callgsubr
          -2 callsubr
          2 83 132 105 18 -19 -144 vhcurveto
          -304 56 322 vlineto
          139 -22 57 -137 vhcurveto
          endchar
        </CharString>
        <CharString name="hcircumflex">
          1 -16 783 -106 callsubr
          410 -788 rmoveto
          -60 callsubr
          endchar
        </CharString>
        <CharString name="hookabovecomb">
          -176 608 -103 callsubr
          endchar
        </CharString>
        <CharString name="hookabovecomb.case">
          -176 731 -94 callsubr
          endchar
        </CharString>
        <CharString name="house">
          107 46 hmoveto
          543 392 hlineto
          -246 303 rlineto
          -51 hlineto
          -246 -303 rlineto
          52 -347 rmoveto
          334 vlineto
          220 269 219 -269 rlineto
          -334 vlineto
          endchar
        </CharString>
        <CharString name="hungarumlaut">
          -189 19 607 -78 callgsubr
          endchar
        </CharString>
        <CharString name="hyphen">
          7 callgsubr
        </CharString>
        <CharString name="i">
          -310 78 668 -21 callsubr
          endchar
        </CharString>
        <CharString name="i.loclTRK">
          -310 80 -31 callgsubr
          1 -730 -49 callsubr
        </CharString>
        <CharString name="iacute">
          -310 79 -79 callsubr
          2 -608 -49 callsubr
        </CharString>
        <CharString name="iacute_j.loclNLD">
          -92 83 -79 callsubr
          218 -5 -96 callgsubr
          -220 -608 -55 callgsubr
          132 -707 -73 callsubr
        </CharString>
        <CharString name="ibreve">
          -310 230 743 -101 callgsubr
          -149 7 callsubr
          endchar
        </CharString>
        <CharString name="icircumflex">
          -310 -15 605 -106 callsubr
          96 -610 -49 callsubr
        </CharString>
        <CharString name="idieresis">
          -310 -10 659 -85 callgsubr
          -88 -729 -49 callsubr
        </CharString>
        <CharString name="igrave">
          -310 96 603 -86 callgsubr
          87 -738 -49 callsubr
        </CharString>
        <CharString name="ij">
          -92 78 1 callgsubr
          218 -75 -25 callgsubr
          -215 7 callsubr
          132 -707 -73 callsubr
        </CharString>
        <CharString name="imacron">
          -310 2 -44 callsubr
          79 -742 -49 callsubr
        </CharString>
        <CharString name="infinity">
          388 251 53 rmoveto
          125 49 64 76 33 hvcurveto
          -76 33 50 -64 125 hhcurveto
          154 35 73 130 129 -35 74 -154 -125 -50 -65 -75 -33 hvcurveto
          75 -33 -49 65 -125 hhcurveto
          -154 -36 -74 -129 -130 36 -73 154 hvcurveto
          2 47 rmoveto
          -118 -24 57 99 99 24 57 118 114 40 -75 -81 25 hvcurveto
          -81 -25 -40 -75 -114 hhcurveto
          412 hmoveto
          -115 -41 75 81 -24 hvcurveto
          81 24 41 75 115 hhcurveto
          117 23 -57 -99 -99 -23 -57 -117 hvcurveto
          endchar
        </CharString>
        <CharString name="integral">
          -168 62 -190 rmoveto
          104 56 6 97 5 0 10 -3 61 hvcurveto
          -35 563 rlineto
          -1 18 -1 17 8 vvcurveto
          45 23 11 80 vhcurveto
          45 vlineto
          -103 -57 -7 -96 -9 0 -13 1 -19 hvcurveto
          36 -563 4 -79 rlineto
          -44 -23 -11 -81 vhcurveto
          endchar
        </CharString>
        <CharString name="iogonek">
          -310 80 730 rmoveto
          -70 58 70 vlineto
          -63 -841 rmoveto
          39 36 50 26 22 vhcurveto
          -40 callsubr
          -510 5 vlineto
          -35 -35 -26 -46 -41 vvcurveto
          -41 11 callsubr
          -4 0 -5 hhcurveto
          -34 -12 19 24 hvcurveto
          endchar
        </CharString>
        <CharString name="itilde">
          -310 265 743 -106 callgsubr
          -184 7 callsubr
          endchar
        </CharString>
        <CharString name="j">
          -310 78 1 callgsubr
          -83 -940 -73 callsubr
        </CharString>
        <CharString name="jcircumflex">
          -310 -16 605 -106 callsubr
          11 -807 -73 callsubr
        </CharString>
        <CharString name="k">
          -45 callsubr
          459 -56 -743 56 233 67 hlineto
          endchar
        </CharString>
        <CharString name="kcommaaccent">
          -45 callsubr
          459 -56 -743 56 233 67 hlineto
          -16 -449 -83 callgsubr
        </CharString>
        <CharString name="kgreenlandic">
          -45 callsubr
          226 -56 -510 56 233 67 hlineto
          endchar
        </CharString>
        <CharString name="l">
          -310 0 callsubr
          endchar
        </CharString>
        <CharString name="lacute">
          -310 83 781 -96 callgsubr
          -2 -786 rmoveto
          -8 callsubr
          endchar
        </CharString>
        <CharString name="lcaron">
          -303 0 callsubr
          99 -294 -38 callsubr
          endchar
        </CharString>
        <CharString name="lcommaaccent">
          -310 0 callsubr
          -17 -959 -83 callgsubr
        </CharString>
        <CharString name="ldot">
          -283 0 callsubr
          116 -484 -81 callsubr
        </CharString>
        <CharString name="leftOpenDialog">
          97 626 628 rmoveto
          60 -626 -688 626 60 -566 568 vlineto
          endchar
        </CharString>
        <CharString name="less">
          -15 447 55 -13 callgsubr
          endchar
        </CharString>
        <CharString name="lessequal">
          -15 447 180 -13 callgsubr
          -331 vmoveto
          -15 callsubr
          endchar
        </CharString>
        <CharString name="logicalnot">
          -17 395 62 rmoveto
          50 217 -379 -50 329 hlineto
          endchar
        </CharString>
        <CharString name="longs">
          -239 116 hmoveto
          56 618 hlineto
          66 23 14 92 vhcurveto
          45 vlineto
          -120 -51 -12 -123 hvcurveto
          -98 -91 -49 91 vlineto
          endchar
        </CharString>
        <CharString name="lozenge">
          -40 214 hmoveto
          60 hlineto
          161 344 -161 345 rlineto
          -60 hlineto
          -161 -345 rlineto
          191 -299 rmoveto
          -139 299 139 300 139 -300 rlineto
          endchar
        </CharString>
        <CharString name="lslash">
          -307 81 hmoveto
          56 347 hlineto
          60 22 rlineto
          51 vlineto
          -60 -21 rlineto
          344 -56 -365 vlineto
          -56 -20 rlineto
          -51 vlineto
          56 20 rlineto
          endchar
        </CharString>
        <CharString name="m">
          264 656 hmoveto
          56 322 hlineto
          140 -21 56 -125 -94 -36 -38 -46 -15 vhcurveto
          -5 hlineto
          60 -15 -36 24 -86 hhcurveto
          -94 -33 -38 -46 -15 hvcurveto
          -46 callsubr
          -510 -2 callgsubr
          -2 callsubr
          2 83 121 94 14 -19 -144 vhcurveto
          -304 -2 callgsubr
          vlineto
          128 2 75 121 94 15 -19 -144 vhcurveto
          endchar
        </CharString>
        <CharString name="macron">
          -195 60 -44 callsubr
          endchar
        </CharString>
        <CharString name="minus">
          -16 66 229 rmoveto
          -15 callsubr
          endchar
        </CharString>
        <CharString name="minute">
          -358 47 389 -15 callgsubr
          endchar
        </CharString>
        <CharString name="multiply">
          -76 226 218 rmoveto
          125 -126 35 35 -126 125 126 127 -34 34 -126 -126 -126 126 -35 -35 126 -126 -125 -126 34 -33 rlineto
          endchar
        </CharString>
        <CharString name="n">
          1 394 hmoveto
          -84 callsubr
        </CharString>
        <CharString name="nacute">
          1 239 -79 callsubr
          155 -608 rmoveto
          -84 callsubr
        </CharString>
        <CharString name="nacute.loclPLK">
          1 239 603 -72 callgsubr
          155 -608 rmoveto
          -84 callsubr
        </CharString>
        <CharString name="napostrophe">
          24 -17 callsubr
          411 -591 rmoveto
          -84 callsubr
        </CharString>
        <CharString name="ncaron">
          1 233 605 -95 callgsubr
          253 -737 rmoveto
          -84 callsubr
        </CharString>
        <CharString name="ncommaaccent">
          1 394 hmoveto
          -83 callsubr
          -174 -520 -83 callgsubr
        </CharString>
        <CharString name="nine">
          36 254 -8 rmoveto
          125 63 25 87 30 hvcurveto
          18 54 3 81 113 vvcurveto
          111 -2 75 -14 49 vhcurveto
          93 -26 -63 16 -124 -20 callsubr
          -21 -44 -172 -43 -43 callgsubr
        </CharString>
        <CharString name="nine.dnom">
          -194 150 -4 -63 callgsubr
        </CharString>
        <CharString name="nine.numr">
          -194 150 304 -63 callgsubr
        </CharString>
        <CharString name="nine.ss01">
          42 190 hmoveto
          70 hlineto
          136 121 114 160 190 vvcurveto
          177 -49 48 -178 -178 -47 -59 -149 -158 41 -47 156 96 42 11 25 26 vhcurveto
          5 -1 -43 -122 -91 -105 -100 -86 rlinecurve
          94 330 rmoveto
          -121 -47 2 152 125 34 29 134 125 42 -16 -155 -116 -50 -21 -117 hvcurveto
          endchar
        </CharString>
        <CharString name="nine.tnum">
          45 265 -8 rmoveto
          123 63 24 76 28 hvcurveto
          22 62 4 82 116 vvcurveto
          121 -3 79 -19 54 vhcurveto
          76 -27 -63 14 -118 -20 callsubr
          -20 -44 -172 -44 -43 callgsubr
        </CharString>
        <CharString name="notequal">
          -16 219 134 rmoveto
          227 48 -204 hlineto
          68 142 rlineto
          136 48 -112 hlineto
          61 128 rlineto
          -47 hlineto
          -62 -128 rlineto
          -220 -48 197 hlineto
          -69 -142 rlineto
          -128 -48 105 hlineto
          -59 -124 rlineto
          48 hlineto
          endchar
        </CharString>
        <CharString name="ntilde">
          1 424 743 -106 callgsubr
          -30 -743 rmoveto
          -84 callsubr
        </CharString>
        <CharString name="numbersign">
          154 313 hmoveto
          48 hlineto
          38 197 rlineto
          115 47 -106 hlineto
          39 192 rlineto
          99 46 -90 16 callsubr
          -159 16 callsubr
          -109 -46 100 hlineto
          -38 -192 rlineto
          -94 -47 85 hlineto
          -39 -197 rlineto
          48 hlineto
          38 197 rlineto
          160 hlineto
          47 239 rmoveto
          -38 -192 rlineto
          -160 hlineto
          38 192 rlineto
          endchar
        </CharString>
        <CharString name="o">
          -17 255 -8 -104 callgsubr
          endchar
        </CharString>
        <CharString name="oacute">
          -17 223 -79 callsubr
          32 -616 -104 callgsubr
          endchar
        </CharString>
        <CharString name="oacute.loclPLK">
          -17 229 603 -72 callgsubr
          26 -616 -104 callgsubr
          endchar
        </CharString>
        <CharString name="obreve">
          -17 376 743 -101 callgsubr
          -121 -751 -104 callgsubr
          endchar
        </CharString>
        <CharString name="ocircumflex">
          -17 131 605 -106 callsubr
          124 -618 -104 callgsubr
          endchar
        </CharString>
        <CharString name="odieresis">
          -17 137 659 -85 callgsubr
          -61 -737 -104 callgsubr
          endchar
        </CharString>
        <CharString name="oe">
          302 769 255 rmoveto
          200 -9 63 -168 -97 -48 -20 -49 -24 vhcurveto
          53 -23 -48 16 -97 -56 callsubr
          99 46 15 56 23 hvcurveto
          -54 27 49 -17 94 hhcurveto
          57 66 6 8 36 hvcurveto
          -69 callsubr
          -140 -13 35 160 hvcurveto
          319 hlineto
          -514 -195 rmoveto
          -98 callsubr
          334 428 rmoveto
          98 27 -18 -155 hvcurveto
          -15 -264 vlineto
          162 1 14 26 124 hhcurveto
          endchar
        </CharString>
        <CharString name="ogonek">
          -415 113 -194 rmoveto
          -39 callgsubr
        </CharString>
        <CharString name="ograve">
          -17 248 603 -86 callgsubr
          109 -746 -104 callgsubr
          endchar
        </CharString>
        <CharString name="ohorn">
          -17 454 607 -87 callgsubr
        </CharString>
        <CharString name="ohungarumlaut">
          -17 160 607 -78 callgsubr
          -69 -620 -104 callgsubr
          endchar
        </CharString>
        <CharString name="omacron">
          -17 148 -44 callsubr
          107 -750 -104 callgsubr
          endchar
        </CharString>
        <CharString name="one">
          -206 162 hmoveto
          58 688 -44 hlineto
          -138 -79 rlineto
          -57 vlineto
          124 64 rlineto
          endchar
        </CharString>
        <CharString name="one.dnom">
          -328 95 hmoveto
          4 callgsubr
        </CharString>
        <CharString name="one.numr">
          -328 95 308 rmoveto
          4 callgsubr
        </CharString>
        <CharString name="one.tnum">
          45 105 hmoveto
          398 53 -164 635 -43 hlineto
          -186 -93 rlineto
          -55 vlineto
          170 78 rlineto
          -565 -175 vlineto
          endchar
        </CharString>
        <CharString name="oneeighth">
          183 -53 callsubr
          -42 -632 rmoveto
          49 -37 callgsubr
          55 -692 -94 callgsubr
        </CharString>
        <CharString name="onehalf">
          160 -53 callsubr
          351 56 rmoveto
          -393 -688 rlineto
          49 hlineto
          393 688 rlineto
          -62 -620 rmoveto
          34 1 15 24 12 vhcurveto
          32 16 34 16 29 15 rrcurveto
          44 22 17 22 61 vvcurveto
          90 -49 7 -61 -31 -43 -4 -5 -35 vhcurveto
          -42 vlineto
          5 45 36 3 20 hhcurveto
          56 16 -9 -50 -35 -7 -14 -30 -15 hvcurveto
          -31 -15 -33 -16 -31 -16 rrcurveto
          -45 -23 -2 -18 -79 vvcurveto
          -45 225 43 -181 vlineto
          endchar
        </CharString>
        <CharString name="onequarter">
          87 -53 callsubr
          -42 -632 rmoveto
          49 -37 callgsubr
          16 -6 callsubr
          118 247 rlineto
          -48 hlineto
          -120 -254 rlineto
          -35 171 vlineto
          endchar
        </CharString>
        <CharString name="ordfeminine">
          -162 152 314 rmoveto
          38 47 6 42 23 hvcurveto
          4 hlineto
          5 -43 rlineto
          41 236 hlineto
          111 -21 30 -112 -44 -45 -4 -6 -29 vhcurveto
          -41 vlineto
          5 28 48 4 27 hhcurveto
          88 13 -9 -91 hvcurveto
          -26 vlineto
          1 -40 -61 2 -21 hhcurveto
          -81 -21 -26 -82 -88 35 -21 78 hvcurveto
          10 41 rmoveto
          -62 -16 13 57 58 14 10 54 hvcurveto
          111 -23 hlineto
          -30 -2 -26 -9 -20 vhcurveto
          -33 -13 -36 -6 -41 hhcurveto
          endchar
        </CharString>
        <CharString name="ordmasculine">
          -150 189 314 rmoveto
          134 9 35 155 154 -9 38 -134 -134 -9 -38 -154 -155 9 -35 134 hvcurveto
          41 vmoveto
          -94 -1 21 128 127 1 23 94 95 1 -23 -127 -128 -1 -21 -95 hvcurveto
          endchar
        </CharString>
        <CharString name="orn.001">
          -191 289 341 rmoveto
          105 -6 17 -117 -112 -6 -17 -105 -102 6 -16 112 117 6 16 102 vhcurveto
          endchar
        </CharString>
        <CharString name="orn.002">
          21 210 -57 callsubr
          63 101 -52 callsubr
          121 87 -9 callsubr
          -29 -21 22 28 29 21 21 29 28 22 -21 -29 -28 -22 -22 -28 hvcurveto
          endchar
        </CharString>
        <CharString name="orn.003">
          -113 211 -57 callsubr
          63 101 -52 callsubr
          63 101 -29 callgsubr
          endchar
        </CharString>
        <CharString name="orn.007">
          -191 168 222 rmoveto
          67 54 53 67 67 -54 54 -67 -67 -53 -54 -67 -67 53 -53 67 hvcurveto
          endchar
        </CharString>
        <CharString name="orn.010">
          266 397 hmoveto
          352 348 hlineto
          8 callsubr
          -207 -145 -143 -205 -204 145 -144 207 vhcurveto
          endchar
        </CharString>
        <CharString name="orn.015">
          6 callgsubr
          187 60 -187 hlineto
          187 -272 rmoveto
          213 212 rlineto
          167 60 -192 hlineto
          -188 -187 rlineto
          endchar
        </CharString>
        <CharString name="orn.016">
          6 callgsubr
          567 60 -567 hlineto
          endchar
        </CharString>
        <CharString name="orn.017">
          -468 0 vmoveto
          60 688 -60 hlineto
          endchar
        </CharString>
        <CharString name="orn.018">
          264 211 -57 callsubr
          370 hmoveto
          99 62 67 110 126 vvcurveto
          125 -67 111 -99 62 vhcurveto
          -32 -51 rlineto
          82 -51 56 -92 -104 vvcurveto
          -105 -55 -91 -83 -52 vhcurveto
          -275 51 -52 callsubr
          244 hmoveto
          65 41 44 73 83 vvcurveto
          83 -44 73 -66 41 vhcurveto
          -32 -51 rlineto
          49 -31 33 -54 -61 vvcurveto
          -62 -33 -53 -48 -31 vhcurveto
          -149 50 -29 callgsubr
          118 hmoveto
          -26 callgsubr
        </CharString>
        <CharString name="orn.019">
          21 338 -54 callgsubr
          -89 36 -9 callsubr
          -28 -22 22 28 29 22 21 28 29 21 -21 -29 -28 -21 -22 -29 hvcurveto
          endchar
        </CharString>
        <CharString name="orn.020">
          -113 204 -54 callgsubr
          -31 50 rmoveto
          -26 callgsubr
        </CharString>
        <CharString name="orn.021">
          225 376 -116 rmoveto
          141 73 191 193 214 vvcurveto
          188 -149 144 -183 -183 -148 -144 -188 -213 191 -194 140 -73 vhcurveto
          endchar
        </CharString>
        <CharString name="orn.022">
          -139 171 220 rmoveto
          98 80 83 40 40 -80 83 -98 -81 -42 -55 -68 -68 42 -55 81 hvcurveto
          endchar
        </CharString>
        <CharString name="oslash">
          -17 406 484 -68 callgsubr
        </CharString>
        <CharString name="oslashacute">
          -17 373 738 rmoveto
          -88 callsubr
          -5 42 vlineto
          135 -119 -68 callgsubr
        </CharString>
        <CharString name="otilde">
          -17 412 743 -106 callgsubr
          -157 -751 -104 callgsubr
          endchar
        </CharString>
        <CharString name="p">
          -4 81 -196 rmoveto
          56 263 -10 callsubr
          -64 -64 -11 -73 -25 hvcurveto
          -46 callsubr
          hlineto
          190 -467 rmoveto
          -69 -38 21 60 -18 hvcurveto
          -8 29 -1 44 58 vvcurveto
          58 0 45 12 37 vhcurveto
          52 15 40 -33 callsubr
        </CharString>
        <CharString name="paragraph">
          -29 260 -144 rmoveto
          49 832 -49 hlineto
          -194 -10 -31 -203 -203 10 -29 194 hvcurveto
          107 -366 rmoveto
          49 832 -49 hlineto
          endchar
        </CharString>
        <CharString name="parenleft">
          -263 201 -150 rmoveto
          47 hlineto
          -77 113 -40 52 282 vvcurveto
          281 40 52 77 113 vhcurveto
          -47 hlineto
          -94 -126 -31 -58 -262 vvcurveto
          -263 31 -56 94 -128 vhcurveto
          endchar
        </CharString>
        <CharString name="parenleft.ss02">
          2 callgsubr
          -204 145 -144 207 hvcurveto
          endchar
        </CharString>
        <CharString name="parenright">
          -263 17 -150 rmoveto
          47 hlineto
          94 128 31 56 263 vvcurveto
          262 -31 58 -94 126 vhcurveto
          -47 hlineto
          77 -113 40 -52 -281 vvcurveto
          -282 -40 -52 -77 -113 vhcurveto
          endchar
        </CharString>
        <CharString name="parenright.ss02">
          -131 0 vmoveto
          207 145 144 204 8 callsubr
          hvcurveto
          endchar
        </CharString>
        <CharString name="partialdiff">
          -17 21 callgsubr
          51 -3 46 -10 66 hvcurveto
          -15 109 -57 126 -82 70 rrcurveto
          -63 -4 hlineto
          79 -71 43 -81 29 -98 -5 -2 rcurveline
          20 -28 -40 11 -54 hhcurveto
          -172 -6 callgsubr
          184 0 31 138 139 0 -64 -151 -180 0 -33 -139 hvcurveto
          endchar
        </CharString>
        <CharString name="percent">
          193 178 311 -22 callsubr
          -38 -311 rmoveto
          48 hlineto
          394 688 rlineto
          -49 hlineto
          -355 -336 rmoveto
          -70 -7 5 146 146 7 6 70 72 5 -6 -146 -146 -8 -5 -69 hvcurveto
          366 -360 -22 callsubr
          41 vmoveto
          -69 -8 5 146 146 8 6 69 73 4 -6 -146 -146 -7 -5 -70 hvcurveto
          endchar
        </CharString>
        <CharString name="period">
          -340 60 hmoveto
          68 80 -68 hlineto
          endchar
        </CharString>
        <CharString name="periodcentered">
          -340 60 259 -81 callsubr
        </CharString>
        <CharString name="perthousand">
          322 163 360 rmoveto
          -40 callgsubr
          -90 -360 rmoveto
          48 hlineto
          401 688 rlineto
          -48 hlineto
          -311 -289 rmoveto
          -59 -6 3 126 125 6 4 59 61 3 -4 -125 -126 -7 -3 -57 hvcurveto
          270 -407 rmoveto
          -40 callgsubr
          255 hmoveto
          -40 callgsubr
          -255 39 rmoveto
          -58 -7 4 125 126 7 3 58 61 3 -3 -126 -125 -6 -4 -58 hvcurveto
          255 hmoveto
          -58 -7 4 125 125 7 4 58 61 4 -4 -125 -125 -7 -4 -58 hvcurveto
          endchar
        </CharString>
        <CharString name="pi">
          -5 386 hmoveto
          56 510 -361 -510 56 461 249 hlineto
          endchar
        </CharString>
        <CharString name="plus">
          -16 231 63 rmoveto
          49 166 166 48 -166 166 -49 -166 -165 -48 165 hlineto
          endchar
        </CharString>
        <CharString name="plusminus">
          -16 231 189 rmoveto
          49 166 166 49 -166 165 -49 -165 -165 -49 165 hlineto
          -165 -340 rmoveto
          -15 callsubr
          endchar
        </CharString>
        <CharString name="product">
          106 484 -190 rmoveto
          59 878 -451 -878 58 825 334 hlineto
          endchar
        </CharString>
        <CharString name="q">
          -4 387 -196 rmoveto
          56 706 -48 hlineto
          -4 -76 rlineto
          -5 hlineto
          73 -24 -64 11 -65 hhcurveto
          -141 -31 -52 -211 -211 30 -52 142 78 49 20 55 22 hvcurveto
          5 hlineto
          -134 -24 rmoveto
          -119 -17 25 187 187 17 25 119 66 40 -20 -46 14 hvcurveto
          13 -42 1 -45 -59 vvcurveto
          -59 -1 -44 -10 -34 vhcurveto
          -54 -17 -38 -21 -68 hhcurveto
          endchar
        </CharString>
        <CharString name="question">
          -59 callgsubr
        </CharString>
        <CharString name="question.case">
          -59 callgsubr
        </CharString>
        <CharString name="questiondown">
          -151 231 430 -57 callgsubr
        </CharString>
        <CharString name="questiondown.case">
          -100 237 608 -57 callgsubr
        </CharString>
        <CharString name="quotedbl">
          -240 5 callgsubr
          126 -157 rmoveto
          38 hlineto
          10 157 rlineto
          82 -57 -82 vlineto
          endchar
        </CharString>
        <CharString name="quotedblbase">
          -207 -11 callgsubr
          135 hmoveto
          -29 vlineto
          76 14 22 9 callsubr
          -3 callsubr
          -50 -47 callsubr
        </CharString>
        <CharString name="quotedblleft">
          -214 -12 callsubr
          134 -78 rmoveto
          67 79 -27 17 hlineto
          49 6 14 45 vhcurveto
          29 vlineto
          -76 -15 -23 -87 hvcurveto
          endchar
        </CharString>
        <CharString name="quotedblright">
          -214 -17 callgsubr
          134 hmoveto
          -29 vlineto
          76 15 23 9 callsubr
          27 -17 vlineto
          -50 -6 -14 -45 vhcurveto
          endchar
        </CharString>
        <CharString name="quoteleft">
          -349 -12 callsubr
          endchar
        </CharString>
        <CharString name="quoteright">
          -349 -17 callgsubr
          endchar
        </CharString>
        <CharString name="quotesinglbase">
          -341 -11 callgsubr
          endchar
        </CharString>
        <CharString name="quotesingle">
          -358 5 callgsubr
          endchar
        </CharString>
        <CharString name="r">
          -28 callsubr
          endchar
        </CharString>
        <CharString name="racute">
          -213 132 -79 callsubr
          -51 -608 rmoveto
          -75 callsubr
          endchar
        </CharString>
        <CharString name="radical">
          3 249 -106 rmoveto
          67 hlineto
          197 876 rlineto
          -55 hlineto
          -180 -809 -153 362 -102 -46 15 -39 53 23 rlineto
          endchar
        </CharString>
        <CharString name="rcaron">
          -213 126 605 -95 callgsubr
          47 -737 rmoveto
          -75 callsubr
          endchar
        </CharString>
        <CharString name="rcommaaccent">
          -28 callsubr
          -17 -726 -83 callgsubr
        </CharString>
        <CharString name="registered">
          122 325 696 rmoveto
          13 callgsubr
          12 callsubr
          hvcurveto
          -672 11 callgsubr
          203 8 -21 -299 -299 -8 -21 -203 hvcurveto
          121 394 rmoveto
          58 -5 53 -89 vhcurveto
          -140 -372 41 149 91 hlineto
          12 hlineto
          53 -149 rlineto
          44 hlineto
          -56 157 rlineto
          43 16 6 44 44 vvcurveto
          -106 -74 rmoveto
          -87 146 92 hlineto
          56 4 -25 -47 -46 -4 -28 -61 hvcurveto
          endchar
        </CharString>
        <CharString name="rightCloseDialog">
          95 624 688 rmoveto
          -625 -60 565 -568 -190 hlineto
          -188 -187 rlineto
          -85 vlineto
          213 212 rlineto
          225 hlineto
          -438 60 rmoveto
          -187 -60 187 hlineto
          endchar
        </CharString>
        <CharString name="rightOpenDialog">
          96 625 688 rmoveto
          -626 -60 566 -568 -566 -60 626 hlineto
          endchar
        </CharString>
        <CharString name="ring">
          -273 127 611 -87 callsubr
          endchar
        </CharString>
        <CharString name="s">
          -65 callsubr
          endchar
        </CharString>
        <CharString name="sacute">
          -88 194 -79 callsubr
          27 -616 -95 callsubr
          endchar
        </CharString>
        <CharString name="sacute.loclPLK">
          -88 194 603 -72 callgsubr
          27 -616 -95 callsubr
          endchar
        </CharString>
        <CharString name="scaron">
          -88 191 605 -95 callgsubr
          122 -745 -95 callsubr
          endchar
        </CharString>
        <CharString name="scedilla">
          -88 389 138 rmoveto
          111 -26 20 -74 8 vhcurveto
          -120 14 rlineto
          -50 6 -13 8 71 vvcurveto
          84 44 9 70 53 47 -4 -8 44 vhcurveto
          48 vlineto
          7 -35 -58 6 -44 hhcurveto
          -110 -66 -18 -129 -88 20 -33 77 -9 hvcurveto
          122 -14 rlineto
          50 -6 13 -4 -81 vvcurveto
          -65 -13 -30 -95 -58 -40 3 8 -62 -20 callgsubr
          35 -6 52 -4 45 -2 -55 -177 rcurveline
          19 callsubr
          103 3 46 32 111 vvcurveto
          endchar
        </CharString>
        <CharString name="scircumflex">
          -88 95 605 -106 callsubr
          126 -618 -95 callsubr
          endchar
        </CharString>
        <CharString name="scommaaccent">
          -65 callsubr
          -46 -208 -83 callgsubr
        </CharString>
        <CharString name="second">
          -229 47 389 -15 callgsubr
          109 -299 -15 callgsubr
          endchar
        </CharString>
        <CharString name="section">
          77 282 -171 rmoveto
          122 72 27 124 45 -4 34 -22 26 hvcurveto
          82 8 15 75 77 vvcurveto
          104 -39 20 -99 30 vhcurveto
          -147 45 rlineto
          -62 18 -13 13 73 vvcurveto
          85 51 10 95 48 60 -5 -5 33 vhcurveto
          50 vlineto
          7 -29 -63 6 -59 hhcurveto
          -122 -72 -27 -124 -46 4 -34 22 -26 hvcurveto
          -82 -8 -15 -74 -77 vvcurveto
          -104 39 -20 105 -32 vhcurveto
          154 -46 rlineto
          49 -15 13 -13 -73 vvcurveto
          -85 -51 -10 -95 -49 -59 5 5 -33 vhcurveto
          -50 vlineto
          -7 29 63 -6 59 hhcurveto
          141 291 rmoveto
          -11 -14 5 7 -26 hvcurveto
          -200 59 rlineto
          -45 13 -13 17 72 vvcurveto
          78 28 32 40 11 14 -4 -8 29 vhcurveto
          206 -61 rlineto
          35 -10 13 -17 -72 vvcurveto
          -78 -27 -33 -40 vhcurveto
          endchar
        </CharString>
        <CharString name="semicolon">
          20 callgsubr
          -24 -591 -10 callgsubr
        </CharString>
        <CharString name="seven">
          -45 124 hmoveto
          64 hlineto
          251 641 rlineto
          47 -404 -53 340 vlineto
          endchar
        </CharString>
        <CharString name="seven.dnom">
          -238 70 hmoveto
          -21 callgsubr
          endchar
        </CharString>
        <CharString name="seven.numr">
          -238 70 308 rmoveto
          -21 callgsubr
          endchar
        </CharString>
        <CharString name="seven.tnum">
          45 170 hmoveto
          64 hlineto
          270 641 rlineto
          47 -436 -53 372 vlineto
          endchar
        </CharString>
        <CharString name="seveneighths">
          193 90 hmoveto
          48 -37 callgsubr
          -412 -380 rmoveto
          -21 callgsubr
          331 -648 -94 callgsubr
        </CharString>
        <CharString name="six">
          36 301 6 callsubr
          -117 -37 -25 -26 -19 hvcurveto
          -5 hlineto
          246 20 44 172 43 64 -5 -7 51 vhcurveto
          49 vlineto
          9 -56 -70 7 -43 hhcurveto
          -130 -63 -27 -97 -29 hvcurveto
          -15 -51 -3 -78 -107 vvcurveto
          -112 2 -75 12 -40 vhcurveto
          -101 29 63 -16 124 hhcurveto
          -7 53 rmoveto
          -126 -36 21 161 92 14 32 148 4 callsubr
        </CharString>
        <CharString name="six.dnom">
          -194 177 -4 -62 callgsubr
        </CharString>
        <CharString name="six.numr">
          -194 177 304 -62 callgsubr
        </CharString>
        <CharString name="six.ss01">
          42 286 -8 rmoveto
          178 48 59 148 159 -41 47 -156 -97 -42 -11 -26 -26 hvcurveto
          -5 2 41 111 82 102 112 100 rlinecurve
          5 -71 vlineto
          -144 -128 -106 -161 -183 vvcurveto
          -176 50 -48 177 vhcurveto
          -1 53 rmoveto
          -125 -42 15 156 116 50 20 117 121 47 -1 -153 -124 -34 -29 -134 hvcurveto
          endchar
        </CharString>
        <CharString name="six.tnum">
          45 298 6 callsubr
          -102 -48 -19 -32 -22 hvcurveto
          -6 hlineto
          246 21 44 172 43 65 -5 -7 49 vhcurveto
          49 vlineto
          9 -53 -70 7 -46 hhcurveto
          -121 -64 -24 -81 -30 hvcurveto
          -21 -55 -3 -82 -118 vvcurveto
          -112 2 -76 13 -45 vhcurveto
          -96 27 64 -15 123 hhcurveto
          -7 53 rmoveto
          -126 -35 21 161 92 14 32 147 4 callsubr
        </CharString>
        <CharString name="slash">
          -216 8 -55 rmoveto
          54 hlineto
          241 798 rlineto
          -54 hlineto
          endchar
        </CharString>
        <CharString name="space">
          -319 endchar
        </CharString>
        <CharString name="sterling">
          -15 173 53 rmoveto
          278 219 52 -219 23 vlineto
          107 8 79 43 29 vhcurveto
          18 27 40 4 57 hhcurveto
          29 46 -5 -5 33 hvcurveto
          50 vlineto
          8 -28 -52 5 -43 hhcurveto
          -178 -40 -65 -228 hvcurveto
          -20 -65 -52 65 -278 -65 -53 416 53 vlineto
          endchar
        </CharString>
        <CharString name="summation">
          88 83 -190 rmoveto
          450 53 -379 hlineto
          273 386 -273 386 rlineto
          379 53 -450 -49 hlineto
          274 -390 -274 -390 rlineto
          endchar
        </CharString>
        <CharString name="t">
          -224 116 hmoveto
          -41 callsubr
          endchar
        </CharString>
        <CharString name="tbar">
          -224 279 461 rmoveto
          49 -107 148 -56 -148 -91 -49 91 -176 -86 -49 86 -236 56 236 105 49 -105 176 vlineto
          endchar
        </CharString>
        <CharString name="tcaron">
          -207 313 449 -38 callsubr
          -211 -606 rmoveto
          -41 callsubr
          endchar
        </CharString>
        <CharString name="thorn">
          -4 81 -190 rmoveto
          56 257 -10 callsubr
          -76 -51 -19 -58 -22 hvcurveto
          -4 302 -56 hlineto
          190 -700 rmoveto
          -69 -39 22 64 -18 hvcurveto
          -7 26 -1 43 57 vvcurveto
          57 0 45 11 34 vhcurveto
          56 16 40 -33 callsubr
        </CharString>
        <CharString name="three">
          -16 221 -8 rmoveto
          188 -34 callsubr
          47 66 5 44 hhcurveto
          120 -22 callgsubr
          -41 -70 5 7 -58 hvcurveto
          -50 vlineto
          -8 48 73 -7 52 hhcurveto
          endchar
        </CharString>
        <CharString name="three.dnom">
          -222 133 -4 -74 callgsubr
          endchar
        </CharString>
        <CharString name="three.numr">
          -222 133 304 -74 callgsubr
          endchar
        </CharString>
        <CharString name="three.tnum">
          45 261 -8 rmoveto
          187 -34 callsubr
          48 65 5 45 hhcurveto
          119 -22 callgsubr
          -40 -71 5 7 -58 hvcurveto
          -50 vlineto
          -8 49 73 -7 52 hhcurveto
          endchar
        </CharString>
        <CharString name="threeeighths">
          251 133 304 -74 callgsubr
          15 -304 rmoveto
          48 -37 callgsubr
          64 -692 -94 callgsubr
        </CharString>
        <CharString name="threequarters">
          174 53 359 rmoveto
          -40 vlineto
          -5 31 40 -4 28 hhcurveto
          104 12 callgsubr
          17 24 45 vvcurveto
          73 -29 30 -91 -28 -41 -4 -6 -29 vhcurveto
          -40 vlineto
          4 32 35 3 23 hhcurveto
          57 25 -9 -55 -53 -27 -11 -26 hvcurveto
          -67 -40 67 hlineto
          40 17 -19 -49 -56 -30 -9 -52 -19 -34 3 4 -43 hvcurveto
          99 -359 rmoveto
          49 hlineto
          392 688 rlineto
          -49 hlineto
          13 -6 callsubr
          119 247 rlineto
          -48 hlineto
          -121 -254 rlineto
          -35 171 vlineto
          endchar
        </CharString>
        <CharString name="tilde">
          -187 327 743 -106 callgsubr
          endchar
        </CharString>
        <CharString name="tildecomb">
          -14 743 -106 callgsubr
          endchar
        </CharString>
        <CharString name="tildecomb.case">
          -14 888 -106 callgsubr
          endchar
        </CharString>
        <CharString name="trademark">
          111 122 385 rmoveto
          33 273 84 30 -201 -30 84 hlineto
          168 -273 rmoveto
          30 239 4 hlineto
          89 -239 rlineto
          26 hlineto
          88 240 rlineto
          4 -240 32 303 -43 hlineto
          -91 -250 rlineto
          -4 hlineto
          -93 250 rlineto
          -42 hlineto
          endchar
        </CharString>
        <CharString name="two">
          -4 120 110 rmoveto
          48 1 27 7 23 vhcurveto
          6 17 12 12 22 11 63 31 65 31 59 29 rrcurveto
          78 14 callsubr
          -63 -81 5 callsubr
          32 -19 -107 -70 -12 -28 -62 -30 hvcurveto
          -167 -83 rlineto
          -98 -48 -1 -31 -152 vvcurveto
          -75 398 53 -341 vlineto
          endchar
        </CharString>
        <CharString name="two.dnom">
          -214 83 66 -58 callgsubr
        </CharString>
        <CharString name="two.numr">
          -214 83 374 -58 callgsubr
        </CharString>
        <CharString name="two.tnum">
          45 147 110 rmoveto
          46 1 27 6 22 vhcurveto
          6 19 12 13 22 11 63 31 65 31 59 29 rrcurveto
          79 14 callsubr
          -64 -80 5 callsubr
          31 -19 -107 -70 -12 -28 -61 -30 hvcurveto
          -168 -83 rlineto
          -97 -48 -2 -31 -152 vvcurveto
          -75 399 53 -341 vlineto
          endchar
        </CharString>
        <CharString name="u">
          1 400 hmoveto
          49 -40 callsubr
          -101 callsubr
          endchar
        </CharString>
        <CharString name="uacute">
          1 239 -79 callsubr
          161 -608 rmoveto
          49 -40 callsubr
          -101 callsubr
          endchar
        </CharString>
        <CharString name="ubreve">
          1 386 743 -101 callgsubr
          14 -743 rmoveto
          49 -40 callsubr
          -101 callsubr
          endchar
        </CharString>
        <CharString name="ucircumflex">
          1 140 605 -106 callsubr
          260 -610 rmoveto
          49 -40 callsubr
          -101 callsubr
          endchar
        </CharString>
        <CharString name="udieresis">
          1 145 659 -85 callgsubr
          76 -729 rmoveto
          49 -40 callsubr
          -101 callsubr
          endchar
        </CharString>
        <CharString name="ugrave">
          1 255 603 -86 callgsubr
          247 -738 rmoveto
          49 -40 callsubr
          -101 callsubr
          endchar
        </CharString>
        <CharString name="uhorn">
          1 501 607 -73 callgsubr
          -55 -101 callsubr
          3 -76 rlineto
          49 476 hlineto
          80 -37 callsubr
          vlineto
          endchar
        </CharString>
        <CharString name="uhungarumlaut">
          1 170 607 -78 callgsubr
          66 -612 rmoveto
          49 -40 callsubr
          -101 callsubr
          endchar
        </CharString>
        <CharString name="umacron">
          1 158 -44 callsubr
          242 -742 rmoveto
          49 -40 callsubr
          -101 callsubr
          endchar
        </CharString>
        <CharString name="underscore">
          -197 -165 18 callsubr
          endchar
        </CharString>
        <CharString name="underscoredbl">
          -197 -159 18 callsubr
          -149 18 callsubr
          endchar
        </CharString>
        <CharString name="uni00AD">
          7 callgsubr
        </CharString>
        <CharString name="uni00B2">
          -205 93 386 rmoveto
          -54 callsubr
          43 -181 vlineto
          endchar
        </CharString>
        <CharString name="uni00B3">
          -211 141 310 rmoveto
          105 12 callgsubr
          16 24 45 vvcurveto
          73 -29 30 -91 -28 -40 -4 -6 -30 vhcurveto
          -40 vlineto
          4 33 35 3 22 hhcurveto
          57 26 -9 -55 -53 -28 -11 -25 hvcurveto
          -68 -40 68 hlineto
          40 16 -19 -49 -56 -30 -9 -51 -19 -34 3 4 -44 hvcurveto
          -40 vlineto
          -5 32 40 -4 27 hhcurveto
          endchar
        </CharString>
        <CharString name="uni00B5">
          -49 callgsubr
        </CharString>
        <CharString name="uni00B9">
          -311 -53 callsubr
          endchar
        </CharString>
        <CharString name="uni0162">
          -29 28 688 rmoveto
          -54 192 -634 9 13 callsubr
          9 634 192 54 hlineto
          endchar
        </CharString>
        <CharString name="uni0163">
          -224 172 510 rmoveto
          148 -56 -148 -91 -49 91 -461 8 13 callsubr
          7 461 107 49 hlineto
          endchar
        </CharString>
        <CharString name="uni018F">
          82 292 696 rmoveto
          -52 -64 -7 -10 -40 hvcurveto
          -51 vlineto
          9 38 59 6 44 hhcurveto
          178 24 -24 -245 1 hvcurveto
          -409 -30 hlineto
          -302 14 -50 220 219 15 50 302 305 -35 47 -212 vhcurveto
          13 -652 rmoveto
          -155 -19 8 270 -1 hvcurveto
          350 hlineto
          -270 -1 -19 -8 -155 hhcurveto
          endchar
        </CharString>
        <CharString name="uni019D">
          107 486 688 rmoveto
          -563 -4 vlineto
          -330 563 rlineto
          -60 -783 hlineto
          -30 callgsubr
          -46 vlineto
          103 39 8 110 hvcurveto
          648 4 vlineto
          333 -569 rlineto
          58 688 hlineto
          endchar
        </CharString>
        <CharString name="uni01C4">
          582 822 750 -95 callgsubr
          -638 -882 rmoveto
          -58 callsubr
        </CharString>
        <CharString name="uni01C5">
          505 793 605 -95 callgsubr
          -609 -737 rmoveto
          -77 callsubr
          375 -53 rmoveto
          -79 callgsubr
          endchar
        </CharString>
        <CharString name="uni01C6">
          433 -77 callgsubr
          478 613 -95 callgsubr
          -50 -737 rmoveto
          -79 callgsubr
          -316 -2 rmoveto
          -74 callsubr
          -46 -14 -39 -20 -67 hhcurveto
          endchar
        </CharString>
        <CharString name="uni01C7">
          221 92 hmoveto
          -44 callgsubr
          395 -637 -71 callsubr
        </CharString>
        <CharString name="uni01C8">
          149 537 1 callgsubr
          -445 -743 rmoveto
          -44 callgsubr
          362 -885 -73 callsubr
        </CharString>
        <CharString name="uni01C9">
          -92 0 callsubr
          215 -75 -25 callgsubr
          -83 -940 -73 callsubr
        </CharString>
        <CharString name="uni01CA">
          397 485 hmoveto
          -78 callsubr
          511 -518 -71 callsubr
        </CharString>
        <CharString name="uni01CB">
          325 713 1 callgsubr
          -228 -743 rmoveto
          -78 callsubr
          478 -766 -73 callsubr
        </CharString>
        <CharString name="uni01CC">
          219 607 1 callgsubr
          -213 -743 rmoveto
          -83 callsubr
          130 -501 -73 callsubr
        </CharString>
        <CharString name="uni01CD">
          62 263 750 -95 callgsubr
          329 -882 -99 callgsubr
        </CharString>
        <CharString name="uni01CD.ss01">
          89 277 750 -95 callgsubr
          289 -882 -103 callgsubr
        </CharString>
        <CharString name="uni01CE">
          -27 219 605 -95 callgsubr
          79 -745 -107 callsubr
        </CharString>
        <CharString name="uni01CF">
          -283 91 750 -95 callgsubr
          94 -882 -50 callgsubr
        </CharString>
        <CharString name="uni01D0">
          -310 77 605 -95 callgsubr
          96 -737 -49 callsubr
        </CharString>
        <CharString name="uni01D1">
          95 280 750 -95 callgsubr
          123 -890 -102 callsubr
        </CharString>
        <CharString name="uni01D2">
          -17 223 605 -95 callgsubr
          124 -745 -104 callgsubr
          endchar
        </CharString>
        <CharString name="uni01D3">
          89 277 750 -95 callgsubr
          289 -194 -99 callsubr
        </CharString>
        <CharString name="uni01D4">
          1 233 605 -95 callgsubr
          259 -737 rmoveto
          49 -40 callsubr
          -101 callsubr
          endchar
        </CharString>
        <CharString name="uni01D5">
          89 204 961 -62 callsubr
          -14 -209 -38 callgsubr
          -187 -99 callsubr
        </CharString>
        <CharString name="uni01D6">
          1 160 849 -62 callsubr
          -14 -242 -85 callgsubr
          75 -730 rmoveto
          49 -40 callsubr
          -101 callsubr
          endchar
        </CharString>
        <CharString name="uni01D7">
          89 283 875 -96 callgsubr
          -93 -75 -38 callgsubr
          -187 -99 callsubr
        </CharString>
        <CharString name="uni01D8">
          1 241 763 -96 callgsubr
          -95 -108 -85 callgsubr
          75 -730 rmoveto
          49 -40 callsubr
          -101 callsubr
          endchar
        </CharString>
        <CharString name="uni01D9">
          89 279 877 -95 callgsubr
          3 -204 -38 callgsubr
          -187 -99 callsubr
        </CharString>
        <CharString name="uni01DA">
          1 235 765 -95 callgsubr
          3 -237 -85 callgsubr
          75 -730 rmoveto
          49 -40 callsubr
          -101 callsubr
          endchar
        </CharString>
        <CharString name="uni01DB">
          89 298 875 -86 callgsubr
          -6 -205 -38 callgsubr
          -187 -99 callsubr
        </CharString>
        <CharString name="uni01DC">
          1 253 763 -86 callgsubr
          -5 -238 -85 callgsubr
          75 -730 rmoveto
          49 -40 callsubr
          -101 callsubr
          endchar
        </CharString>
        <CharString name="uni01EA">
          95 429 -196 rmoveto
          10 7 0 2 13 hvcurveto
          -26 callsubr
          23 47 39 57 46 27 hvcurveto
          65 39 6 91 195 vvcurveto
          302 -15 50 -226 -225 -15 -50 -302 -302 15 -50 225 39 31 1 5 26 vhcurveto
          -37 -38 -24 -44 -40 vvcurveto
          -38 21 -34 62 vhcurveto
          -118 241 rmoveto
          -165 -16 8 291 291 16 8 165 166 16 -8 -291 -291 -16 -8 -166 hvcurveto
          endchar
        </CharString>
        <CharString name="uni01EB">
          -17 255 518 rmoveto
          -182 -12 -49 -215 -214 12 -48 182 29 24 1 3 20 hvcurveto
          -30 -36 -20 -43 -39 vvcurveto
          -41 21 -33 62 12 8 1 1 9 3 callgsubr
          -34 -11 19 24 46 38 61 34 25 hvcurveto
          45 33 5 69 131 vvcurveto
          215 -12 49 -183 vhcurveto
          -477 vmoveto
          -70 callgsubr
        </CharString>
        <CharString name="uni01F1">
          582 92 hmoveto
          -58 callsubr
        </CharString>
        <CharString name="uni01F2">
          505 92 hmoveto
          -77 callsubr
          375 -53 rmoveto
          -79 callgsubr
          endchar
        </CharString>
        <CharString name="uni01F3">
          433 -77 callgsubr
          336 8 rmoveto
          -79 callgsubr
          -316 -2 rmoveto
          -74 callsubr
          -46 -14 -39 -20 -67 hhcurveto
          endchar
        </CharString>
        <CharString name="uni01F4">
          -2 callgsubr
          748 -96 callgsubr
          185 -446 -92 callsubr
          endchar
        </CharString>
        <CharString name="uni01F4.ss01">
          73 272 748 -96 callgsubr
          47 -761 -93 callsubr
          endchar
        </CharString>
        <CharString name="uni01F5">
          -4 236 -79 callsubr
          4 -811 -100 callgsubr
        </CharString>
        <CharString name="uni0200">
          62 241 752 -93 callgsubr
          134 -752 -99 callgsubr
        </CharString>
        <CharString name="uni0200.ss01">
          89 255 752 -93 callgsubr
          94 -752 -103 callgsubr
        </CharString>
        <CharString name="uni0201">
          -27 197 607 -93 callgsubr
          -116 -615 -107 callsubr
        </CharString>
        <CharString name="uni0202">
          62 173 753 -86 callsubr
          327 -753 -99 callgsubr
        </CharString>
        <CharString name="uni0202.ss01">
          89 187 753 -86 callsubr
          287 -753 -103 callgsubr
        </CharString>
        <CharString name="uni0203">
          -27 129 608 -86 callsubr
          77 -616 -107 callsubr
        </CharString>
        <CharString name="uni0204">
          -11 226 752 -93 callgsubr
          -259 -752 rmoveto
          -89 callgsubr
          endchar
        </CharString>
        <CharString name="uni0205">
          -32 194 607 -93 callgsubr
          116 -351 -105 callsubr
          endchar
        </CharString>
        <CharString name="uni0206">
          -11 158 753 -86 callsubr
          -66 -753 rmoveto
          -89 callgsubr
          endchar
        </CharString>
        <CharString name="uni0207">
          -32 248 711 -48 callsubr
          187 -455 -105 callsubr
          endchar
        </CharString>
        <CharString name="uni0208">
          -283 69 752 -93 callgsubr
          -101 -752 -50 callgsubr
        </CharString>
        <CharString name="uni0209">
          -310 55 607 -93 callgsubr
          -99 -607 -49 callsubr
        </CharString>
        <CharString name="uni020A">
          -283 1 753 -86 callsubr
          92 -753 -50 callgsubr
        </CharString>
        <CharString name="uni020B">
          -310 -13 608 -86 callsubr
          94 -608 -49 callsubr
        </CharString>
        <CharString name="uni020C">
          95 258 752 -93 callgsubr
          -72 -760 -102 callsubr
        </CharString>
        <CharString name="uni020D">
          -17 201 607 -93 callgsubr
          -71 -615 -104 callgsubr
          endchar
        </CharString>
        <CharString name="uni020E">
          95 190 753 -86 callsubr
          121 -761 -102 callsubr
        </CharString>
        <CharString name="uni020F">
          -17 133 608 -86 callsubr
          122 -616 -104 callgsubr
          endchar
        </CharString>
        <CharString name="uni0210">
          62 242 752 -93 callgsubr
          164 -752 rmoveto
          -90 callgsubr
          endchar
        </CharString>
        <CharString name="uni0210.ss01">
          68 244 752 -93 callgsubr
          147 -582 -92 callgsubr
          endchar
        </CharString>
        <CharString name="uni0211">
          -213 104 607 -93 callgsubr
          -148 -607 rmoveto
          -75 callsubr
          endchar
        </CharString>
        <CharString name="uni0212">
          62 296 856 -48 callsubr
          235 -856 rmoveto
          -90 callgsubr
          endchar
        </CharString>
        <CharString name="uni0212.ss01">
          68 298 856 -48 callsubr
          218 -686 -92 callgsubr
          endchar
        </CharString>
        <CharString name="uni0213">
          -213 36 608 -86 callsubr
          45 -608 rmoveto
          -75 callsubr
          endchar
        </CharString>
        <CharString name="uni0214">
          89 255 752 -93 callgsubr
          94 -64 -99 callsubr
        </CharString>
        <CharString name="uni0215">
          1 211 607 -93 callgsubr
          64 -607 rmoveto
          49 -40 callsubr
          -101 callsubr
          endchar
        </CharString>
        <CharString name="uni0216">
          89 187 753 -86 callsubr
          287 -65 -99 callsubr
        </CharString>
        <CharString name="uni0217">
          1 143 608 -86 callsubr
          257 -608 rmoveto
          49 -40 callsubr
          -101 callsubr
          endchar
        </CharString>
        <CharString name="uni021A">
          -29 220 hmoveto
          -32 callsubr
          -16 -850 -83 callgsubr
        </CharString>
        <CharString name="uni021B">
          -224 116 hmoveto
          -41 callsubr
          -17 -677 -83 callgsubr
        </CharString>
        <CharString name="uni0232">
          -10 153 834 -62 callsubr
          76 -887 rmoveto
          -82 callsubr
          endchar
        </CharString>
        <CharString name="uni0232.loclGUA">
          -10 364 887 19 callgsubr
          61 -146 -90 callsubr
        </CharString>
        <CharString name="uni0233">
          1 158 -44 callsubr
          88 -945 -96 callsubr
          endchar
        </CharString>
        <CharString name="uni0233.loclGUA">
          -63 345 742 19 callgsubr
          35 -179 -82 callgsubr
        </CharString>
        <CharString name="uni0237">
          -310 -5 -197 -73 callsubr
        </CharString>
        <CharString name="uni0259">
          -32 237 518 rmoveto
          -57 -67 -6 -8 -35 hvcurveto
          -48 vlineto
          8 43 61 5 45 hhcurveto
          139 13 -35 -160 hvcurveto
          -318 -20 hlineto
          -199 9 -63 168 188 9 69 195 205 -22 57 -176 vhcurveto
          3 -477 rmoveto
          -98 -26 17 156 hvcurveto
          15 263 vlineto
          -162 -14 -26 -125 vhcurveto
          endchar
        </CharString>
        <CharString name="uni0272">
          1 -5 -197 rmoveto
          102 40 8 110 hvcurveto
          344 vlineto
          119 2 83 132 105 18 -19 -144 vhcurveto
          -304 56 321 vlineto
          -42 callsubr
          -31 callsubr
          vhcurveto
          -46 callsubr
          -605 hlineto
          -30 callgsubr
          endchar
        </CharString>
        <CharString name="uni02BC">
          -419 -17 callsubr
          endchar
        </CharString>
        <CharString name="uni02C9">
          -195 60 -44 callsubr
          endchar
        </CharString>
        <CharString name="uni0302">
          -262 605 -106 callsubr
          endchar
        </CharString>
        <CharString name="uni0302.case">
          -262 750 -106 callsubr
          endchar
        </CharString>
        <CharString name="uni03020300">
          -51 -46 callgsubr
          -109 -280 -106 callsubr
          endchar
        </CharString>
        <CharString name="uni03020300.case">
          -51 889 -86 callgsubr
          -109 -280 -106 callsubr
          endchar
        </CharString>
        <CharString name="uni03020301">
          -79 750 -51 callsubr
          -150 -106 callsubr
          endchar
        </CharString>
        <CharString name="uni03020301.case">
          -79 892 -51 callsubr
          -151 -106 callsubr
          endchar
        </CharString>
        <CharString name="uni03020303">
          21 916 -106 callgsubr
          -283 -311 -106 callsubr
          endchar
        </CharString>
        <CharString name="uni03020303.case">
          21 1055 -106 callgsubr
          -283 -311 -106 callsubr
          endchar
        </CharString>
        <CharString name="uni03020309">
          -98 748 -103 callsubr
          -164 -154 -106 callsubr
          endchar
        </CharString>
        <CharString name="uni03020309.case">
          -98 887 -103 callsubr
          -164 -154 -106 callsubr
          endchar
        </CharString>
        <CharString name="uni0304">
          -273 -44 callsubr
          endchar
        </CharString>
        <CharString name="uni0304.case">
          -273 834 -62 callsubr
          endchar
        </CharString>
        <CharString name="uni0306">
          -13 743 -101 callgsubr
          endchar
        </CharString>
        <CharString name="uni0306.case">
          -13 888 -101 callgsubr
          endchar
        </CharString>
        <CharString name="uni03060300">
          -146 776 -86 callgsubr
          235 -168 -101 callgsubr
          endchar
        </CharString>
        <CharString name="uni03060300.case">
          -146 921 -86 callgsubr
          235 -168 -101 callgsubr
          endchar
        </CharString>
        <CharString name="uni03060301">
          -158 776 -96 callgsubr
          145 -38 -101 callgsubr
          endchar
        </CharString>
        <CharString name="uni03060301.case">
          -158 921 -96 callgsubr
          145 -38 -101 callgsubr
          endchar
        </CharString>
        <CharString name="uni03060303">
          25 918 -106 callgsubr
          -38 -175 -101 callgsubr
          endchar
        </CharString>
        <CharString name="uni03060303.case">
          25 1063 -106 callgsubr
          -38 -175 -101 callgsubr
          endchar
        </CharString>
        <CharString name="uni03060309">
          -175 743 -103 callsubr
          162 -11 -101 callgsubr
          endchar
        </CharString>
        <CharString name="uni03060309.case">
          -175 888 -103 callsubr
          162 -11 -101 callgsubr
          endchar
        </CharString>
        <CharString name="uni0307">
          -77 -31 callgsubr
          endchar
        </CharString>
        <CharString name="uni0307.case">
          -77 -36 callgsubr
          endchar
        </CharString>
        <CharString name="uni0308">
          -257 660 -85 callgsubr
          endchar
        </CharString>
        <CharString name="uni0308.case">
          -257 805 -85 callgsubr
          endchar
        </CharString>
        <CharString name="uni030A">
          -128 611 -87 callsubr
          endchar
        </CharString>
        <CharString name="uni030A.case">
          -128 726 -87 callsubr
          endchar
        </CharString>
        <CharString name="uni030B">
          -320 607 -78 callgsubr
          endchar
        </CharString>
        <CharString name="uni030B.case">
          -320 752 -78 callgsubr
          endchar
        </CharString>
        <CharString name="uni030C">
          -170 605 -95 callgsubr
          endchar
        </CharString>
        <CharString name="uni030C.case">
          -170 750 -95 callgsubr
          endchar
        </CharString>
        <CharString name="uni030F">
          -183 607 -93 callgsubr
          endchar
        </CharString>
        <CharString name="uni030F.case">
          -183 752 -93 callgsubr
          endchar
        </CharString>
        <CharString name="uni0311">
          -256 608 -86 callsubr
          endchar
        </CharString>
        <CharString name="uni0311.case">
          -256 753 -86 callsubr
          endchar
        </CharString>
        <CharString name="uni0312">
          -299 -12 callgsubr
          endchar
        </CharString>
        <CharString name="uni031B">
          -176 510 rmoveto
          -55 -34 55 hlineto
          81 -37 callsubr
          -44 -40 vlineto
          -43 -6 -14 -47 vhcurveto
          endchar
        </CharString>
        <CharString name="uni0326">
          -145 -216 -83 callgsubr
        </CharString>
        <CharString name="uni0327">
          -118 -3 callgsubr
        </CharString>
        <CharString name="uni0328">
          -194 vmoveto
          -39 callgsubr
        </CharString>
        <CharString name="uni0335">
          -263 322 rmoveto
          235 53 -235 hlineto
          endchar
        </CharString>
        <CharString name="uni0336">
          -91 488 rmoveto
          53 -451 -53 vlineto
          endchar
        </CharString>
        <CharString name="uni0394">
          -29 callsubr
        </CharString>
        <CharString name="uni03A9">
          -65 callgsubr
        </CharString>
        <CharString name="uni03BC">
          -49 callgsubr
        </CharString>
        <CharString name="uni1E0C">
          68 92 hmoveto
          -77 callsubr
          -1 -195 -81 callsubr
        </CharString>
        <CharString name="uni1E0D">
          -4 -77 callgsubr
          20 51 rmoveto
          -74 callsubr
          -46 -14 -39 -20 -67 hhcurveto
          -25 -185 -81 callsubr
        </CharString>
        <CharString name="uni1E24">
          106 484 hmoveto
          -35 callgsubr
          -201 -462 -81 callsubr
        </CharString>
        <CharString name="uni1E25">
          1 394 hmoveto
          -60 callsubr
          -163 -446 -81 callsubr
        </CharString>
        <CharString name="uni1E44">
          107 288 -36 callgsubr
          197 -875 rmoveto
          -78 callsubr
          endchar
        </CharString>
        <CharString name="uni1E45">
          1 236 -31 callgsubr
          158 -730 rmoveto
          -84 callsubr
        </CharString>
        <CharString name="uni1E5A">
          -55 callsubr
          -70 -478 -81 callsubr
        </CharString>
        <CharString name="uni1E5A.ss01">
          -60 callgsubr
          -71 -482 -81 callsubr
        </CharString>
        <CharString name="uni1E5B">
          -28 callsubr
          -6 -652 -81 callsubr
        </CharString>
        <CharString name="uni1E62">
          -67 callsubr
          -43 -134 -81 callsubr
        </CharString>
        <CharString name="uni1E63">
          -65 callsubr
          -35 -134 -81 callsubr
        </CharString>
        <CharString name="uni1E6C">
          -29 220 hmoveto
          -32 callsubr
          -5 -776 -81 callsubr
        </CharString>
        <CharString name="uni1E6D">
          -224 116 hmoveto
          -41 callsubr
          -6 -603 -81 callsubr
        </CharString>
        <CharString name="uni1E92">
          -14 44 hmoveto
          -76 callsubr
          179 -192 -81 callsubr
        </CharString>
        <CharString name="uni1E93">
          -91 45 hmoveto
          -79 callgsubr
          139 -187 -81 callsubr
        </CharString>
        <CharString name="uni1E9E">
          108 398 370 rmoveto
          -33 hlineto
          161 242 rlineto
          45 vlineto
          20 -55 -85 19 -95 hhcurveto
          -174 -33 -61 -276 hvcurveto
          -359 59 359 vlineto
          252 14 32 144 58 50 -7 -16 56 vhcurveto
          -170 -256 rlineto
          -42 103 vlineto
          82 32 -38 -101 -110 -41 -28 -104 -37 -57 5 7 -47 hvcurveto
          -50 vlineto
          -8 40 59 -7 44 hhcurveto
          152 50 63 126 135 -56 54 -117 hvcurveto
          endchar
        </CharString>
        <CharString name="uni1EA0">
          62 500 hmoveto
          -102 callgsubr
          -31 -757 -81 callsubr
        </CharString>
        <CharString name="uni1EA0.ss01">
          89 474 hmoveto
          -105 callgsubr
          -199 -566 -81 callsubr
        </CharString>
        <CharString name="uni1EA1">
          -27 206 -8 -107 callgsubr
          -2 -183 -81 callsubr
        </CharString>
        <CharString name="uni1EA2">
          62 249 731 -94 callsubr
          251 -742 -99 callgsubr
        </CharString>
        <CharString name="uni1EA2.ss01">
          89 263 731 -94 callsubr
          211 -742 -103 callgsubr
        </CharString>
        <CharString name="uni1EA3">
          -27 205 608 -103 callsubr
          1 -627 -107 callsubr
        </CharString>
        <CharString name="uni1EA4">
          62 351 892 -51 callsubr
          -151 -106 callsubr
          332 -751 -99 callgsubr
        </CharString>
        <CharString name="uni1EA4.ss01">
          89 365 892 -51 callsubr
          -151 -106 callsubr
          292 -751 -103 callgsubr
        </CharString>
        <CharString name="uni1EA5">
          -27 307 750 -51 callsubr
          -150 -106 callsubr
          82 -618 -107 callsubr
        </CharString>
        <CharString name="uni1EA6">
          62 378 889 -86 callgsubr
          -109 -280 -106 callsubr
          333 -749 -99 callgsubr
        </CharString>
        <CharString name="uni1EA6.ss01">
          89 392 889 -86 callgsubr
          -109 -280 -106 callsubr
          293 -749 -103 callgsubr
        </CharString>
        <CharString name="uni1EA7">
          -27 334 -46 callgsubr
          -109 -280 -106 callsubr
          83 -618 -107 callsubr
        </CharString>
        <CharString name="uni1EA8">
          62 334 887 -103 callsubr
          -164 -154 -106 callsubr
          330 -749 -99 callgsubr
        </CharString>
        <CharString name="uni1EA8.ss01">
          89 348 887 -103 callsubr
          -164 -154 -106 callsubr
          290 -749 -103 callgsubr
        </CharString>
        <CharString name="uni1EA9">
          -27 290 748 -103 callsubr
          -164 -154 -106 callsubr
          80 -618 -107 callsubr
        </CharString>
        <CharString name="uni1EAA">
          62 451 1055 -106 callgsubr
          -283 -311 -106 callsubr
          332 -749 -99 callgsubr
        </CharString>
        <CharString name="uni1EAA.ss01">
          89 465 1055 -106 callgsubr
          -283 -311 -106 callsubr
          292 -749 -103 callgsubr
        </CharString>
        <CharString name="uni1EAB">
          -27 407 916 -106 callgsubr
          -283 -311 -106 callsubr
          82 -618 -107 callsubr
        </CharString>
        <CharString name="uni1EAC">
          -59 callsubr
          -31 -757 -81 callsubr
        </CharString>
        <CharString name="uni1EAC.ss01">
          89 184 750 -106 callsubr
          290 -755 rmoveto
          -105 callgsubr
          -199 -566 -81 callsubr
        </CharString>
        <CharString name="uni1EAD">
          -27 126 605 -106 callsubr
          80 -618 -107 callgsubr
          -2 -183 -81 callsubr
        </CharString>
        <CharString name="uni1EAE">
          62 269 921 -96 callgsubr
          145 -38 -101 callgsubr
          86 -72 callsubr
        </CharString>
        <CharString name="uni1EAE.ss01">
          89 283 921 -96 callgsubr
          145 -38 -101 callgsubr
          46 -76 callgsubr
        </CharString>
        <CharString name="uni1EAF">
          -27 224 776 -96 callgsubr
          145 -38 -101 callgsubr
          -163 -91 callsubr
        </CharString>
        <CharString name="uni1EB0">
          62 284 921 -86 callgsubr
          235 -168 -101 callgsubr
          83 -72 callsubr
        </CharString>
        <CharString name="uni1EB0.ss01">
          89 298 921 -86 callgsubr
          235 -168 -101 callgsubr
          43 -76 callgsubr
        </CharString>
        <CharString name="uni1EB1">
          -27 240 776 -86 callgsubr
          235 -168 -101 callgsubr
          -167 -91 callsubr
        </CharString>
        <CharString name="uni1EB2">
          62 254 888 -103 callsubr
          162 -11 -101 callgsubr
          84 -72 callsubr
        </CharString>
        <CharString name="uni1EB2.ss01">
          89 265 871 -94 callsubr
          165 6 -101 callgsubr
          44 -76 callgsubr
        </CharString>
        <CharString name="uni1EB3">
          -27 210 743 -103 callsubr
          162 -11 -101 callgsubr
          -166 -91 callsubr
        </CharString>
        <CharString name="uni1EB4">
          62 452 1063 -106 callgsubr
          -38 -175 -101 callgsubr
          86 -72 callsubr
        </CharString>
        <CharString name="uni1EB4.ss01">
          89 466 1063 -106 callgsubr
          -38 -175 -101 callgsubr
          46 -76 callgsubr
        </CharString>
        <CharString name="uni1EB5">
          -27 408 918 -106 callgsubr
          -38 -175 -101 callgsubr
          -164 -91 callsubr
        </CharString>
        <CharString name="uni1EB6">
          -61 callsubr
          -31 -757 -81 callsubr
        </CharString>
        <CharString name="uni1EB6.ss01">
          -63 callsubr
          -199 -566 -81 callsubr
        </CharString>
        <CharString name="uni1EB7">
          -27 372 743 -101 callgsubr
          -166 -751 -107 callgsubr
          -2 -183 -81 callsubr
        </CharString>
        <CharString name="uni1EB8">
          -11 92 hmoveto
          -89 callgsubr
          154 -830 -81 callsubr
        </CharString>
        <CharString name="uni1EB9">
          -32 435 256 -105 callsubr
          -42 -611 -81 callsubr
        </CharString>
        <CharString name="uni1EBA">
          -11 234 731 -94 callsubr
          -142 -742 rmoveto
          -89 callgsubr
          endchar
        </CharString>
        <CharString name="uni1EBB">
          -32 312 717 -81 callgsubr
          123 -461 -105 callsubr
          endchar
        </CharString>
        <CharString name="uni1EBC">
          -11 436 888 -106 callgsubr
          -344 -888 rmoveto
          -89 callgsubr
          endchar
        </CharString>
        <CharString name="uni1EBD">
          -32 156 686 -88 callgsubr
          279 -430 -105 callsubr
          endchar
        </CharString>
        <CharString name="uni1EBE">
          -11 336 892 -51 callsubr
          -151 -106 callsubr
          -61 -751 rmoveto
          -89 callgsubr
          endchar
        </CharString>
        <CharString name="uni1EBF">
          -32 385 890 rmoveto
          -71 callgsubr
          -5 42 vlineto
          102 -66 callgsubr
          5 vlineto
          -203 -184 -67 callgsubr
          96 -56 callgsubr
        </CharString>
        <CharString name="uni1EC0">
          -11 363 889 -86 callgsubr
          -109 -280 -106 callsubr
          -60 -749 rmoveto
          -89 callgsubr
          endchar
        </CharString>
        <CharString name="uni1EC1">
          -32 373 750 -64 callgsubr
          -87 -44 -67 callgsubr
          274 -349 -105 callsubr
          endchar
        </CharString>
        <CharString name="uni1EC2">
          -11 319 887 -103 callsubr
          -164 -154 -106 callsubr
          -63 -749 rmoveto
          -89 callgsubr
          endchar
        </CharString>
        <CharString name="uni1EC3">
          -32 397 857 -81 callgsubr
          -150 -151 -67 callgsubr
          94 -56 callgsubr
        </CharString>
        <CharString name="uni1EC4">
          -11 436 1055 -106 callgsubr
          -283 -311 -106 callsubr
          -61 -749 rmoveto
          -89 callgsubr
          endchar
        </CharString>
        <CharString name="uni1EC5">
          -32 156 859 -88 callgsubr
          57 -116 rmoveto
          -92 -133 rlineto
          -5 41 vlineto
          83 101 84 -101 rlineto
          41 5 hlineto
          -92 133 rlineto
          157 -487 -105 callsubr
          endchar
        </CharString>
        <CharString name="uni1EC6">
          -11 155 750 -106 callsubr
          -63 -755 rmoveto
          -89 callgsubr
          154 -830 -81 callsubr
        </CharString>
        <CharString name="uni1EC7">
          -32 247 706 -67 callgsubr
          271 -349 -105 callsubr
          -42 -611 -81 callsubr
        </CharString>
        <CharString name="uni1EC8">
          -283 77 731 -94 callsubr
          16 -742 -50 callgsubr
        </CharString>
        <CharString name="uni1EC9">
          -310 63 608 -103 callsubr
          18 -619 -49 callsubr
        </CharString>
        <CharString name="uni1ECA">
          -283 93 hmoveto
          -30 callsubr
          hlineto
          -4 -830 -81 callsubr
        </CharString>
        <CharString name="uni1ECB">
          -310 78 668 -21 callsubr
          -21 -652 -81 callsubr
        </CharString>
        <CharString name="uni1ECC">
          95 311 -8 -104 callsubr
          -33 -187 -81 callsubr
        </CharString>
        <CharString name="uni1ECD">
          -17 255 -8 -104 callgsubr
          -34 -183 -81 callsubr
        </CharString>
        <CharString name="uni1ECE">
          95 266 731 -94 callsubr
          45 -750 -102 callsubr
        </CharString>
        <CharString name="uni1ECF">
          -17 209 608 -103 callsubr
          46 -627 -104 callgsubr
          endchar
        </CharString>
        <CharString name="uni1ED0">
          95 368 892 -51 callsubr
          -151 -106 callsubr
          126 -759 -102 callsubr
        </CharString>
        <CharString name="uni1ED1">
          -17 311 750 -51 callsubr
          -150 -18 callgsubr
          -618 -104 callgsubr
          endchar
        </CharString>
        <CharString name="uni1ED2">
          95 395 889 -86 callgsubr
          -109 -280 -18 callgsubr
          -757 -102 callsubr
        </CharString>
        <CharString name="uni1ED3">
          -17 338 -46 callgsubr
          -109 -280 -106 callsubr
          128 -618 -104 callgsubr
          endchar
        </CharString>
        <CharString name="uni1ED4">
          95 351 887 -103 callsubr
          -164 -154 -106 callsubr
          124 -757 -102 callsubr
        </CharString>
        <CharString name="uni1ED5">
          -17 294 748 -103 callsubr
          -164 -154 -106 callsubr
          125 -618 -104 callgsubr
          endchar
        </CharString>
        <CharString name="uni1ED6">
          95 468 1055 -106 callgsubr
          -283 -311 -106 callsubr
          126 -757 -102 callsubr
        </CharString>
        <CharString name="uni1ED7">
          -17 411 916 -106 callgsubr
          -283 -311 -18 callgsubr
          -618 -104 callgsubr
          endchar
        </CharString>
        <CharString name="uni1ED8">
          -64 callsubr
          -33 -187 -81 callsubr
        </CharString>
        <CharString name="uni1ED9">
          -17 130 605 -106 callsubr
          125 -618 -104 callgsubr
          -34 -183 -81 callsubr
        </CharString>
        <CharString name="uni1EDA">
          95 428 883 rmoveto
          -88 callsubr
          -5 42 vlineto
          203 37 -91 callgsubr
          endchar
        </CharString>
        <CharString name="uni1EDB">
          -17 373 738 rmoveto
          -88 callsubr
          -5 42 vlineto
          183 4 -87 callgsubr
        </CharString>
        <CharString name="uni1EDC">
          95 341 748 -64 callgsubr
          230 37 -91 callgsubr
          endchar
        </CharString>
        <CharString name="uni1EDD">
          -17 283 603 -64 callgsubr
          213 4 -87 callgsubr
        </CharString>
        <CharString name="uni1EDE">
          95 376 -69 callgsubr
          153 -56 -91 callgsubr
          endchar
        </CharString>
        <CharString name="uni1EDF">
          -17 319 717 -81 callgsubr
          135 -110 -87 callgsubr
        </CharString>
        <CharString name="uni1EE0">
          95 220 831 -88 callgsubr
          309 -46 -91 callgsubr
          endchar
        </CharString>
        <CharString name="uni1EE1">
          -17 163 686 -88 callgsubr
          291 -79 -87 callgsubr
        </CharString>
        <CharString name="uni1EE2">
          95 529 785 -91 callgsubr
          -33 -187 -81 callsubr
        </CharString>
        <CharString name="uni1EE3">
          -17 454 607 -73 callgsubr
          -50 hlineto
          6 -25 -32 2 -39 -56 callsubr
          183 12 48 214 117 -4 68 -32 37 hvcurveto
          70 3 14 22 76 vvcurveto
          30 vlineto
          -243 -566 rmoveto
          -98 callsubr
          -34 -183 -81 callsubr
        </CharString>
        <CharString name="uni1EE4">
          89 474 688 -98 callgsubr
          -258 -830 -81 callsubr
        </CharString>
        <CharString name="uni1EE5">
          1 400 hmoveto
          49 -40 callsubr
          -101 callsubr
          -178 -218 -81 callsubr
        </CharString>
        <CharString name="uni1EE6">
          89 263 731 -94 callsubr
          211 -54 -99 callsubr
        </CharString>
        <CharString name="uni1EE7">
          1 219 608 -103 callsubr
          181 -619 rmoveto
          49 -40 callsubr
          -101 callsubr
          endchar
        </CharString>
        <CharString name="uni1EE8">
          89 425 883 rmoveto
          -88 callsubr
          -5 42 vlineto
          266 37 -73 callgsubr
          -62 -424 hlineto
          -100 callsubr
          357 3 vlineto
          81 -37 callsubr
          vlineto
          endchar
        </CharString>
        <CharString name="uni1EE9">
          1 383 738 rmoveto
          -88 callsubr
          -5 42 vlineto
          220 4 -73 callgsubr
          -55 -101 callsubr
          3 -76 rlineto
          49 476 hlineto
          80 -37 callsubr
          vlineto
          endchar
        </CharString>
        <CharString name="uni1EEA">
          89 338 748 -64 callgsubr
          293 37 -73 callgsubr
          -62 -424 hlineto
          -100 callsubr
          357 3 vlineto
          81 -37 callsubr
          vlineto
          endchar
        </CharString>
        <CharString name="uni1EEB">
          1 293 603 -64 callgsubr
          250 4 -73 callgsubr
          -55 -101 callsubr
          3 -76 rlineto
          49 476 hlineto
          80 -37 callsubr
          vlineto
          endchar
        </CharString>
        <CharString name="uni1EEC">
          89 373 -69 callgsubr
          216 -56 -73 callgsubr
          -62 -424 hlineto
          -100 callsubr
          357 3 vlineto
          81 -37 callsubr
          vlineto
          endchar
        </CharString>
        <CharString name="uni1EED">
          1 329 717 -81 callgsubr
          172 -110 -73 callgsubr
          -55 -101 callsubr
          3 -76 rlineto
          49 476 hlineto
          80 -37 callsubr
          vlineto
          endchar
        </CharString>
        <CharString name="uni1EEE">
          89 217 831 -88 callgsubr
          372 -46 -73 callgsubr
          -62 -424 hlineto
          -100 callsubr
          357 3 vlineto
          81 -37 callsubr
          vlineto
          endchar
        </CharString>
        <CharString name="uni1EEF">
          1 173 686 -88 callgsubr
          328 -79 -73 callgsubr
          -55 -101 callsubr
          3 -76 rlineto
          49 476 hlineto
          80 -37 callsubr
          vlineto
          endchar
        </CharString>
        <CharString name="uni1EF0">
          89 589 785 -73 callgsubr
          -62 -424 hlineto
          -100 callsubr
          357 3 vlineto
          81 -37 callsubr
          vlineto
          -358 -927 -81 callsubr
        </CharString>
        <CharString name="uni1EF1">
          1 501 607 -73 callgsubr
          -55 -101 callsubr
          3 -76 rlineto
          49 476 hlineto
          80 -37 callsubr
          vlineto
          -326 -749 -81 callsubr
        </CharString>
        <CharString name="uni1EF4">
          -10 229 hmoveto
          -82 callsubr
          -3 -413 -81 callsubr
        </CharString>
        <CharString name="uni1EF4.loclGUA">
          -10 425 688 -89 callsubr
          -258 -830 -81 callsubr
        </CharString>
        <CharString name="uni1EF5">
          1 246 -203 -96 callsubr
          -34 -142 -81 callsubr
        </CharString>
        <CharString name="uni1EF5.loclGUA">
          -63 201 -191 rmoveto
          237 701 rlineto
          -58 hlineto
          -144 -438 rlineto
          -6 hlineto
          -144 438 rlineto
          -59 hlineto
          173 -510 rlineto
          7 hlineto
          -64 -191 rlineto
          58 -142 -81 callsubr
        </CharString>
        <CharString name="uni1EF6">
          -10 214 731 -94 callsubr
          15 -742 rmoveto
          -82 callsubr
          endchar
        </CharString>
        <CharString name="uni1EF6.loclGUA">
          -10 323 -69 callgsubr
          102 -153 -90 callsubr
        </CharString>
        <CharString name="uni1EF7">
          1 219 608 -103 callsubr
          27 -822 -96 callsubr
          endchar
        </CharString>
        <CharString name="uni1EF7.loclGUA">
          -63 304 717 -81 callgsubr
          76 -207 -82 callgsubr
        </CharString>
        <CharString name="uni1EF8">
          -10 416 888 -106 callgsubr
          -187 -888 rmoveto
          -82 callsubr
          endchar
        </CharString>
        <CharString name="uni1EF8.loclGUA">
          -10 167 831 -88 callgsubr
          258 -143 -90 callsubr
        </CharString>
        <CharString name="uni1EF9">
          1 421 743 -106 callgsubr
          -175 -946 -96 callsubr
          endchar
        </CharString>
        <CharString name="uni1EF9.loclGUA">
          -63 148 686 -88 callgsubr
          232 -176 -82 callgsubr
        </CharString>
        <CharString name="uni2002">
          -228 endchar
        </CharString>
        <CharString name="uni20B2">
          19 305 368 rmoveto
          195 vlineto
          37 63 -6 -9 51 hvcurveto
          50 vlineto
          -40 9 -60 7 -51 2 rrcurveto
          80 -48 -80 vlineto
          -152 -5 -34 -46 -221 vvcurveto
          -224 33 -44 153 -4 vhcurveto
          -80 48 80 vlineto
          161 4 10 47 176 vvcurveto
          69 vlineto
          -346 -24 rmoveto
          189 20 26 107 3 vhcurveto
          -437 vlineto
          -111 3 -16 33 183 vvcurveto
          288 -50 rmoveto
          -142 -8 -24 -105 -3 vhcurveto
          191 113 vlineto
          endchar
        </CharString>
        <CharString name="uni2113">
          -117 149 204 rmoveto
          129 78 75 158 122 vvcurveto
          81 -35 52 -77 -117 -36 -122 -249 -34 1 -30 1 -28 vhcurveto
          -19 -9 -20 -6 -22 -4 rrcurveto
          -54 vlineto
          23 4 22 5 20 8 rrcurveto
          -134 14 40 -49 80 hhcurveto
          45 39 19 31 41 hvcurveto
          61 vlineto
          -41 -51 -35 -17 -33 hhcurveto
          -51 -25 35 123 -9 hvcurveto
          91 438 rmoveto
          40 18 -28 -52 -98 -54 -126 -97 -73 hvcurveto
          -1 19 0 21 22 vvcurveto
          215 22 100 72 vhcurveto
          endchar
        </CharString>
        <CharString name="uni2116">
          408 747 -24 callsubr
          -262 -397 rmoveto
          -78 callsubr
          595 -134 rmoveto
          0 callgsubr
          -110 -206 rmoveto
          219 48 -219 hlineto
          endchar
        </CharString>
        <CharString name="uni2126">
          -65 callgsubr
        </CharString>
        <CharString name="uni2153">
          163 -53 callsubr
          -42 -632 rmoveto
          49 -37 callgsubr
          -53 -647 rmoveto
          -4 callgsubr
          -50 callsubr
          endchar
        </CharString>
        <CharString name="uni2154">
          226 277 361 rmoveto
          -181 25 hlineto
          -54 callsubr
          vlineto
          270 370 rmoveto
          -392 -688 rlineto
          49 hlineto
          392 688 rlineto
          43 -500 rmoveto
          -50 callsubr
          -4 callgsubr
          endchar
        </CharString>
        <CharString name="uni2206">
          -29 callsubr
        </CharString>
        <CharString name="uniA78B">
          14 callgsubr
          177 -57 vlineto
          endchar
        </CharString>
        <CharString name="uniA78C">
          14 callgsubr
          232 -57 vlineto
          endchar
        </CharString>
        <CharString name="uniF8FF">
          313 72 hmoveto
          697 698 -697 hlineto
          546 -316 rmoveto
          -66 vlineto
          -100 -72 -81 -124 -125 -73 81 100 vhcurveto
          66 vlineto
          100 73 81 125 124 72 -81 -100 vhcurveto
          -135 -92 rmoveto
          118 vlineto
          33 -27 27 -34 -35 -27 -27 -33 vhcurveto
          -118 vlineto
          -33 27 -27 35 34 27 27 33 vhcurveto
          endchar
        </CharString>
        <CharString name="uogonek">
          1 433 -154 rmoveto
          -34 -12 19 24 39 35 50 27 22 hvcurveto
          -40 callsubr
          -264 vlineto
          -120 -3 -83 -132 -104 -18 19 144 vhcurveto
          304 -56 -321 vlineto
          -141 21 -56 137 102 36 37 47 16 vhcurveto
          5 hlineto
          4 -73 rlineto
          -37 -35 -27 -48 -42 vvcurveto
          -41 22 -33 62 11 7 0 2 11 3 callgsubr
          endchar
        </CharString>
        <CharString name="uring">
          1 264 611 -87 callsubr
          136 -647 rmoveto
          49 -40 callsubr
          -101 callsubr
          endchar
        </CharString>
        <CharString name="utilde">
          1 421 743 -106 callgsubr
          -21 -743 rmoveto
          49 -40 callsubr
          -101 callsubr
          endchar
        </CharString>
        <CharString name="v">
          -63 200 hmoveto
          65 hlineto
          173 510 rlineto
          -58 hlineto
          -144 -438 rlineto
          -6 hlineto
          -144 438 rlineto
          -59 hlineto
          endchar
        </CharString>
        <CharString name="w">
          183 470 hmoveto
          -80 callgsubr
        </CharString>
        <CharString name="wacute">
          183 330 -79 callsubr
          140 -608 rmoveto
          -80 callgsubr
        </CharString>
        <CharString name="wcircumflex">
          183 231 605 -106 callsubr
          239 -610 rmoveto
          -80 callgsubr
        </CharString>
        <CharString name="wdieresis">
          183 237 660 -85 callgsubr
          54 -730 rmoveto
          -80 callgsubr
        </CharString>
        <CharString name="wgrave">
          183 342 603 -86 callgsubr
          230 -738 rmoveto
          -80 callgsubr
        </CharString>
        <CharString name="x">
          -52 382 hmoveto
          65 hlineto
          -174 260 168 250 rlineto
          -63 hlineto
          -137 -203 rlineto
          -5 hlineto
          -136 203 rlineto
          -65 hlineto
          168 -251 -174 -259 rlineto
          62 hlineto
          144 212 rlineto
          5 hlineto
          endchar
        </CharString>
        <CharString name="y">
          1 246 -203 -96 callsubr
          endchar
        </CharString>
        <CharString name="y.loclGUA">
          -63 380 510 -82 callgsubr
        </CharString>
        <CharString name="yacute">
          1 240 -79 callsubr
          6 -811 -96 callsubr
          endchar
        </CharString>
        <CharString name="yacute.loclGUA">
          -63 358 738 rmoveto
          -88 callsubr
          -5 42 vlineto
          124 -93 -82 callgsubr
        </CharString>
        <CharString name="ycircumflex">
          1 140 605 -106 callsubr
          106 -813 -96 callsubr
          endchar
        </CharString>
        <CharString name="ycircumflex.loclGUA">
          -63 239 706 -67 callgsubr
          224 -95 -82 callgsubr
        </CharString>
        <CharString name="ydieresis">
          1 146 659 -85 callgsubr
          -79 -932 -96 callsubr
          endchar
        </CharString>
        <CharString name="ydieresis.loclGUA">
          -63 179 730 -19 callsubr
          22 -150 -82 callgsubr
        </CharString>
        <CharString name="yen">
          22 515 688 rmoveto
          -61 hlineto
          -115 -240 rlineto
          -127 hlineto
          -115 240 rlineto
          -62 hlineto
          119 -240 rlineto
          -91 -44 113 hlineto
          54 -109 rlineto
          -167 -43 182 -252 59 252 182 43 -167 hlineto
          54 109 rlineto
          113 44 -91 hlineto
          -116 -124 rmoveto
          -7 hlineto
          -38 80 rlineto
          83 hlineto
          endchar
        </CharString>
        <CharString name="ygrave">
          1 251 603 -86 callgsubr
          97 -941 -96 callsubr
          endchar
        </CharString>
        <CharString name="ygrave.loclGUA">
          -63 268 603 -64 callgsubr
          154 -93 -82 callgsubr
        </CharString>
        <CharString name="z">
          -91 45 hmoveto
          -79 callgsubr
          endchar
        </CharString>
        <CharString name="zacute">
          -91 192 -79 callsubr
          -147 -608 rmoveto
          -79 callgsubr
          endchar
        </CharString>
        <CharString name="zacute.loclPLK">
          -91 192 603 -72 callgsubr
          -147 -608 rmoveto
          -79 callgsubr
          endchar
        </CharString>
        <CharString name="zcaron">
          -91 191 605 -95 callgsubr
          -54 -737 rmoveto
          -79 callgsubr
          endchar
        </CharString>
        <CharString name="zdotaccent">
          -91 189 -31 callgsubr
          -144 -730 rmoveto
          -79 callgsubr
          endchar
        </CharString>
        <CharString name="zero">
          53 291 -8 rmoveto
          211 8 50 302 302 -5 50 -214 -212 -8 -50 -302 -302 8 -50 212 -18 callsubr
          -154 -8 10 289 289 8 10 154 153 8 -10 -289 -289 -8 -10 -153 hvcurveto
          endchar
        </CharString>
        <CharString name="zero.dnom">
          -184 172 -4 -48 callgsubr
        </CharString>
        <CharString name="zero.numr">
          -184 172 304 -48 callgsubr
        </CharString>
        <CharString name="zero.tnum">
          -27 callgsubr
          53 vmoveto
          -151 -7 10 289 290 7 9 151 150 7 -10 -289 -290 -7 -9 -150 hvcurveto
          endchar
        </CharString>
        <CharString name="zero.zero">
          -27 callgsubr
          -158 379 rmoveto
          261 11 11 147 145 11 -11 -261 1 vhcurveto
          -157 -326 rmoveto
          -147 -11 10 264 hvcurveto
          315 hlineto
          -264 -1 -10 -10 -146 hhcurveto
          endchar
        </CharString>
      <CharString index="0">
        rmoveto
        58 75 8 76 25 -36 callsubr
        326 hlineto
        151 -30 41 -152 -61 -58 -5 -8 -40 -20 callgsubr
        6 34 68 6 39 hhcurveto
        122 22 -12 -134 hvcurveto
        -40 vlineto
        2 -59 -88 3 -29 hhcurveto
        -108 -32 -36 -113 -118 50 -29 107 hvcurveto
        13 49 rmoveto
        -93 -21 19 82 87 19 14 79 hvcurveto
        162 -35 hlineto
        -49 -5 -33 -15 -34 vhcurveto
        -46 -21 -51 -5 -54 hhcurveto
        return
      </CharString>
      <CharString index="1">
        rmoveto
        -43 callsubr
        -3 -15 -26 -25 -28 10 10 -28 vhcurveto
        13 -35 -34 13 -35 hhcurveto
        -55 -8 -30 -73 hvcurveto
        37 hlineto
        42 4 15 25 26 29 -11 -10 27 vhcurveto
        -13 35 34 -12 34 hhcurveto
        55 8 -41 callgsubr
        return
      </CharString>
      <CharString index="2">
        59 391 hlineto
        242 -19 63 -206 -206 -18 -63 -242 vhcurveto
        -391 59 257 331 vlineto
        167 vmoveto
        -113 -331 113 vlineto
        179 9 40 156 156 10 -40 -179 vhcurveto
        return
      </CharString>
      <CharString index="3">
        rmoveto
        183 12 48 214 215 -12 49 -183 -182 -12 -49 -215 -214 12 -48 182 hvcurveto
        49 -23 callsubr
        return
      </CharString>
      <CharString index="4">
        rmoveto
        -105 callgsubr
        endchar
      </CharString>
      <CharString index="5">
        62 -23 callgsubr
        688 rlineto
        -72 -23 callgsubr
        -688 rlineto
        60 hlineto
        68 204 rlineto
        276 hlineto
        -135 411 rmoveto
        118 -358 rlineto
        -242 hlineto
        119 358 rlineto
        return
      </CharString>
      <CharString index="6">
        rmoveto
        -42 hlineto
        -67 -2 -36 -78 -78 -1 36 67 vhcurveto
        -42 hlineto
        -82 3 -59 118 118 4 59 82 vhcurveto
        return
      </CharString>
      <CharString index="7">
        rmoveto
        180 23 72 203 hvcurveto
        438 -49 vlineto
        -3 -76 rlineto
        -5 hlineto
        73 -24 -64 11 -65 hhcurveto
        -141 -31 -52 -211 -210 30 -51 142 78 50 19 56 21 hvcurveto
        5 -15 hlineto
        -166 -17 -41 -140 -43 -59 2 4 -48 -20 callgsubr
        -5 40 66 -3 54 hhcurveto
        12 247 rmoveto
        -118 -17 25 186 188 17 24 118 68 40 -20 -57 16 hvcurveto
        10 -33 1 -44 -58 vvcurveto
        -60 -2 -44 -11 -37 vhcurveto
        -50 -15 -39 -20 -68 hhcurveto
        endchar
      </CharString>
      <CharString index="8">
        rmoveto
        -102 callgsubr
        endchar
      </CharString>
      <CharString index="9">
        rmoveto
        -424 vlineto
        -100 callsubr
        -7 callsubr
        return
      </CharString>
      <CharString index="10">
        rmoveto
        135 66 31 170 50 -1 35 -9 24 hvcurveto
        -19 55 -43 9 -68 9 -143 18 rcurveline
        -69 8 -10 17 91 vvcurveto
        48 4 35 26 22 vhcurveto
        21 24 41 8 70 hhcurveto
        52 68 -5 -7 47 hvcurveto
        51 vlineto
        8 -39 -73 6 -66 hhcurveto
        -145 -68 -38 -149 -97 6 -61 109 -13 hvcurveto
        149 -19 rlineto
        95 -12 4 -11 -110 vvcurveto
        -53 -4 -44 -29 -20 vhcurveto
        -19 -30 -36 -5 -61 hhcurveto
        -48 -80 5 7 -57 hvcurveto
        -52 vlineto
        -8 55 83 -5 64 hhcurveto
        return
      </CharString>
      <CharString index="11">
        rmoveto
        42 hlineto
        102 135 rlineto
        -88 callsubr
        return
      </CharString>
      <CharString index="12">
        -32 callgsubr
        92 132 rlineto
        6 -41 vlineto
        -84 -102 -83 102 rlineto
        -41 -6 hlineto
        return
      </CharString>
      <CharString index="13">
        rmoveto
        112 24 33 71 65 -22 17 -43 10 hvcurveto
        2 vlineto
        42 8 19 26 55 vvcurveto
        71 -31 28 -101 -101 -31 -28 -71 -55 20 -26 42 -8 vhcurveto
        -2 vlineto
        -42 -10 -22 -17 -65 vvcurveto
        -71 23 -33 111 vhcurveto
        1 215 rmoveto
        -69 -18 12 53 53 16 13 71 70 15 -13 -53 -53 -16 -12 -69 hvcurveto
        -175 vmoveto
        -69 -20 10 57 59 17 9 72 71 18 -9 -59 -57 -21 -10 -68 hvcurveto
        endchar
      </CharString>
      <CharString index="14">
        rmoveto
        5 vlineto
        -78 126 rlineto
        -58 -5 hlineto
        98 -126 rlineto
        202 hmoveto
        5 vlineto
        -78 126 rlineto
        -59 -5 hlineto
        98 -126 rlineto
        return
      </CharString>
      <CharString index="15">
        rmoveto
        -5 103 -31 27 -63 16 rrcurveto
        4 vlineto
        68 17 37 41 123 vvcurveto
        123 -36 64 -134 vhcurveto
        -260 -688 58 287 186 hlineto
        117 2 -67 -69 4 hvcurveto
        9 -151 rlineto
        58 hlineto
        -191 340 rmoveto
        -185 295 189 hlineto
        117 7 -55 -93 -90 -18 -57 -110 hvcurveto
        return
      </CharString>
      <CharString index="16">
        -73 callgsubr
        -51 hlineto
        6 -30 -38 2 -46 hhcurveto
        -225 -15 -50 -302 -302 15 -50 225 226 15 50 302 175 -5 91 -48 45 hvcurveto
        61 4 13 24 72 vvcurveto
        30 vlineto
        -262 -740 rmoveto
        -165 -16 8 291 291 16 8 165 166 16 -8 -291 -291 -16 -8 -166 hvcurveto
        return
      </CharString>
      <CharString index="17">
        -107 295 rlineto
        90 27 8 84 80 vvcurveto
        108 -11 94 -160 vhcurveto
        -259 -688 58 284 191 hlineto
        5 11 0 1 10 hvcurveto
        101 -285 rlineto
        -136 336 rmoveto
        -182 299 189 hlineto
        117 7 -55 -94 -94 -10 -56 -121 hvcurveto
        return
      </CharString>
      <CharString index="18">
        377 53 -318 269 278 52 -278 261 318 53 -377 hlineto
        return
      </CharString>
      <CharString index="19">
        rmoveto
        26 29 -11 -10 27 hvcurveto
        -13 35 34 -12 34 hhcurveto
        55 8 -41 callgsubr
        -43 callsubr
        -3 -15 -26 -25 -28 10 10 -28 vhcurveto
        13 -35 -34 13 -35 hhcurveto
        -55 -8 -30 -73 hvcurveto
        37 hlineto
        42 4 15 25 vhcurveto
        return
      </CharString>
      <CharString index="20">
        -73 callgsubr
        -50 hlineto
        6 -25 -32 2 -39 -56 callsubr
        183 12 48 214 117 -4 68 -32 37 hvcurveto
        70 3 14 22 76 vvcurveto
        30 vlineto
        -243 -566 rmoveto
        -70 callgsubr
      </CharString>
      <CharString index="21">
        rmoveto
        42 5 hlineto
        -80 -66 callgsubr
        -64 -5 hlineto
        return
      </CharString>
      <CharString index="22">
        rmoveto
        58 70 -58 hlineto
        179 -70 rmoveto
        58 70 -58 hlineto
        return
      </CharString>
      <CharString index="23">
        rmoveto
        48 vlineto
        -7 -28 -45 -5 -35 hhcurveto
        -119 -18 33 182 175 17 38 118 32 44 -5 -6 30 hvcurveto
        48 vlineto
        7 -28 -50 5 -40 hhcurveto
        -149 -30 -60 -204 -187 14 -75 168 41 49 5 8 29 hvcurveto
        endchar
      </CharString>
      <CharString index="24">
        rmoveto
        -29 vlineto
        76 14 22 84 -14 callgsubr
        -78 -3 callsubr
        -46 -47 callsubr
      </CharString>
      <CharString index="25">
        rmoveto
        -144 -438 rlineto
        -6 hlineto
        -144 438 rlineto
        -59 hlineto
        173 -510 rlineto
        7 hlineto
        -64 -191 rlineto
        58 hlineto
        237 701 rlineto
        endchar
      </CharString>
      <CharString index="26">
        rmoveto
        -25 -8 -6 -41 -11 vhcurveto
        -20 -6 rlineto
        -30 -10 -11 -7 -33 vvcurveto
        -11 40 vlineto
        22 1 2 39 12 vhcurveto
        22 7 rlineto
        46 15 6 19 37 vvcurveto
        57 -32 14 -84 -28 -43 -3 -4 -31 vhcurveto
        -37 vlineto
        3 34 37 2 24 hhcurveto
        61 18 -2 -35 hvcurveto
        return
      </CharString>
      <CharString index="27">
        65 hlineto
        146 510 rlineto
        -57 hlineto
        -117 -431 rlineto
        -6 hlineto
        -116 431 rlineto
        -58 hlineto
        -114 -431 rlineto
        -6 hlineto
        -119 431 rlineto
        -58 hlineto
        146 -510 rlineto
        64 hlineto
        112 412 rlineto
        6 hlineto
        endchar
      </CharString>
      <CharString index="28">
        347 49 -277 hlineto
        275 417 rlineto
        44 -335 -49 265 vlineto
        -275 -416 rlineto
        return
      </CharString>
      <CharString index="29">
        rmoveto
        39 hlineto
        98 126 rlineto
        5 -59 vlineto
        -78 -126 rlineto
        164 -5 rmoveto
        38 hlineto
        98 126 rlineto
        5 -58 vlineto
        -78 -126 rlineto
        return
      </CharString>
      <CharString index="30">
        233 -8 rmoveto
        65 64 11 73 24 -36 callsubr
        743 -56 -300 -5 hlineto
        55 -22 -49 20 -78 hhcurveto
        -142 -30 -53 -210 -212 31 -51 141 hvcurveto
        return
      </CharString>
      <CharString index="31">
        -888 -103 callgsubr
      </CharString>
      <CharString index="32">
        rmoveto
        197 -9 63 -168 -94 -47 -18 -44 -26 vhcurveto
        47 -22 -46 15 -89 hhcurveto
        -62 -57 -6 -7 -40 hvcurveto
        -48 vlineto
        6 34 67 6 39 hhcurveto
        124 21 -13 -133 hvcurveto
        -39 vlineto
        -51 -70 1 -55 hhcurveto
        -109 -31 -35 -111 -118 51 -29 112 67 75 8 78 34 hvcurveto
        -65 23 48 -21 105 hhcurveto
        57 66 -14 callsubr
        hvcurveto
        48 vlineto
        -8 -42 -61 -5 -45 hhcurveto
        -140 -13 36 162 hvcurveto
        319 hlineto
        -180 230 rmoveto
        98 27 -18 -155 hvcurveto
        -12 -264 vlineto
        160 14 25 125 vhcurveto
        -195 -262 rmoveto
        -45 -5 -33 -13 -32 vhcurveto
        -51 -20 -53 -5 -55 hhcurveto
        -94 -21 18 83 85 20 12 79 hvcurveto
        162 hlineto
        endchar
      </CharString>
      <CharString index="33">
        rmoveto
        109 25 35 69 62 -25 22 -40 8 hvcurveto
        2 vlineto
        39 9 22 25 55 vvcurveto
        72 -33 27 -96 -31 -45 -4 -5 -28 vhcurveto
        -38 vlineto
        3 29 37 2 26 hhcurveto
        68 27 -7 -57 -55 -30 -10 -34 hvcurveto
        -68 -40 68 hlineto
        49 19 -17 -52 -59 -33 -6 -61 -24 -41 2 4 -34 hvcurveto
        -39 vlineto
        -5 31 44 -3 30 hhcurveto
        return
      </CharString>
      <CharString index="34">
        rmoveto
        -40 vlineto
        -43 -6 -14 -47 vhcurveto
        return
      </CharString>
      <CharString index="35">
        rmoveto
        42 hlineto
        62 -45 callgsubr
        -41 -135 rlineto
        return
      </CharString>
      <CharString index="36">
        -81 -135 rlineto
        return
      </CharString>
      <CharString index="37">
        -98 callsubr
        endchar
      </CharString>
      <CharString index="38">
        841 rmoveto
        -26 -8 -6 -41 -11 vhcurveto
        -20 -6 rlineto
        -30 -10 -11 -7 -33 vvcurveto
        -11 40 vlineto
        22 1 3 39 12 vhcurveto
        22 6 rlineto
        46 15 6 19 38 vvcurveto
        56 -32 14 -84 -28 -43 -3 -4 -31 vhcurveto
        -36 vlineto
        2 34 37 2 24 hhcurveto
        61 18 -2 -34 hvcurveto
        return
      </CharString>
      <CharString index="39">
        rmoveto
        44 81 rlineto
        -53 hlineto
        -32 -59 rlineto
        9 -27 -36 3 -47 hhcurveto
        -182 -12 -49 -215 -125 4 -68 40 -35 hvcurveto
        -44 -81 rlineto
        52 hlineto
        32 59 rlineto
        -9 27 36 -3 47 hhcurveto
        183 12 48 214 126 -4 69 -40 35 hvcurveto
        -289 -230 rmoveto
        183 1 32 137 38 27 -2 -7 20 vhcurveto
        -206 -381 rlineto
        -17 31 0 53 91 vvcurveto
        138 -213 rmoveto
        -38 -27 2 7 -20 hvcurveto
        207 380 rlineto
        17 -31 0 -53 -92 vvcurveto
        -183 -2 -30 -137 vhcurveto
        endchar
      </CharString>
      <CharString index="40">
        rmoveto
        84 -101 rlineto
        41 5 hlineto
        -92 133 rlineto
        -65 hlineto
        -92 -133 rlineto
        -5 41 vlineto
        return
      </CharString>
      <CharString index="41">
        135 rlineto
        return
      </CharString>
      <CharString index="42">
        99 75 hmoveto
        192 48 hlineto
        -123 21 -12 62 228 vvcurveto
        255 14 29 167 167 15 -29 -255 -228 -13 -62 -122 -21 vhcurveto
        -48 192 52 -5 vlineto
        -34 -3 -34 -5 -35 -4 rrcurveto
        6 vlineto
        97 35 13 104 177 vvcurveto
        263 -15 71 -226 -225 -15 -71 -263 -177 12 -104 97 -35 vhcurveto
        -6 vlineto
        -34 4 -34 5 -35 3 rrcurveto
        -4 hlineto
        endchar
      </CharString>
      <CharString index="43">
        rmoveto
        5 vlineto
        -80 -66 callgsubr
        -64 -5 hlineto
        102 -135 rlineto
        return
      </CharString>
      <CharString index="44">
        rmoveto
        76 39 15 52 16 hvcurveto
        9 31 2 42 56 vvcurveto
        58 -1 40 -8 29 vhcurveto
        55 -15 -37 8 -75 hhcurveto
        -106 -20 -27 -98 -94 34 -13 82 66 21 15 12 10 hvcurveto
        3 hlineto
        -120 -10 -20 -95 -24 -39 3 4 -30 vhcurveto
        -39 vlineto
        -6 32 43 -3 27 hhcurveto
        10 195 rmoveto
        -71 -13 5 72 69 16 3 68 67 18 -7 -79 -49 -7 -14 -78 hvcurveto
        endchar
      </CharString>
      <CharString index="45">
        rmoveto
        106 20 27 97 95 -33 12 -82 -66 -20 -15 -12 -11 hvcurveto
        -4 -2 callsubr
        11 20 94 25 38 -3 -3 30 vhcurveto
        38 vlineto
        6 -33 -41 4 -27 hhcurveto
        -78 -38 -16 -57 -16 hvcurveto
        -9 -30 -2 -40 -54 vvcurveto
        -50 1 -37 5 -25 vhcurveto
        -68 15 38 -9 77 hhcurveto
        -3 41 rmoveto
        -66 -19 7 80 48 7 14 78 71 13 -4 -72 -69 -16 -4 -68 hvcurveto
        endchar
      </CharString>
      <CharString index="46">
        rmoveto
        62 8 5 27 58 vvcurveto
        70 -7 27 -103 -101 -7 -27 -70 -58 5 -27 62 -8 vhcurveto
        -225 -673 17 callgsubr
        -204 rlineto
        62 hlineto
        -333 766 rmoveto
        47 1 14 64 65 2 -14 -47 -47 -2 -13 -65 -64 -1 13 47 vhcurveto
        -56 -509 rmoveto
        119 358 rlineto
        5 hlineto
        118 -358 rlineto
        endchar
      </CharString>
      <CharString index="47">
        68 516 170 -92 callgsubr
        return
      </CharString>
      <CharString index="48">
        -97 132 183 rmoveto
        54 76 hlineto
        50 4 7 77 33 vhcurveto
        21 8 rlineto
        71 30 7 61 83 vvcurveto
        121 -46 44 -130 -44 -66 -6 -9 -49 vhcurveto
        -49 vlineto
        6 51 59 5 33 hhcurveto
        104 29 -19 -102 -92 -14 -15 -65 -28 hvcurveto
        -25 -10 rlineto
        -51 -21 -20 -12 -75 vvcurveto
        -7 -269 -81 callsubr
      </CharString>
      <CharString index="49">
        rmoveto
        24 0 13 4 12 vhcurveto
        3 9 7 6 12 5 107 47 rcurveline
        45 19 16 22 61 vvcurveto
        92 -53 6 -66 -38 -47 -4 -5 -29 vhcurveto
        -38 vlineto
        3 35 42 2 25 hhcurveto
        66 19 -6 -55 -34 -8 -12 -33 -16 hvcurveto
        -32 -15 -34 -14 -30 -13 rrcurveto
        -55 -25 -2 -20 -86 vvcurveto
        -44 240 42 -194 vlineto
        endchar
      </CharString>
      <CharString index="50">
        rmoveto
        68 80 -68 hlineto
        4 -696 rmoveto
        44 66 6 9 49 hvcurveto
        49 vlineto
        -6 -51 -59 -5 -33 hhcurveto
        -105 -29 19 102 92 15 16 68 28 hvcurveto
        23 9 rlineto
        50 21 20 12 75 vvcurveto
        86 -55 -76 vlineto
        -50 -4 -7 -52 -22 vhcurveto
        -45 -18 rlineto
        -70 -30 -9 -59 -86 vvcurveto
        -124 49 -41 128 vhcurveto
        endchar
      </CharString>
      <CharString index="51">
        -87 rmoveto
        -1 callsubr
        hvcurveto
        -69 callsubr
        -139 -13 35 160 hvcurveto
        318 20 hlineto
        199 -9 63 -168 vhcurveto
        -2 -49 -8 callgsubr
      </CharString>
      <CharString index="52">
        rmoveto
        -47 callgsubr
        return
      </CharString>
      <CharString index="53">
        46 rmoveto
        99 62 67 110 126 vvcurveto
        125 -67 111 -99 62 vhcurveto
        -32 -51 rlineto
        82 -51 56 -92 -104 vvcurveto
        -105 -55 -91 -83 -52 vhcurveto
        -31 51 rmoveto
        65 41 44 73 83 vvcurveto
        83 -44 73 -66 41 vhcurveto
        -32 -51 rlineto
        49 -31 33 -54 -61 vvcurveto
        -62 -33 -53 -48 -31 vhcurveto
        return
      </CharString>
      <CharString index="54">
        43 hlineto
        2 106 9 194 80 vvcurveto
        124 -65 -124 vlineto
        -80 9 -194 2 -106 vhcurveto
        return
      </CharString>
      <CharString index="55">
        -13 callsubr
        -313 -64 -52 64 hlineto
        174 -270 rmoveto
        -116 270 115 52 -115 260 116 hlineto
        184 16 -7 -284 -284 -13 -7 -187 hvcurveto
        endchar
      </CharString>
      <CharString index="56">
        299 53 -250 hlineto
        -65 268 rlineto
        275 53 -286 hlineto
        -64 261 rlineto
        390 53 -473 hlineto
        -298 -688 rlineto
        60 hlineto
        87 204 rlineto
        276 hlineto
        -95 410 rmoveto
        84 -357 rlineto
        -243 hlineto
        154 357 rlineto
        endchar
      </CharString>
      <CharString index="57">
        rmoveto
        -30 callsubr
        hlineto
        endchar
      </CharString>
      <CharString index="58">
        3 394 510 rmoveto
        -264 vlineto
        -120 -42 callgsubr
        144 vhcurveto
        304 -56 -700 56 211 vlineto
        -21 25 34 -8 45 hhcurveto
        100 36 37 47 16 -36 callsubr
        510 hlineto
        endchar
      </CharString>
      <CharString index="59">
        rmoveto
        127 3 31 162 161 -4 32 -126 -127 -4 -32 -161 -162 4 -31 127 hvcurveto
        41 vmoveto
        -82 -3 3 149 148 3 3 82 82 2 -3 -148 -149 -2 -3 -82 hvcurveto
        endchar
      </CharString>
      <CharString index="60">
        56 -40 callsubr
        hlineto
        return
      </CharString>
      <CharString index="61">
        750 -86 callgsubr
        return
      </CharString>
      <CharString index="62">
        -66 callgsubr
        5 -63 vlineto
        return
      </CharString>
      <CharString index="63">
        343 54 -284 634 -59 hlineto
        return
      </CharString>
      <CharString index="64">
        -65 5 7 -49 vhcurveto
        -49 vlineto
        -9 53 70 -7 46 hhcurveto
        17 345 rmoveto
        -134 -26 9 147 135 30 15 130 126 35 -21 -161 -92 -14 -32 -147 hvcurveto
        endchar
      </CharString>
      <CharString index="65">
        -2 -83 -133 -104 -18 19 return
      </CharString>
      <CharString index="66">
        30 73 hvcurveto
        return
      </CharString>
      <CharString index="67">
        98 9 29 139 138 -9 30 -98 -98 -10 -30 -138 -139 10 -29 98 hvcurveto
        return
      </CharString>
      <CharString index="68">
        -16 callsubr
        39 35 53 27 23 hvcurveto
        -51 hlineto
        -35 -36 -26 -49 -40 vvcurveto
        -42 21 -33 62 11 8 0 2 11 vhcurveto
        endchar
      </CharString>
      <CharString index="69">
        -85 callgsubr
        105 return
      </CharString>
      <CharString index="70">
        hlineto
        393 688 rlineto
        -49 hlineto
        return
      </CharString>
      <CharString index="71">
        805 rmoveto
        58 70 -58 hlineto
        return
      </CharString>
      <CharString index="72">
        -30 callsubr
        -313 -334 313 -58 -688 58 320 334 hlineto
        return
      </CharString>
      <CharString index="73">
        -133 198 -85 rmoveto
        120 263 -95 -40 rlineto
        334 vlineto
        95 -39 -120 263 -121 -263 96 39 rlineto
        -334 vlineto
        -96 40 rlineto
        return
      </CharString>
      <CharString index="74">
        45 87 51 41 -51 132 -36 hlineto
        -9 -132 rlineto
        -135 hlineto
        128 249 rlineto
        -50 hlineto
        -127 -254 rlineto
        -36 184 vlineto
        endchar
      </CharString>
      <CharString index="75">
        rmoveto
        65 hlineto
        return
      </CharString>
      <CharString index="76">
        660 rmoveto
        58 70 -58 hlineto
        return
      </CharString>
      <CharString index="77">
        -43 -7 -13 -79 vhcurveto
        return
      </CharString>
      <CharString index="78">
        rmoveto
        32 51 rlineto
        -14 9 -10 16 20 vvcurveto
        20 10 16 15 9 vhcurveto
        -32 51 rlineto
        -32 -20 -21 -35 -41 vvcurveto
        -42 21 -34 31 -20 vhcurveto
        return
      </CharString>
      <CharString index="79">
        rmoveto
        68 80 -68 hlineto
        2 -688 rmoveto
        64 124 hlineto
        80 -8 194 -2 106 vhcurveto
        -43 hlineto
        -2 -106 -9 -194 -80 vvcurveto
        endchar
      </CharString>
      <CharString index="80">
        45 287 -8 rmoveto
        209 7 50 302 302 -4 50 -212 -210 -7 -50 -302 -302 7 -50 210 hvcurveto
        return
      </CharString>
      <CharString index="81">
        31 20 21 34 42 vvcurveto
        41 -21 35 -32 20 vhcurveto
        -32 -51 rlineto
        15 -9 10 -16 -20 vvcurveto
        -20 -10 -16 -14 -9 vhcurveto
        endchar
      </CharString>
      <CharString index="82">
        rmoveto
        62 75 -62 hlineto
        return
      </CharString>
      <CharString index="83">
        118 7 rlineto
        37 vlineto
        -118 7 -7 180 rlineto
        -38 hlineto
        -7 -180 -116 -7 rlineto
        -37 vlineto
        116 -7 rlineto
        return
      </CharString>
      <CharString index="84">
        hlineto
        -231 return
      </CharString>
      <CharString index="85">
        51 -17 -118 -110 -57 -23 -58 hvcurveto
        -115 -53 115 hlineto
        88 34 -38 -103 -120 -61 -16 -108 return
      </CharString>
      <CharString index="86">
        50 hlineto
        144 341 rlineto
        36 -243 -41 194 vlineto
        return
      </CharString>
      <CharString index="87">
        vhcurveto
        -48 vlineto
        return
      </CharString>
      <CharString index="88">
        rmoveto
        380 166 rlineto
        63 vlineto
        -380 167 rlineto
        -53 vlineto
        332 -145 -332 -145 rlineto
        return
      </CharString>
      <CharString index="89">
        -106 callsubr
        127 return
      </CharString>
      <CharString index="90">
        34 529 rmoveto
        -29 vlineto
        76 14 23 9 callsubr
        -3 callsubr
        -50 -6 -14 -45 vhcurveto
        return
      </CharString>
      <CharString index="91">
        53 -347 -353 vlineto
        9 58 59 5 31 hhcurveto
        152 32 -19 -130 -118 -29 -37 return
      </CharString>
      <CharString index="92">
        rmoveto
        38 hlineto
        29 157 9 142 rlineto
        -57 hlineto
        return
      </CharString>
      <CharString index="93">
        hvcurveto
        77 -67 return
      </CharString>
      <CharString index="94">
        rmoveto
        53 vlineto
        -332 145 332 145 rlineto
        53 vlineto
        -380 -167 rlineto
        -63 vlineto
        return
      </CharString>
      <CharString index="95">
        759 rmoveto
        28 vlineto
        -76 -14 -21 -84 hvcurveto
        -77 67 78 -28 17 vlineto
        46 6 13 45 vhcurveto
        return
      </CharString>
      <CharString index="96">
        36 -80 rmoveto
        -29 vlineto
        76 15 22 9 callsubr
        27 -17 vlineto
        -50 -27 callsubr
        return
      </CharString>
      <CharString index="97">
        rmoveto
        -30 vlineto
        77 15 23 90 hvcurveto
        78 -68 -80 27 -17 vlineto
        -51 -47 callsubr
      </CharString>
      <CharString index="98">
        -29 -119 vvcurveto
        -129 35 -63 192 vhcurveto
        382 vmoveto
        -131 -32 28 106 107 return
      </CharString>
      <CharString index="99">
        rmoveto
        98 26 -17 -156 hvcurveto
        -15 -263 vlineto
        162 14 26 125 vhcurveto
        endchar
      </CharString>
      <CharString index="100">
        -212 hlineto
        return
      </CharString>
      <CharString index="101">
        -11 -57 -207 -211 11 -51 183 hvcurveto
        49 vmoveto
        -138 0 33 180 return
      </CharString>
      <CharString index="102">
        -6 52 hhcurveto
        182 41 57 159 128 -24 66 -177 -48 -52 -4 -6 return
      </CharString>
      <CharString index="103">
        -40 vlineto
        -5 31 40 -4 28 hhcurveto
        105 20 39 69 51 -20 25 -30 12 hvcurveto
        return
      </CharString>
      <CharString index="104">
        -190 rmoveto
        57 hlineto
        43 193 rlineto
        5 -40 vlineto
        -60 -193 rlineto
        endchar
      </CharString>
      <CharString index="105">
        56 264 return
      </CharString>
      <CharString index="106">
        59 688 return
      </CharString>
      <CharString index="107">
        -71 0 19 92 92 0 19 71 71 0 -19 -92 -92 0 -19 -71 hvcurveto
        return
      </CharString>
      <CharString index="108">
        668 -25 callgsubr
        return
      </CharString>
      <CharString index="109">
        -131 397 hmoveto
        696 vlineto
        -207 -145 -143 -205 return
      </CharString>
      <CharString index="110">
        vhcurveto
        8 callgsubr
        return
      </CharString>
      <CharString index="111">
        46 377 -34 hlineto
        -85 -45 rlineto
        -44 vlineto
        73 35 rlineto
        endchar
      </CharString>
      <CharString index="112">
        66 449 rmoveto
        38 hlineto
        10 157 rlineto
        82 -57 -82 vlineto
        return
      </CharString>
      <CharString index="113">
        37 -1 628 rmoveto
        567 60 -567 hlineto
        -688 vmoveto
        return
      </CharString>
      <CharString index="114">
        -196 60 259 rmoveto
        212 54 -7 callgsubr
        endchar
      </CharString>
      <CharString index="115">
        10 callsubr
        -7 -5 0 -5 hhcurveto
        return
      </CharString>
      <CharString index="116">
        hlineto
        -100 204 100 205 rlineto
        return
      </CharString>
      <CharString index="117">
        -4 hlineto
        -4 return
      </CharString>
      <CharString index="118">
        vmoveto
        -204 -7 21 299 299 7 21 204 return
      </CharString>
      <CharString index="119">
        21 38 70 50 -21 25 -29 12 hvcurveto
        4 vlineto
        29 15 return
      </CharString>
      <CharString index="120">
        -238 -7 -43 -309 -309 7 -43 238 return
      </CharString>
      <CharString index="121">
        -413 29 289 rmoveto
        38 hlineto
        19 222 rlineto
        return
      </CharString>
      <CharString index="122">
        rmoveto
        17 callsubr
      </CharString>
      <CharString index="123">
        263 120 -263 121 39 -96 rlineto
        return
      </CharString>
      <CharString index="124">
        rlineto
        60 hlineto
        68 204 rlineto
        276 hlineto
        68 return
      </CharString>
      <CharString index="125">
        37 -13 36 hhcurveto
        59 9 30 return
      </CharString>
      <CharString index="126">
        rmoveto
        -212 -53 212 hlineto
        return
      </CharString>
      <CharString index="127">
        -340 60 430 rmoveto
        68 80 -68 hlineto
        return
      </CharString>
      <CharString index="128">
        255 -8 rmoveto
        190 5 54 229 return
      </CharString>
</ttFont>
